<svg width="32" height="24" viewBox="0 0 32 24" xmlns="http://www.w3.org/2000/svg">
<path fill-rule="evenodd" clip-rule="evenodd" d="M14.1171 15.2929C14.5076 15.6834 14.5076 16.3166 14.1171 16.7071C13.7266 17.0976 13.0934 17.0976 12.7029 16.7071L7.99579 12L12.7029 7.29289C13.0934 6.90237 13.7266 6.90237 14.1171 7.29289C14.5076 7.68342 14.5076 8.31658 14.1171 8.70711L10.8242 12L14.1171 15.2929Z"/>
<path fill-rule="evenodd" clip-rule="evenodd" d="M22.1171 15.2929C22.5076 15.6834 22.5076 16.3166 22.1171 16.7071C21.7266 17.0976 21.0934 17.0976 20.7029 16.7071L15.9958 12L20.7029 7.29289C21.0934 6.90237 21.7266 6.90237 22.1171 7.29289C22.5076 7.68342 22.5076 8.31658 22.1171 8.70711L18.8242 12L22.1171 15.2929Z"/>
</svg>
