<svg width="32" height="24" viewBox="0 0 32 24" xmlns="http://www.w3.org/2000/svg">
<path fill-rule="evenodd" clip-rule="evenodd" d="M17.8829 8.70711C17.4924 8.31658 17.4924 7.68342 17.8829 7.29289C18.2734 6.90237 18.9066 6.90237 19.2971 7.29289L24.0042 12L19.2971 16.7071C18.9066 17.0976 18.2734 17.0976 17.8829 16.7071C17.4924 16.3166 17.4924 15.6834 17.8829 15.2929L21.1758 12L17.8829 8.70711Z"/>
<path fill-rule="evenodd" clip-rule="evenodd" d="M9.88289 8.70711C9.49237 8.31658 9.49237 7.68342 9.88289 7.29289C10.2734 6.90237 10.9066 6.90237 11.2971 7.29289L16.0042 12L11.2971 16.7071C10.9066 17.0976 10.2734 17.0976 9.88289 16.7071C9.49236 16.3166 9.49236 15.6834 9.88289 15.2929L13.1758 12L9.88289 8.70711Z"/>
</svg>
