<svg width="16" height="16" viewBox="0 0 16 16" xmlns="http://www.w3.org/2000/svg">
<g id="16 Universal / ic_16_dots_horizontal">
<path id="Combined Shape" fill-rule="evenodd" clip-rule="evenodd" d="M3.5 9.4999C2.672 9.4999 2 8.8289 2 7.9999C2 7.1719 2.672 6.4999 3.5 6.4999C4.328 6.4999 5 7.1719 5 7.9999C5 8.8289 4.328 9.4999 3.5 9.4999ZM8 9.4999C7.172 9.4999 6.5 8.8289 6.5 7.9999C6.5 7.1719 7.172 6.4999 8 6.4999C8.828 6.4999 9.5 7.1719 9.5 7.9999C9.5 8.8289 8.828 9.4999 8 9.4999ZM11 7.9999C11 8.8289 11.672 9.4999 12.5 9.4999C13.328 9.4999 14 8.8289 14 7.9999C14 7.1719 13.328 6.4999 12.5 6.4999C11.672 6.4999 11 7.1719 11 7.9999Z"/>
</g>
</svg>
