<svg xmlns="http://www.w3.org/2000/svg" width="24" height="24" viewBox="0 0 24 24">
    <path fill-rule="evenodd" clip-rule="evenodd" d="M6.56826 6.78411L4.07341 5.98874L2.79098 8.19317L4.63704 9.85392C4.42122 10.5329 4.30514 11.2535 4.30514 12C4.30514 12.7466 4.42125 13.4673 4.63713 14.1464L2.79146 15.8068L4.07388 18.0112L6.56831 17.216C7.53826 18.141 8.76472 18.8199 10.1367 19.1463L10.7184 21.8182H13.2832L13.865 19.1458C15.236 18.8191 16.4616 18.1404 17.4311 17.2159L19.9261 18.0113L21.2085 15.8069L19.3623 14.146C19.5781 13.4671 19.6942 12.7465 19.6942 12C19.6942 11.2536 19.5781 10.5331 19.3624 9.85424L21.209 8.193L19.9266 5.98857L17.4311 6.78414C16.4617 5.85959 15.236 5.18094 13.865 4.85422L13.2832 2.18182H10.7184L10.1367 4.85366C8.7647 5.18016 7.53822 5.85905 6.56826 6.78411ZM1.45337 9.68004L2.42087 10.5504C2.34464 11.0235 2.30514 11.5077 2.30514 12C2.30514 12.4924 2.34466 12.9767 2.42092 13.4499L1.45385 14.3199C0.74973 14.9533 0.586458 15.9938 1.06271 16.8125L2.34513 19.0169C2.81665 19.8274 3.78797 20.2015 4.68137 19.9167L6.13159 19.4544C6.83028 19.968 7.60263 20.3915 8.42983 20.708L8.76413 22.2436C8.96421 23.1627 9.77772 23.8182 10.7184 23.8182H13.2832C14.2238 23.8182 15.0373 23.1627 15.2374 22.2436L15.5719 20.7071C16.3982 20.3907 17.1698 19.9675 17.8678 19.4543L19.3186 19.9169C20.212 20.2017 21.1833 19.8276 21.6548 19.017L22.9373 16.8126C23.4135 15.994 23.2502 14.9535 22.5461 14.3201L21.5785 13.4495C21.6547 12.9765 21.6942 12.4923 21.6942 12C21.6942 11.5078 21.6547 11.0238 21.5785 10.5508L22.5466 9.67987C23.2507 9.04644 23.414 8.00596 22.9377 7.1873L21.6553 4.98288C21.1838 4.17236 20.2125 3.79825 19.3191 4.08307L17.8678 4.54573C17.1698 4.03253 16.3982 3.60937 15.5719 3.29294L15.2374 1.7564C15.0373 0.837292 14.2238 0.181824 13.2832 0.181824H10.7184C9.77772 0.181824 8.96421 0.837292 8.76412 1.7564L8.42983 3.29201C7.6026 3.60853 6.83023 4.03201 6.13153 4.5457L4.68089 4.08323C3.7875 3.79841 2.81617 4.17252 2.34466 4.98304L1.06224 7.18747C0.585982 8.00613 0.749252 9.0466 1.45337 9.68004ZM15.5 12C15.5 13.933 13.933 15.5 12 15.5C10.067 15.5 8.5 13.933 8.5 12C8.5 10.067 10.067 8.5 12 8.5C13.933 8.5 15.5 10.067 15.5 12ZM17.5 12C17.5 15.0376 15.0376 17.5 12 17.5C8.96243 17.5 6.5 15.0376 6.5 12C6.5 8.96243 8.96243 6.5 12 6.5C15.0376 6.5 17.5 8.96243 17.5 12Z"/>
</svg>
