<svg width="36" height="36" viewBox="0 0 36 36" xmlns="http://www.w3.org/2000/svg">
<g clip-path="url(#clip0)">
<path fill-rule="evenodd" clip-rule="evenodd" d="M36 18C36 27.94 27.941 36 18 36C8.059 36 0 27.94 0 18C0 8.059 8.059 0 18 0C27.941 0 36 8.059 36 18ZM23.3586 7.75055C22.3128 6.74982 20.6172 6.74982 19.5714 7.75055C18.5257 6.74982 16.83 6.74982 15.7843 7.75055C14.7386 8.75164 14.7386 10.3742 15.7843 11.3753L19.2257 14.6691C19.419 14.8542 19.7238 14.8542 19.9172 14.6691L23.3586 11.3753C24.4043 10.3742 24.4043 8.75164 23.3586 7.75055ZM7.8 16.7C7.24772 16.7 6.8 17.1477 6.8 17.7V26.7C6.8 27.2522 7.24772 27.7 7.8 27.7C8.35229 27.7 8.8 27.2522 8.8 26.7V17.7C8.8 17.1477 8.35229 16.7 7.8 16.7ZM22.24 23H17.9C17.6239 23 17.4 22.7761 17.4 22.5C17.4 22.2238 17.6239 22 17.9 22H22.24C23.2478 22 24.2198 21.5 24.2198 20.285C24.2198 19.4062 23.4174 18.8049 22.3355 18.8049L19.102 18.7969C18.6202 18.7969 18.2632 18.7886 17.8339 18.5546L17.3449 18.2732C16.1917 17.6084 15.4129 17.3173 14.3363 17.3173C13.2301 17.3173 11.7601 17.6784 10.8088 18.2851C10.6889 18.3616 10.5853 18.4262 10.4941 18.4831L10.4941 18.4831C10.1584 18.6925 9.99103 18.7969 9.79999 18.9999V25.4999C10.6851 25.4999 11.9883 25.8798 13.0419 26.2245L13.6775 26.4424L14.186 26.6231C16.1764 27.3291 17.4191 27.6157 19.1832 27.6157C20.2714 27.6157 21.247 27.2519 22.52 26.5192L30.429 21.9285C30.5412 21.864 30.6445 21.8067 30.7384 21.7545C31.4255 21.373 31.6174 21.2665 31.2286 20.662C30.4975 19.5256 28.6644 19.3907 27.3714 19.9763C27.2765 20.0174 27.1724 20.0616 27.0621 20.1084C26.2592 20.449 25.1333 20.9267 24.9202 21.3492C24.4263 22.3284 23.4116 23 22.24 23Z"/>
</g>
<defs>
<clipPath id="clip0">
<rect width="36" height="36" />
</clipPath>
</defs>
</svg>
