<svg xmlns="http://www.w3.org/2000/svg" width="36" height="36" fill-rule="evenodd" xmlnsV="https://vecta.io/nano">
    <path d="M8 8v6.5h6.5V8H8zM7 6a1 1 0 0 0-1 1v8.5a1 1 0 0 0 1 1h8.5a1 1 0 0 0 1-1V7a1 1 0 0 0-1-1H7zm1 15.5V28h6.5v-6.5H8zm-1-2a1 1 0 0 0-1 1V29a1 1 0 0 0 1 1h8.5a1 1 0 0 0 1-1v-8.5a1 1 0 0 0-1-1H7zM21.5 8v6.5H28V8h-6.5zm-1-2a1 1 0 0 0-1 1v8.5a1 1 0 0 0 1 1H29a1 1 0 0 0 1-1V7a1 1 0 0 0-1-1h-8.5zm1 15.5V28H28v-6.5h-6.5zm-1-2a1 1 0 0 0-1 1V29a1 1 0 0 0 1 1H29a1 1 0 0 0 1-1v-8.5a1 1 0 0 0-1-1h-8.5z"/>
</svg>
