<svg xmlns="http://www.w3.org/2000/svg" width="36" height="36" viewBox="0 0 36 36">
    <path fill-rule="evenodd" clip-rule="evenodd" d="M6 8.49999V10.7889C7.45891 8.36104 9.62911 6.41906 12.2373 5.24105C15.4199 3.80359 19.0248 3.60747 22.3446 4.69119C25.6643 5.77491 28.4592 8.06022 30.1807 11.0986C31.9022 14.137 32.426 17.709 31.6493 21.1137C30.8726 24.5185 28.8515 27.51 25.9826 29.5011C23.1137 31.4923 19.6042 32.3394 16.1429 31.8762C12.6816 31.413 9.51839 29.6729 7.27406 26.9974C5.29254 24.6352 4.15364 21.6944 4.01449 18.6368L4.01203 18.5801C4.00973 18.5247 4.00777 18.4693 4.00613 18.4139C3.98983 17.8624 4.45914 17.4338 5.01039 17.4568C5.51353 17.4778 5.91053 17.8681 5.99338 18.3552C5.99825 18.3838 6.00204 18.4129 6.0047 18.4421C6.00636 18.4604 6.00758 18.4789 6.00834 18.4974C6.11772 21.136 7.09562 23.6757 8.80483 25.7133C10.7289 28.007 13.4406 29.4987 16.408 29.8959C19.3753 30.293 22.3839 29.5668 24.8433 27.8597C27.3028 26.1527 29.0355 23.5882 29.7013 20.6694C30.3672 17.7506 29.9181 14.6883 28.4423 12.0835C26.9665 9.47878 24.5705 7.51963 21.7245 6.59057C18.8786 5.66152 15.7881 5.82965 13.0597 7.06196C10.759 8.10111 8.85577 9.83372 7.6054 12H9.5C10.1797 12 10.6923 12.3202 10.6923 13C10.6923 13.6797 10.1797 14 9.5 14H5.23077C4.55103 14 4 13.449 4 12.7692V8.49999C4 7.82026 4.32026 7.30767 5 7.30767C5.67974 7.30767 6 7.82026 6 8.49999ZM19.4 20C21.5833 20 23.4 18.1833 23.4 16C23.4 13.8227 21.513 12 19.323 12H16.37C15.8166 12 15.3685 12.4494 15.37 13.0027L15.3836 18H14.4C13.8477 18 13.4 18.4477 13.4 19C13.4 19.5523 13.8477 20 14.4 20H15.3891L15.3922 21.15H14.4C13.9306 21.15 13.55 21.5306 13.55 22C13.55 22.4694 13.9306 22.85 14.4 22.85H15.3969L15.4 24.0027C15.4015 24.555 15.8504 25.0015 16.4027 25C16.955 24.9985 17.4015 24.5496 17.4 23.9973L17.3969 22.85H19.4C19.8694 22.85 20.25 22.4694 20.25 22C20.25 21.5306 19.8694 21.15 19.4 21.15H17.3922L17.3891 20H19.4ZM17.3836 18L17.3727 14H19.323C20.4237 14 21.4 14.9431 21.4 16C21.4 17.0787 20.4787 18 19.4 18H17.3836Z"/>
</svg>
