<svg width="36" height="36" viewBox="0 0 36 36" fill="none" xmlns="http://www.w3.org/2000/svg">
<path fill-rule="evenodd" clip-rule="evenodd" d="M29 28C29 29.6563 27.6563 31 26 31H10C8.34372 31 7 29.6563 7 28V8C7 6.34372 8.34372 5 10 5H22.4142L29 11.5858V28ZM20 7V14H27V28C27 28.5517 26.5517 29 26 29H10C9.44828 29 9 28.5517 9 28V8C9 7.44828 9.44828 7 10 7H20ZM26.586 12H22V7.415L26.586 12ZM15.1119 24.4963L13.483 27H11.155L13.9475 22.7065L11.155 18.414L13.49 18.421L15.1122 20.9156L16.736 18.419L19.069 18.414L16.2766 22.7061L19.069 27L16.74 26.999L15.1119 24.4963Z" />
</svg>
