<svg width="48" height="48" viewBox="0 0 48 48" fill="none" xmlns="http://www.w3.org/2000/svg">
    <circle r="24" transform="matrix(1 0 0 -1 24 24)" fill="#7A7A7A"/>
    <path fill-rule="evenodd" clip-rule="evenodd" d="M18.6667 13.3333H29.3333H30.6667H32C32 13.7114 31.994 14.0821 31.9817 14.4452C31.9937 14.5173 32 14.5912 32 14.6667C32 14.7822 31.9853 14.8942 31.9577 15.0011C31.805 17.8937 31.2322 20.2775 30.1307 22.04C29.6316 22.8385 29.0349 23.4918 28.35 24C29.0349 24.5081 29.6316 25.1615 30.1307 25.96C31.2322 27.7224 31.805 30.1062 31.9577 32.9989C31.9853 33.1057 32 33.2178 32 33.3333C32 33.4088 31.9937 33.4827 31.9817 33.5547C31.994 33.9179 32 34.2886 32 34.6667L30.6667 34.6667L29.3333 34.6667H18.6667L17.3333 34.6667L16 34.6667C16 34.2886 16.006 33.9179 16.0183 33.5547C16.0063 33.4827 16 33.4088 16 33.3333C16 33.2178 16.0147 33.1058 16.0423 32.9989C16.195 30.1063 16.7678 27.7224 17.8693 25.96C18.3684 25.1615 18.9651 24.5082 19.65 24C18.9651 23.4918 18.3684 22.8385 17.8693 22.04C16.7678 20.2775 16.195 17.8937 16.0423 15.0011C16.0147 14.8942 16 14.7822 16 14.6667C16 14.5912 16.0063 14.5173 16.0183 14.4452C16.006 14.0821 16 13.7114 16 13.3333H17.3333H18.6667ZM24 22.6667C25.7958 22.6667 27.019 21.9872 27.8693 20.6267C28.5272 19.5741 28.9955 18.0551 29.207 16H18.793C19.0045 18.0551 19.4728 19.5741 20.1307 20.6267C20.981 21.9872 22.2042 22.6667 24 22.6667ZM24 25.3333C22.2042 25.3333 20.981 26.0128 20.1307 27.3733C19.4728 28.4259 19.0045 29.9449 18.793 32H29.207C28.9955 29.9449 28.5272 28.4259 27.8693 27.3733C27.019 26.0128 25.7958 25.3333 24 25.3333Z" fill="white"/>
</svg>
