<svg width="48" height="48" viewBox="0 0 48 48" fill="none" xmlns="http://www.w3.org/2000/svg">
    <circle cx="24" cy="24" r="24" fill="#E35502"/>
    <path fill-rule="evenodd" clip-rule="evenodd" d="M14.5858 14.5858C15.3668 13.8047 16.6332 13.8047 17.4142 14.5858L24 21.1716L30.5858 14.5858C31.3668 13.8047 32.6332 13.8047 33.4142 14.5858C34.1953 15.3668 34.1953 16.6332 33.4142 17.4142L26.8284 24L33.4142 30.5858C34.1953 31.3668 34.1953 32.6332 33.4142 33.4142C32.6332 34.1953 31.3668 34.1953 30.5858 33.4142L24 26.8284L17.4142 33.4142C16.6332 34.1953 15.3668 34.1953 14.5858 33.4142C13.8047 32.6332 13.8047 31.3668 14.5858 30.5858L21.1716 24L14.5858 17.4142C13.8047 16.6332 13.8047 15.3668 14.5858 14.5858Z" fill="white"/>
</svg>
