<svg width="135" height="40" viewBox="0 0 135 40" fill="none" xmlns="http://www.w3.org/2000/svg">
<mask id="mask0_108_53" style="mask-type:alpha" maskUnits="userSpaceOnUse" x="0" y="0" width="135" height="41">
<path d="M135 0H0V40.0005H135V0Z" fill="white"/>
</mask>
<g mask="url(#mask0_108_53)">
<mask id="mask1_108_53" style="mask-type:alpha" maskUnits="userSpaceOnUse" x="0" y="0" width="135" height="41">
<path d="M135 0H0V40.0005H135V0Z" fill="white"/>
</mask>
<g mask="url(#mask1_108_53)">
<path d="M129.999 40.0005H5.00085C2.2507 40.0005 0 37.7498 0 34.9997V5.00085C0 2.2507 2.2507 0 5.00085 0H129.999C132.749 0 135 2.2507 135 5.00085V34.9997C135 37.7498 132.749 40.0005 129.999 40.0005Z" fill="#12100B"/>
<path d="M129.999 0.800387C132.315 0.800387 134.2 2.68537 134.2 5.00085V34.9997C134.2 37.3152 132.315 39.2002 129.999 39.2002H5.00085C2.68537 39.2002 0.800387 37.3152 0.800387 34.9997V5.00085C0.800387 2.68328 2.68328 0.800387 5.00085 0.800387H129.999ZM129.999 0H5.00085C2.2507 0 0 2.2507 0 5.00085V34.9997C0 37.7498 2.2507 40.0005 5.00085 40.0005H129.999C132.749 40.0005 135 37.7498 135 34.9997V5.00085C135 2.2507 132.749 0 129.999 0Z" fill="#AFACAB"/>
<path d="M68.1353 21.7505C65.7843 21.7505 63.8659 23.5393 63.8659 26.0053C63.8659 28.4712 65.7822 30.258 68.1353 30.258C70.4884 30.258 72.4047 28.4524 72.4047 26.0053C72.4047 23.5581 70.4884 21.7505 68.1353 21.7505ZM68.1353 28.582C66.8459 28.582 65.7341 27.5183 65.7341 26.0053C65.7341 24.4923 66.8459 23.4265 68.1353 23.4265C69.4247 23.4265 70.5344 24.4734 70.5344 26.0053C70.5344 27.5371 69.4226 28.582 68.1353 28.582ZM58.8211 21.7505C56.4701 21.7505 54.5517 23.5393 54.5517 26.0053C54.5517 28.4712 56.468 30.258 58.8211 30.258C61.1742 30.258 63.0906 28.4524 63.0906 26.0053C63.0906 23.5581 61.1721 21.7505 58.8211 21.7505ZM58.8211 28.582C57.5338 28.582 56.4221 27.5183 56.4221 26.0053C56.4221 24.4923 57.5338 23.4265 58.8211 23.4265C60.1084 23.4265 61.2223 24.4734 61.2223 26.0053C61.2223 27.5371 60.1105 28.582 58.8211 28.582ZM47.7432 23.0566V24.8601H52.0607C51.9311 25.8757 51.5947 26.6155 51.0785 27.1317C50.4495 27.7607 49.4673 28.4524 47.7432 28.4524C45.085 28.4524 43.0057 26.3104 43.0057 23.6522C43.0057 20.994 45.0829 18.8519 47.7432 18.8519C49.1768 18.8519 50.2238 19.4141 50.997 20.1392L52.2697 18.8666C51.1892 17.8363 49.7557 17.0464 47.7432 17.0464C44.1028 17.0464 41.0413 20.0118 41.0413 23.6522C41.0413 27.2926 44.1028 30.258 47.7432 30.258C49.7076 30.258 51.1892 29.6122 52.3512 28.4043C53.5423 27.2132 53.9143 25.5371 53.9143 24.183C53.9143 23.765 53.883 23.3784 53.8182 23.0566H47.7453H47.7432ZM93.0518 24.4567C92.6965 23.5059 91.6182 21.7505 89.4114 21.7505C87.2046 21.7505 85.4011 23.4745 85.4011 26.0053C85.4011 28.3897 87.2046 30.258 89.6204 30.258C91.5701 30.258 92.6965 29.0668 93.1646 28.373L91.7143 27.4054C91.2295 28.1138 90.5712 28.582 89.6204 28.582C88.6695 28.582 87.9924 28.1473 87.5578 27.2947L93.244 24.9416L93.0518 24.4588V24.4567ZM87.2526 25.8757C87.2046 24.231 88.5253 23.3951 89.4762 23.3951C90.218 23.3951 90.8471 23.765 91.056 24.2979L87.2547 25.8778L87.2526 25.8757ZM82.628 29.9988H84.4962V17.4978H82.628V29.9988ZM79.5664 22.7013H79.5016C79.0837 22.2019 78.277 21.7505 77.2635 21.7505C75.1361 21.7505 73.1884 23.6187 73.1884 26.0199C73.1884 28.421 75.1382 30.2559 77.2635 30.2559C78.2791 30.2559 79.0837 29.8045 79.5016 29.2883H79.5664V29.9006C79.5664 31.5286 78.6971 32.3979 77.2948 32.3979C76.1517 32.3979 75.4412 31.5766 75.1528 30.8849L73.5248 31.562C73.9909 32.6905 75.2322 34.076 77.2948 34.076C79.4849 34.076 81.3386 32.7866 81.3386 29.6457V22.0096H79.5664V22.7034V22.7013ZM77.4244 28.582C76.135 28.582 75.0567 27.5036 75.0567 26.022C75.0567 24.5403 76.135 23.4286 77.4244 23.4286C78.7138 23.4286 79.696 24.5236 79.696 26.022C79.696 27.5204 78.6971 28.582 77.4244 28.582ZM101.806 17.4998H97.3358V30.0009H99.1999V25.2655H101.806C103.875 25.2655 105.906 23.7671 105.906 21.3827C105.906 18.9982 103.873 17.4998 101.806 17.4998ZM101.854 23.5247H99.1999V19.2385H101.854C103.25 19.2385 104.042 20.3942 104.042 21.3806C104.042 22.3669 103.25 23.5226 101.854 23.5226M113.385 21.7275C112.035 21.7275 110.635 22.3231 110.056 23.6396L111.714 24.3313C112.067 23.6396 112.727 23.4139 113.419 23.4139C114.384 23.4139 115.364 23.9928 115.381 25.021V25.1505C115.043 24.9583 114.32 24.6678 113.436 24.6678C111.651 24.6678 109.833 25.6479 109.833 27.4827C109.833 29.1566 111.298 30.2329 112.936 30.2329C114.192 30.2329 114.882 29.6707 115.316 29.0104H115.381V29.9758H117.183V25.1819C117.183 22.9625 115.527 21.7254 113.387 21.7254M113.162 28.5757C112.549 28.5757 111.697 28.2706 111.697 27.5141C111.697 26.5486 112.758 26.1808 113.676 26.1808C114.495 26.1808 114.882 26.3584 115.381 26.5988C115.237 27.7565 114.24 28.5778 113.162 28.5778M123.744 21.9991L121.604 27.42H121.54L119.32 21.9991H117.31L120.639 29.5746L118.741 33.7876H120.687L125.817 21.9991H123.742H123.744ZM106.938 29.9967H108.805V17.4957H106.938V29.9967Z" fill="white"/>
<path d="M20.7181 19.4245L10.0707 30.724C10.0707 30.724 10.0707 30.7282 10.0707 30.7303C10.3967 31.957 11.5168 32.8598 12.848 32.8598C13.3809 32.8598 13.8783 32.7156 14.3067 32.4648L14.3401 32.4439L26.325 25.5288L20.716 19.4225L20.7181 19.4245Z" fill="#E43629"/>
<path d="M31.4889 17.4999L31.4784 17.4936L26.3041 14.4948L20.4757 19.6816L26.325 25.5288L31.4701 22.5592C32.3728 22.0702 32.9851 21.1194 32.9851 20.0243C32.9851 18.9293 32.3812 17.9889 31.4868 17.4999" fill="#F9BD00"/>
<path d="M10.0706 9.27655C10.0058 9.5127 9.97241 9.76138 9.97241 10.0163V29.9842C9.97241 30.2413 10.0058 30.4879 10.0706 30.724L21.0817 19.7129L10.0706 9.27655Z" fill="#587DBE"/>
<path d="M20.7954 20.0013L26.3062 14.4926L14.3359 7.55247C13.9013 7.29124 13.3934 7.14078 12.8501 7.14078C11.521 7.14078 10.3988 8.04565 10.0707 9.27445C10.0707 9.27445 10.0707 9.27445 10.0707 9.27654L20.7975 20.0013H20.7954Z" fill="#30A043"/>
</g>
<path d="M43.0683 12.8459C42.573 12.5617 42.1822 12.1709 41.898 11.6714C41.6138 11.172 41.4717 10.6224 41.4717 10.0184C41.4717 9.41446 41.6138 8.86485 41.898 8.36539C42.1822 7.86593 42.573 7.47514 43.0683 7.19093C43.5636 6.90672 44.1132 6.76462 44.7171 6.76462C45.6512 6.76462 46.4203 7.10316 47.0221 7.78234L46.3534 8.43436C46.1382 8.1794 45.8999 7.98714 45.6366 7.85966C45.3733 7.73219 45.0703 7.6674 44.7276 7.6674C44.3033 7.6674 43.9188 7.76353 43.5698 7.95788C43.2229 8.15223 42.9471 8.42809 42.7423 8.78544C42.5396 9.14279 42.4372 9.55239 42.4372 10.0163C42.4372 10.4803 42.5396 10.8899 42.7423 11.2472C42.945 11.6046 43.2208 11.8804 43.5698 12.0727C43.9167 12.267 44.3033 12.3652 44.7276 12.3652C45.436 12.3652 46.0295 12.0727 46.5101 11.4854L47.1977 12.1458C46.8968 12.499 46.5331 12.7748 46.111 12.9734C45.6868 13.1698 45.2228 13.2701 44.7192 13.2701C44.1153 13.2701 43.5656 13.128 43.0704 12.8438L43.0683 12.8459Z" fill="white"/>
<path d="M48.2656 6.90465H49.2227V9.92438H49.275L51.7556 6.90465H52.9572V6.95689L50.3303 10.0707L53.0972 13.08V13.1322H51.8433L49.2771 10.2776H49.2248V13.1322H48.2677V6.90256L48.2656 6.90465Z" fill="white"/>
<path d="M56.0438 6.90463H57.1305L59.4877 13.1343H58.4345L57.8598 11.5335H55.3186L54.7439 13.1343H53.6907L56.0396 6.90463H56.0438ZM57.5484 10.6453L56.8525 8.73528L56.6185 8.02267H56.5662L56.3322 8.73528L55.6363 10.6453H57.5505H57.5484Z" fill="white"/>
<path d="M63.0905 10.359C62.7018 10.7018 62.2233 10.8731 61.6548 10.8731C61.2787 10.8731 60.938 10.7958 60.6329 10.6433C60.3278 10.4907 60.0896 10.2671 59.9161 9.9787C59.7427 9.68823 59.6549 9.34759 59.6549 8.95262V6.90881H60.6204V8.78753C60.6204 9.16369 60.7311 9.45626 60.9506 9.66106C61.17 9.86795 61.4668 9.97035 61.8387 9.97035C62.3424 9.97035 62.7603 9.77391 63.0926 9.37894V6.90881H64.0414V13.1385H63.0926V10.3632L63.0905 10.359Z" fill="white"/>
<path d="M67.2304 6.90463H68.3171L70.6744 13.1343H69.6211L69.0464 11.5335H66.5053L65.9306 13.1343H64.8773L67.2262 6.90463H67.2304ZM68.7351 10.6453L68.0392 8.73528L67.8051 8.02267H67.7529L67.5188 8.73528L66.8229 10.6453H68.7371H68.7351Z" fill="white"/>
<path d="M72.2939 7.80951H70.5448V6.90463H74.9898V7.80951H73.249V13.1343H72.2919V7.80951H72.2939Z" fill="white"/>
<path d="M75.9824 6.90463H76.9395V9.12398H78.2624C78.6511 9.12398 79.0105 9.20339 79.3407 9.36431C79.6709 9.52313 79.9342 9.7551 80.1327 10.0602C80.3292 10.3653 80.4274 10.7206 80.4274 11.126C80.4274 11.5314 80.3292 11.8867 80.1327 12.1918C79.9363 12.4969 79.6709 12.7289 79.3407 12.8919C79.0105 13.0549 78.6511 13.1364 78.2624 13.1364H75.9824V6.90672V6.90463ZM78.3313 12.2378C78.557 12.2378 78.7577 12.1855 78.9311 12.081C79.1046 11.9765 79.2383 11.8386 79.3303 11.6672C79.4222 11.4959 79.4703 11.3141 79.4703 11.1239C79.4703 10.9337 79.4243 10.7519 79.3303 10.5806C79.2383 10.4092 79.1046 10.2713 78.9311 10.1626C78.7577 10.056 78.557 10.0017 78.3313 10.0017H76.9395V12.2378H78.3313Z" fill="white"/>
<path d="M83.5098 6.90463H84.4585V10.3507L84.4063 11.5523H84.4585L87.2505 6.90672H88.3372V13.1364H87.3884V9.60463L87.4407 8.40301H87.3884L84.5526 13.1364H83.5077V6.90672L83.5098 6.90463Z" fill="white"/>
<path d="M90.2117 12.8731C89.8209 12.6056 89.5513 12.2127 89.4071 11.6902L90.2848 11.3413C90.36 11.6652 90.5063 11.9222 90.7237 12.1061C90.941 12.2921 91.1981 12.3841 91.4927 12.3841C91.8124 12.3841 92.0841 12.2837 92.3098 12.0831C92.5355 11.8825 92.6484 11.6359 92.6484 11.3392C92.6484 11.1469 92.594 10.9735 92.4833 10.8125C92.3725 10.6537 92.222 10.5262 92.0319 10.4343C91.8396 10.3423 91.6327 10.2943 91.4049 10.2943H90.8909V9.45836H91.3527C91.6662 9.45836 91.9274 9.37268 92.1364 9.20132C92.3453 9.02996 92.4498 8.80008 92.4498 8.5096C92.4498 8.25465 92.3537 8.04358 92.1594 7.87431C91.965 7.70712 91.7226 7.62144 91.4321 7.62144C91.1709 7.62144 90.9515 7.70085 90.7717 7.8555C90.592 8.01223 90.4666 8.19822 90.3977 8.41138L89.5534 8.06239C89.6746 7.71966 89.8961 7.41664 90.22 7.15333C90.5419 6.89002 90.9494 6.75836 91.4426 6.75836C91.8187 6.75836 92.1552 6.8315 92.4477 6.97988C92.7403 7.12825 92.9702 7.33096 93.1353 7.58801C93.3004 7.84714 93.384 8.13762 93.384 8.46154C93.384 9.06548 93.1207 9.51061 92.5919 9.80109V9.85333C92.8887 9.98708 93.129 10.1814 93.315 10.4364C93.501 10.6913 93.5929 11.0027 93.5929 11.3684C93.5929 11.7341 93.501 12.0434 93.3192 12.3339C93.1374 12.6244 92.8845 12.8522 92.5669 13.0173C92.2471 13.1824 91.8919 13.2659 91.4969 13.2659C91.033 13.2659 90.6046 13.1322 90.2138 12.8647L90.2117 12.8731Z" fill="white"/>
</g>
</svg>
