<svg width="135" height="40" viewBox="0 0 135 40" fill="none" xmlns="http://www.w3.org/2000/svg">
<path d="M130 0H5C2.23858 0 0 2.23858 0 5V35C0 37.7614 2.23858 40 5 40H130C132.761 40 135 37.7614 135 35V5C135 2.23858 132.761 0 130 0Z" fill="black"/>
<path d="M130 0.8C132.32 0.8 134.2 2.68 134.2 5V35C134.2 37.32 132.32 39.2 130 39.2H5C2.68 39.2 0.8 37.32 0.8 35V5C0.8 2.68 2.68 0.8 5 0.8H130ZM130 0H5C2.25 0 0 2.25 0 5V35C0 37.75 2.25 40 5 40H130C132.75 40 135 37.75 135 35V5C135 2.25 132.75 0 130 0Z" fill="#A6A6A6"/>
<path d="M47.889 11.039C47.889 11.939 47.622 12.656 47.088 13.19C46.488 13.826 45.699 14.144 44.721 14.144C43.785 14.144 42.993 13.82 42.345 13.172C41.697 12.524 41.373 11.726 41.373 10.778C41.373 9.83 41.697 9.032 42.345 8.384C42.993 7.736 43.785 7.412 44.721 7.412C45.195 7.412 45.642 7.496 46.062 7.664C46.482 7.832 46.827 8.069 47.097 8.375L46.503 8.969C46.305 8.729 46.047 8.543 45.729 8.411C45.417 8.273 45.081 8.204 44.721 8.204C44.019 8.204 43.425 8.447 42.939 8.933C42.459 9.425 42.219 10.04 42.219 10.778C42.219 11.516 42.459 12.131 42.939 12.623C43.425 13.109 44.019 13.352 44.721 13.352C45.363 13.352 45.897 13.172 46.323 12.812C46.749 12.452 46.995 11.957 47.061 11.327H44.721V10.553H47.844C47.874 10.721 47.889 10.883 47.889 11.039ZM52.6571 7.556V8.348H49.7231V10.391H52.3691V11.165H49.7231V13.208H52.6571V14H48.8951V7.556H52.6571ZM55.969 8.348V14H55.141V8.348H53.341V7.556H57.769V8.348H55.969ZM61.4389 14H60.6109V7.556H61.4389V14ZM64.9338 8.348V14H64.1058V8.348H62.3058V7.556H66.7338V8.348H64.9338ZM75.709 10.778C75.709 11.732 75.391 12.53 74.755 13.172C74.113 13.82 73.327 14.144 72.397 14.144C71.461 14.144 70.675 13.82 70.039 13.172C69.403 12.53 69.085 11.732 69.085 10.778C69.085 9.824 69.403 9.026 70.039 8.384C70.675 7.736 71.461 7.412 72.397 7.412C73.333 7.412 74.119 7.739 74.755 8.393C75.391 9.035 75.709 9.83 75.709 10.778ZM69.931 10.778C69.931 11.522 70.165 12.137 70.633 12.623C71.107 13.109 71.695 13.352 72.397 13.352C73.099 13.352 73.684 13.109 74.152 12.623C74.626 12.143 74.863 11.528 74.863 10.778C74.863 10.028 74.626 9.413 74.152 8.933C73.684 8.447 73.099 8.204 72.397 8.204C71.695 8.204 71.107 8.447 70.633 8.933C70.165 9.419 69.931 10.034 69.931 10.778ZM77.5141 14H76.6861V7.556H77.6941L80.8261 12.569H80.8621L80.8261 11.327V7.556H81.6541V14H80.7901L77.5141 8.744H77.4781L77.5141 9.986V14Z" fill="white"/>
<path d="M68.14 21.75C65.79 21.75 63.87 23.54 63.87 26C63.87 28.46 65.79 30.25 68.14 30.25C70.49 30.25 72.4101 28.45 72.4101 26C72.4101 23.55 70.49 21.75 68.14 21.75ZM68.14 28.58C66.85 28.58 65.74 27.52 65.74 26C65.74 24.48 66.85 23.42 68.14 23.42C69.43 23.42 70.5401 24.47 70.5401 26C70.5401 27.53 69.43 28.58 68.14 28.58ZM58.8301 21.75C56.4801 21.75 54.5601 23.54 54.5601 26C54.5601 28.46 56.4801 30.25 58.8301 30.25C61.1801 30.25 63.1 28.45 63.1 26C63.1 23.55 61.1801 21.75 58.8301 21.75ZM58.8301 28.58C57.5401 28.58 56.43 27.52 56.43 26C56.43 24.48 57.5401 23.42 58.8301 23.42C60.1201 23.42 61.23 24.47 61.23 26C61.23 27.53 60.1201 28.58 58.8301 28.58ZM47.75 23.05V24.85H52.07C51.94 25.86 51.6 26.61 51.09 27.12C50.46 27.75 49.48 28.44 47.76 28.44C45.1 28.44 43.0201 26.3 43.0201 23.64C43.0201 20.98 45.1 18.84 47.76 18.84C49.19 18.84 50.24 19.4 51.01 20.13L52.28 18.86C51.2 17.83 49.77 17.04 47.75 17.04C44.11 17.04 41.05 20 41.05 23.65C41.05 27.3 44.11 30.26 47.75 30.26C49.72 30.26 51.2001 29.62 52.3601 28.41C53.5501 27.22 53.92 25.54 53.92 24.19C53.92 23.77 53.89 23.38 53.82 23.06H47.75V23.05ZM93.06 24.45C92.71 23.5 91.63 21.74 89.42 21.74C87.21 21.74 85.4101 23.46 85.4101 25.99C85.4101 28.37 87.21 30.24 89.63 30.24C91.58 30.24 92.71 29.05 93.17 28.36L91.7201 27.39C91.2401 28.1 90.58 28.57 89.63 28.57C88.68 28.57 88 28.14 87.57 27.28L93.2601 24.93L93.07 24.45H93.06ZM87.2601 25.87C87.2101 24.23 88.5301 23.39 89.4801 23.39C90.2201 23.39 90.85 23.76 91.06 24.29L87.2601 25.87ZM82.64 29.99H84.5101V17.49H82.64V29.99ZM79.5801 22.69H79.52C79.1 22.19 78.3 21.74 77.28 21.74C75.15 21.74 73.2 23.61 73.2 26.01C73.2 28.41 75.15 30.25 77.28 30.25C78.29 30.25 79.1 29.8 79.52 29.28H79.5801V29.89C79.5801 31.52 78.71 32.39 77.31 32.39C76.17 32.39 75.46 31.57 75.17 30.88L73.5401 31.56C74.0101 32.69 75.25 34.07 77.31 34.07C79.5 34.07 81.35 32.78 81.35 29.64V22H79.5801V22.69V22.69ZM77.4401 28.57C76.1501 28.57 75.07 27.49 75.07 26.01C75.07 24.53 76.1501 23.42 77.4401 23.42C78.7301 23.42 79.71 24.52 79.71 26.01C79.71 27.5 78.7101 28.57 77.4401 28.57ZM101.82 17.49H97.35V29.99H99.2201V25.25H101.83C103.9 25.25 105.93 23.75 105.93 21.37C105.93 18.99 103.9 17.49 101.83 17.49H101.82ZM101.87 23.52H99.2201V19.23H101.87C103.27 19.23 104.06 20.39 104.06 21.37C104.06 22.35 103.27 23.51 101.87 23.51V23.52ZM113.4 21.72C112.05 21.72 110.65 22.32 110.07 23.63L111.73 24.32C112.08 23.63 112.74 23.4 113.43 23.4C114.39 23.4 115.38 23.98 115.39 25.01V25.14C115.05 24.95 114.33 24.66 113.44 24.66C111.65 24.66 109.84 25.64 109.84 27.47C109.84 29.14 111.3 30.22 112.94 30.22C114.19 30.22 114.89 29.66 115.32 29H115.38V29.96H117.18V25.17C117.18 22.95 115.52 21.71 113.38 21.71L113.4 21.72ZM113.17 28.57C112.56 28.57 111.71 28.26 111.71 27.51C111.71 26.55 112.77 26.18 113.69 26.18C114.51 26.18 114.9 26.36 115.39 26.6C115.25 27.76 114.25 28.58 113.17 28.58V28.57ZM123.75 21.99L121.61 27.41H121.55L119.33 21.99H117.32L120.65 29.57L118.75 33.78H120.7L125.83 21.99H123.76H123.75ZM106.94 29.99H108.81V17.49H106.94V29.99Z" fill="white"/>
<path d="M20.7199 19.42L10.0699 30.72C10.3999 31.95 11.5199 32.85 12.8499 32.85C13.3799 32.85 13.8799 32.71 14.3099 32.45L14.3399 32.43L26.3199 25.52L20.7099 19.41L20.7199 19.42Z" fill="#EA4335"/>
<path d="M31.49 17.5H31.48L26.31 14.49L20.48 19.68L26.33 25.53L31.48 22.56C32.38 22.07 32.99 21.12 32.99 20.03C32.99 18.94 32.39 17.99 31.49 17.51V17.5Z" fill="#FBBC04"/>
<path d="M10.07 9.28003C10.01 9.52003 9.96997 9.76003 9.96997 10.02V29.98C9.96997 30.24 9.99997 30.48 10.07 30.72L21.08 19.71L10.07 9.28003Z" fill="#4285F4"/>
<path d="M20.7999 20L26.3099 14.49L14.3399 7.55001C13.9099 7.29001 13.3999 7.14001 12.8499 7.14001C11.5199 7.14001 10.3999 8.05002 10.0699 9.27002L20.7999 19.99V20Z" fill="#34A853"/>
</svg>
