<svg width="135" height="40" viewBox="0 0 135 40" fill="none" xmlns="http://www.w3.org/2000/svg">
<path d="M130 0H5C2.23858 0 0 2.23858 0 5V35C0 37.7614 2.23858 40 5 40H130C132.761 40 135 37.7614 135 35V5C135 2.23858 132.761 0 130 0Z" fill="black"/>
<path d="M130 0.8C132.32 0.8 134.2 2.68 134.2 5V35C134.2 37.32 132.32 39.2 130 39.2H5C2.68 39.2 0.8 37.32 0.8 35V5C0.8 2.68 2.68 0.8 5 0.8H130ZM130 0H5C2.25 0 0 2.25 0 5V35C0 37.75 2.25 40 5 40H130C132.75 40 135 37.75 135 35V5C135 2.25 132.75 0 130 0Z" fill="#A6A6A6"/>
<path d="M64.72 12.79C62.66 12.79 60.99 14.35 60.99 16.51C60.99 18.67 62.67 20.23 64.72 20.23C66.77 20.23 68.45 18.65 68.45 16.51C68.45 14.37 66.77 12.79 64.72 12.79ZM64.72 18.76C63.59 18.76 62.62 17.83 62.62 16.51C62.62 15.19 63.59 14.26 64.72 14.26C65.85 14.26 66.82 15.18 66.82 16.51C66.82 17.84 65.85 18.76 64.72 18.76ZM56.58 12.79C54.52 12.79 52.85 14.35 52.85 16.51C52.85 18.67 54.53 20.23 56.58 20.23C58.63 20.23 60.31 18.65 60.31 16.51C60.31 14.37 58.63 12.79 56.58 12.79ZM56.58 18.76C55.45 18.76 54.48 17.83 54.48 16.51C54.48 15.19 55.45 14.26 56.58 14.26C57.71 14.26 58.68 15.18 58.68 16.51C58.68 17.84 57.71 18.76 56.58 18.76ZM46.9 13.93V15.51H50.67C50.56 16.4 50.26 17.04 49.81 17.5C49.26 18.05 48.4 18.65 46.9 18.65C44.58 18.65 42.76 16.78 42.76 14.45C42.76 12.12 44.58 10.25 46.9 10.25C48.15 10.25 49.07 10.74 49.74 11.38L50.85 10.27C49.91 9.36999 48.65 8.67999 46.89 8.67999C43.71 8.67999 41.03 11.27 41.03 14.45C41.03 17.63 43.71 20.22 46.89 20.22C48.61 20.22 49.9 19.66 50.92 18.6C51.96 17.56 52.29 16.09 52.29 14.91C52.29 14.54 52.26 14.21 52.21 13.92H46.9V13.93ZM86.5 15.16C86.19 14.33 85.25 12.79 83.32 12.79C81.39 12.79 79.81 14.3 79.81 16.51C79.81 18.59 81.39 20.23 83.5 20.23C85.2 20.23 86.19 19.19 86.6 18.58L85.33 17.74C84.91 18.36 84.33 18.77 83.5 18.77C82.67 18.77 82.08 18.39 81.7 17.64L86.67 15.58L86.5 15.16ZM81.43 16.4C81.39 14.96 82.54 14.23 83.37 14.23C84.02 14.23 84.57 14.55 84.75 15.02L81.43 16.4ZM77.39 20.01H79.02V9.07999H77.39V20.01ZM74.71 13.63H74.65C74.28 13.19 73.58 12.8 72.69 12.8C70.83 12.8 69.13 14.43 69.13 16.53C69.13 18.63 70.83 20.23 72.69 20.23C73.58 20.23 74.28 19.84 74.65 19.39H74.71V19.93C74.71 21.35 73.95 22.11 72.72 22.11C71.72 22.11 71.1 21.39 70.85 20.79L69.43 21.38C69.84 22.37 70.92 23.58 72.73 23.58C74.65 23.58 76.26 22.45 76.26 19.71V13.04H74.71V13.65V13.63ZM72.84 18.77C71.71 18.77 70.77 17.83 70.77 16.53C70.77 15.23 71.71 14.26 72.84 14.26C73.97 14.26 74.83 15.22 74.83 16.53C74.83 17.84 73.96 18.77 72.84 18.77ZM94.15 9.07999H90.24V20.01H91.87V15.87H94.15C95.96 15.87 97.73 14.56 97.73 12.48C97.73 10.4 95.95 9.08999 94.15 9.08999V9.07999ZM94.19 14.35H91.87V10.6H94.19C95.41 10.6 96.1 11.61 96.1 12.47C96.1 13.33 95.41 14.34 94.19 14.34V14.35ZM104.27 12.78C103.09 12.78 101.87 13.3 101.36 14.45L102.81 15.05C103.12 14.45 103.7 14.25 104.3 14.25C105.14 14.25 106 14.76 106.02 15.66V15.77C105.72 15.6 105.09 15.35 104.32 15.35C102.76 15.35 101.17 16.21 101.17 17.81C101.17 19.27 102.45 20.21 103.88 20.21C104.98 20.21 105.58 19.72 105.96 19.14H106.02V19.98H107.59V15.79C107.59 13.85 106.14 12.77 104.27 12.77V12.78ZM104.07 18.77C103.54 18.77 102.79 18.5 102.79 17.84C102.79 17 103.72 16.67 104.52 16.67C105.24 16.67 105.57 16.82 106.01 17.04C105.88 18.05 105.01 18.77 104.07 18.77ZM113.32 13.02L111.45 17.76H111.39L109.45 13.02H107.69L110.6 19.64L108.94 23.32H110.64L115.12 13.02H113.31H113.32ZM98.63 20.01H100.26V9.07999H98.63V20.01Z" fill="white"/>
<path d="M45.73 33L45.02 31.18H42.68L41.98 33H41.23L43.53 27.09H44.2L46.5 33H45.73ZM44.8 30.52L44.14 28.74L43.86 27.86C43.78 28.18 43.7 28.48 43.61 28.74L42.94 30.52H44.81H44.8Z" fill="white" stroke="white" stroke-width="0.2" stroke-miterlimit="10"/>
<path d="M51.32 28.84C51.32 29.44 51.11 29.9 50.7 30.22C50.29 30.54 49.71 30.7 48.96 30.7H48.28V32.99H47.54V27.1H49.1C50.57 27.1 51.31 27.68 51.31 28.83L51.32 28.84ZM48.29 30.07H48.88C49.47 30.07 49.89 29.98 50.15 29.79C50.41 29.6 50.54 29.3 50.54 28.88C50.54 28.5 50.42 28.22 50.17 28.03C49.92 27.84 49.54 27.75 49.03 27.75H48.28V30.08L48.29 30.07Z" fill="white" stroke="white" stroke-width="0.2" stroke-miterlimit="10"/>
<path d="M56.43 32.34H57.19V34.55H56.48V33H56.03L53.93 30.19L53.33 30.72V33H52.59V27.11H53.33V30.02L53.84 29.46L55.94 27.12H56.81C56 28.02 55.22 28.88 54.48 29.69L56.44 32.35L56.43 32.34Z" fill="white" stroke="white" stroke-width="0.2" stroke-miterlimit="10"/>
<path d="M62.1299 31.28C62.1299 31.84 61.9499 32.26 61.5999 32.56C61.2499 32.86 60.7299 33.01 60.0399 33.01H58.2999V27.12H59.0399V29.61H59.9499C60.6599 29.61 61.1999 29.75 61.5699 30.03C61.9399 30.31 62.1299 30.73 62.1299 31.28ZM59.0399 32.38H59.9699C60.4499 32.38 60.7999 32.29 61.0199 32.11C61.2399 31.93 61.3599 31.65 61.3599 31.29C61.3599 30.93 61.2399 30.67 61.0099 30.51C60.7799 30.35 60.3999 30.27 59.8699 30.27H59.0399V32.39V32.38ZM63.7799 33.01H63.0299V27.12H63.7799V33.01Z" fill="white" stroke="white" stroke-width="0.2" stroke-miterlimit="10"/>
<path d="M69.87 33H69.13V27.76H67.27L67.15 28.72C66.98 30.04 66.83 30.99 66.71 31.56C66.58 32.13 66.42 32.53 66.22 32.75C66.02 32.97 65.74 33.09 65.39 33.09C65.19 33.09 65.01 33.06 64.85 32.99V32.37C64.99 32.44 65.14 32.47 65.31 32.47C65.52 32.47 65.69 32.34 65.82 32.07C65.94 31.8 66.08 31.2 66.23 30.26C66.38 29.32 66.52 28.27 66.67 27.11H69.89V33H69.87Z" fill="white" stroke="white" stroke-width="0.2" stroke-miterlimit="10"/>
<path d="M75.36 31.28C75.36 31.84 75.18 32.26 74.83 32.56C74.48 32.86 73.96 33.01 73.27 33.01H71.53V27.12H72.27V29.61H73.18C73.89 29.61 74.43 29.75 74.8 30.03C75.17 30.31 75.36 30.73 75.36 31.28ZM72.27 32.38H73.2C73.68 32.38 74.03 32.29 74.25 32.11C74.47 31.93 74.58 31.65 74.58 31.29C74.58 30.93 74.46 30.67 74.23 30.51C74 30.35 73.62 30.27 73.09 30.27H72.26V32.39L72.27 32.38ZM77.01 33.01H76.26V27.12H77.01V33.01Z" fill="white" stroke="white" stroke-width="0.2" stroke-miterlimit="10"/>
<path d="M82.33 29.97L80.05 27.11H80.87L83.12 29.96V27.11H83.83V29.96L86.08 27.11H86.9L84.62 29.96L86.98 33H86.13L83.83 30.02V33H83.12V30.02L80.81 33H79.96L82.33 29.97Z" fill="white" stroke="white" stroke-width="0.2" stroke-miterlimit="10"/>
<path d="M89.91 30.01L91.45 27.11H92.25L90.29 30.72V33H89.54V30.75L87.58 27.11H88.39L89.92 30.01H89.91Z" fill="white" stroke="white" stroke-width="0.2" stroke-miterlimit="10"/>
<path d="M97.58 33H96.69L94.03 30.02V33H93.29V27.11H94.03V29.96L96.63 27.11H97.47L94.91 29.97L97.58 33Z" fill="white" stroke="white" stroke-width="0.2" stroke-miterlimit="10"/>
<path d="M100.78 33H100.03V27.76H98.1899V27.11H102.61V27.76H100.78V33Z" fill="white" stroke="white" stroke-width="0.2" stroke-miterlimit="10"/>
<path d="M107 33H103.71V27.11H107V27.76H104.45V29.6H106.85V30.24H104.45V32.34H107V32.99V33Z" fill="white" stroke="white" stroke-width="0.2" stroke-miterlimit="10"/>
<path d="M112.82 32.34H113.53V34.55H112.82V33H112.09V30.25H109.06V33H108.32V27.11H109.06V29.6H112.09V27.11H112.82V32.34Z" fill="white" stroke="white" stroke-width="0.2" stroke-miterlimit="10"/>
<path d="M116.56 33H114.43V32.57L115.12 32.41V27.7L114.43 27.53V27.1H116.56V27.53L115.87 27.7V32.41L116.56 32.57V33Z" fill="white" stroke="white" stroke-width="0.2" stroke-miterlimit="10"/>
<path d="M121.5 28.49C121.5 28.87 121.38 29.18 121.13 29.43C120.88 29.67 120.54 29.83 120.1 29.9V29.93C120.6 30 120.98 30.15 121.23 30.39C121.49 30.63 121.61 30.95 121.61 31.34C121.61 31.89 121.4 32.32 120.99 32.63C120.57 32.94 119.99 33.09 119.24 33.09C118.53 33.09 117.96 32.98 117.52 32.77V32.09C117.79 32.22 118.07 32.31 118.38 32.38C118.68 32.45 118.97 32.48 119.23 32.48C119.76 32.48 120.16 32.38 120.43 32.18C120.7 31.98 120.84 31.7 120.84 31.33C120.84 30.96 120.69 30.71 120.38 30.53C120.08 30.35 119.62 30.26 119.02 30.26H118.18V29.64H118.98C119.56 29.64 120 29.54 120.29 29.35C120.58 29.15 120.72 28.89 120.72 28.56C120.72 28.28 120.61 28.05 120.4 27.89C120.19 27.72 119.9 27.64 119.54 27.64C119.23 27.64 118.96 27.68 118.71 27.75C118.46 27.82 118.19 27.95 117.9 28.14L117.54 27.64C118.11 27.23 118.77 27.03 119.54 27.03C120.14 27.03 120.62 27.16 120.97 27.43C121.32 27.7 121.49 28.05 121.49 28.5L121.5 28.49Z" fill="white" stroke="white" stroke-width="0.2" stroke-miterlimit="10"/>
<path d="M20.76 19.42L10.11 30.72C10.44 31.95 11.56 32.85 12.89 32.85C13.42 32.85 13.92 32.71 14.35 32.45L14.38 32.43L26.36 25.52L20.75 19.41L20.76 19.42Z" fill="#EA4335"/>
<path d="M31.53 17.5H31.52L26.35 14.49L20.52 19.68L26.37 25.53L31.52 22.56C32.42 22.07 33.03 21.12 33.03 20.03C33.03 18.94 32.43 17.99 31.53 17.51V17.5Z" fill="#FBBC04"/>
<path d="M10.11 9.28003C10.05 9.52003 10.01 9.76003 10.01 10.02V29.99C10.01 30.25 10.04 30.49 10.11 30.73L21.12 19.72L10.11 9.28003Z" fill="#4285F4"/>
<path d="M20.83 20L26.34 14.49L14.37 7.55001C13.94 7.29001 13.43 7.14001 12.88 7.14001C11.55 7.14001 10.43 8.05002 10.1 9.27002L20.83 19.99V20Z" fill="#34A853"/>
</svg>
