<svg width="114" height="38" viewBox="0 0 114 38" fill="none" xmlns="http://www.w3.org/2000/svg">
<g clip-path="url(#clip0)">
<path d="M104.922 1.42968e-06H9.08337C8.73403 1.42968e-06 8.38888 1.42974e-06 8.04046 0.00190143C7.7488 0.00380143 7.45947 0.00932093 7.16501 0.0139664C6.52531 0.0214731 5.88711 0.0775939 5.25596 0.181841C4.6257 0.288357 4.01518 0.489171 3.44505 0.777491C2.87562 1.06825 2.35532 1.44606 1.90302 1.89722C1.44834 2.34711 1.06933 2.86712 0.780568 3.43725C0.491005 4.00626 0.290221 4.61599 0.185151 5.24541C0.0790818 5.87403 0.0220051 6.5099 0.0144329 7.14731C0.00559216 7.43858 0.00465854 7.73082 0 8.02212V29.9807C0.00465854 30.2756 0.00559216 30.5614 0.0144329 30.8565C0.0220074 31.4939 0.0790841 32.1297 0.185151 32.7583C0.289931 33.3881 0.490727 33.9981 0.780568 34.5674C1.0692 35.1357 1.44826 35.6536 1.90302 36.1009C2.35361 36.5541 2.87425 36.9322 3.44505 37.2207C4.01517 37.5098 4.62563 37.7118 5.25596 37.82C5.88721 37.9234 6.52535 37.9795 7.16501 37.9879C7.45947 37.9944 7.7488 37.9981 8.04046 37.9981C8.38887 38 8.73405 38 9.08337 38H104.922C105.264 38 105.612 38 105.954 37.9981C106.245 37.9981 106.542 37.9944 106.833 37.9879C107.471 37.98 108.108 37.9238 108.738 37.82C109.37 37.7111 109.983 37.5091 110.556 37.2207C111.126 36.932 111.646 36.554 112.097 36.1009C112.55 35.6518 112.93 35.1343 113.222 34.5674C113.51 33.9977 113.709 33.3877 113.812 32.7583C113.918 32.1296 113.977 31.4939 113.989 30.8565C113.993 30.5614 113.993 30.2756 113.993 29.9807C114 29.6355 114 29.2923 114 28.9416V9.05932C114 8.71142 114 8.36631 113.993 8.02212C113.993 7.73082 113.993 7.43858 113.989 7.14727C113.977 6.5098 113.918 5.87408 113.812 5.24537C113.709 4.61632 113.51 4.00663 113.222 3.43722C112.634 2.29444 111.702 1.36423 110.556 0.777405C109.983 0.48979 109.37 0.28903 108.738 0.181755C108.108 0.0770491 107.471 0.0209088 106.833 0.0138334C106.542 0.00919743 106.245 0.00363043 105.954 0.00177793C105.612 -0.00012207 105.264 -0.00012207 104.922 -0.00012207V1.42968e-06Z" fill="#A6A6A6"/>
<path d="M8.04545 37.1692C7.7552 37.1692 7.47195 37.1655 7.18397 37.159C6.58739 37.1513 5.99221 37.0995 5.4033 37.0041C4.85417 36.9098 4.32222 36.7343 3.82498 36.4836C3.3323 36.2349 2.88293 35.9088 2.4941 35.5178C2.09964 35.1314 1.77123 34.6833 1.5219 34.1911C1.26981 33.6958 1.09535 33.1648 1.0046 32.6168C0.906591 32.0279 0.853566 31.4324 0.845978 30.8355C0.839938 30.6352 0.832031 29.9681 0.832031 29.9681V8.02254C0.832031 8.02254 0.840453 7.3657 0.846026 7.17273C0.853291 6.57677 0.906008 5.98224 1.00372 5.39426C1.09464 4.8447 1.26924 4.31223 1.52146 3.81526C1.76988 3.32346 2.09646 2.87498 2.48855 2.48721C2.88019 2.09576 3.33099 1.76799 3.82451 1.51586C4.32061 1.2659 4.85156 1.09171 5.39957 0.999122C5.99042 0.902759 6.58766 0.850661 7.18631 0.843265L8.04592 0.831665H105.95L106.82 0.84373C107.413 0.850759 108.005 0.902393 108.59 0.998191C109.144 1.09194 109.68 1.26735 110.182 1.51865C111.171 2.02675 111.975 2.83062 112.483 3.81758C112.731 4.31111 112.903 4.83925 112.993 5.38406C113.092 5.97686 113.147 6.57607 113.158 7.17691C113.161 7.44595 113.161 7.73494 113.161 8.02254C113.169 8.37879 113.169 8.71787 113.169 9.05974V28.942C113.169 29.2871 113.169 29.6239 113.161 29.9634C113.161 30.2724 113.161 30.5554 113.157 30.8466C113.146 31.4368 113.092 32.0253 112.995 32.6075C112.906 33.1595 112.732 33.6946 112.48 34.194C112.229 34.6808 111.903 35.125 111.513 35.5104C111.123 35.9035 110.673 36.2315 110.179 36.4818C109.679 36.7344 109.143 36.9105 108.59 37.0041C108.002 37.1 107.406 37.1518 106.81 37.159C106.531 37.1655 106.238 37.1692 105.955 37.1692L104.922 37.1711L8.04545 37.1692Z" fill="black"/>
<path d="M23.5964 19.2856C23.6067 18.4927 23.8179 17.7152 24.2104 17.0255C24.6029 16.3359 25.164 15.7564 25.8414 15.3411C25.4111 14.7282 24.8433 14.2238 24.1833 13.868C23.5233 13.5122 22.7891 13.3147 22.0392 13.2913C20.4394 13.1239 18.8885 14.2459 18.0733 14.2459C17.2424 14.2459 15.9872 13.308 14.6356 13.3357C13.7614 13.3638 12.9094 13.6174 12.1626 14.0715C11.4158 14.5257 10.7998 15.165 10.3744 15.9272C8.53198 19.1082 9.90628 23.7832 11.6712 26.3544C12.5542 27.6135 13.5862 29.0199 14.9366 28.9701C16.258 28.9154 16.7515 28.1298 18.3466 28.1298C19.9268 28.1298 20.3898 28.9701 21.7676 28.9384C23.1855 28.9154 24.0789 27.6737 24.9309 26.4027C25.5654 25.5055 26.0536 24.514 26.3775 23.4648C25.5537 23.1174 24.8507 22.5358 24.3562 21.7926C23.8616 21.0494 23.5974 20.1775 23.5964 19.2856Z" fill="white"/>
<path d="M20.9943 11.6004C21.7674 10.6749 22.1483 9.48532 22.056 8.2843C20.8749 8.40801 19.7838 8.97094 19.0003 9.86093C18.6172 10.2957 18.3237 10.8015 18.1368 11.3495C17.9498 11.8974 17.873 12.4767 17.9107 13.0543C18.5015 13.0603 19.0859 12.9326 19.6201 12.6808C20.1542 12.429 20.6241 12.0596 20.9943 11.6004Z" fill="white"/>
<path d="M40.3001 25.7832H35.7908L34.7078 28.9718H32.7979L37.069 17.1747H39.0534L43.3246 28.9718H41.3821L40.3001 25.7832ZM36.2578 24.3118H39.8322L38.0701 19.1369H38.0208L36.2578 24.3118Z" fill="white"/>
<path d="M52.549 24.6712C52.549 27.3441 51.1144 29.0613 48.9495 29.0613C48.4011 29.0899 47.8557 28.9639 47.3758 28.6978C46.8958 28.4317 46.5007 28.0361 46.2357 27.5565H46.1948V31.8166H44.4243V20.3703H46.138V21.8008H46.1706C46.4478 21.3235 46.8495 20.93 47.3331 20.6623C47.8167 20.3945 48.3641 20.2625 48.917 20.2803C51.106 20.2803 52.549 22.0059 52.549 24.6712ZM50.7292 24.6712C50.7292 22.9299 49.8268 21.7851 48.4499 21.7851C47.0972 21.7851 46.1873 22.954 46.1873 24.6712C46.1873 26.4043 47.0972 27.5649 48.4499 27.5649C49.8268 27.5649 50.7292 26.4284 50.7292 24.6712Z" fill="white"/>
<path d="M62.0417 24.6712C62.0417 27.344 60.6071 29.0613 58.4422 29.0613C57.8938 29.0899 57.3484 28.9639 56.8684 28.6978C56.3885 28.4316 55.9934 28.0361 55.7284 27.5565H55.6874V31.8166H53.917V20.3703H55.6307V21.8008H55.6632C55.9404 21.3235 56.3422 20.93 56.8258 20.6623C57.3094 20.3945 57.8567 20.2625 58.4096 20.2803C60.5987 20.2803 62.0417 22.0059 62.0417 24.6712ZM60.2219 24.6712C60.2219 22.9299 59.3195 21.7851 57.9426 21.7851C56.5899 21.7851 55.68 22.954 55.68 24.6712C55.68 26.4042 56.5899 27.5648 57.9426 27.5648C59.3195 27.5648 60.2219 26.4284 60.2219 24.6712H60.2219Z" fill="white"/>
<path d="M68.3162 25.6843C68.4474 26.8541 69.5871 27.6223 71.1445 27.6223C72.6367 27.6223 73.7103 26.8541 73.7103 25.7992C73.7103 24.8836 73.0628 24.3353 71.5296 23.9596L69.9964 23.5912C67.8241 23.068 66.8156 22.0549 66.8156 20.411C66.8156 18.3755 68.5944 16.9774 71.1203 16.9774C73.6201 16.9774 75.3338 18.3755 75.3915 20.411H73.6043C73.4973 19.2337 72.5213 18.523 71.0951 18.523C69.6689 18.523 68.693 19.242 68.693 20.2885C68.693 21.1225 69.3163 21.6133 70.8412 21.989L72.1446 22.3082C74.5718 22.8806 75.5803 23.8529 75.5803 25.5784C75.5803 27.7855 73.8173 29.1678 71.0133 29.1678C68.3897 29.1678 66.6183 27.818 66.5039 25.6842L68.3162 25.6843Z" fill="white"/>
<path d="M79.4011 18.3347V20.3702H81.0413V21.7683H79.4011V26.5099C79.4011 27.2465 79.7295 27.5898 80.4505 27.5898C80.6452 27.5864 80.8396 27.5728 81.0329 27.5489V28.9387C80.7087 28.9991 80.3792 29.0264 80.0495 29.0203C78.3033 29.0203 77.6223 28.3663 77.6223 26.6982V21.7683H76.3682V20.3702H77.6222V18.3347H79.4011Z" fill="white"/>
<path d="M81.9912 24.6711C81.9912 21.9649 83.5895 20.2644 86.0819 20.2644C88.5827 20.2644 90.1735 21.9649 90.1735 24.6711C90.1735 27.3848 88.591 29.0779 86.0819 29.0779C83.5737 29.0779 81.9912 27.3848 81.9912 24.6711ZM88.3696 24.6711C88.3696 22.8147 87.5165 21.7191 86.0819 21.7191C84.6473 21.7191 83.7951 22.8231 83.7951 24.6711C83.7951 26.535 84.6473 27.6223 86.0819 27.6223C87.5165 27.6223 88.3696 26.535 88.3696 24.6711H88.3696Z" fill="white"/>
<path d="M91.6333 20.3702H93.3219V21.8341H93.3628C93.4771 21.3769 93.7457 20.9728 94.1235 20.6899C94.5013 20.4069 94.9653 20.2622 95.4375 20.2802C95.6415 20.2795 95.845 20.3016 96.0441 20.3461V21.9974C95.7865 21.9189 95.5178 21.8829 95.2486 21.8907C94.9914 21.8803 94.735 21.9256 94.497 22.0233C94.259 22.121 94.045 22.269 93.8697 22.457C93.6944 22.645 93.562 22.8686 93.4816 23.1124C93.4012 23.3562 93.3746 23.6145 93.4037 23.8696V28.9712H91.6333L91.6333 20.3702Z" fill="white"/>
<path d="M104.207 26.445C103.969 28.0063 102.444 29.0779 100.493 29.0779C97.9837 29.0779 96.4263 27.4015 96.4263 24.712C96.4263 22.0141 97.992 20.2644 100.418 20.2644C102.805 20.2644 104.305 21.8991 104.305 24.5069V25.1118H98.2135V25.2185C98.1853 25.535 98.2251 25.8539 98.33 26.154C98.435 26.454 98.6028 26.7284 98.8222 26.9588C99.0417 27.1892 99.3078 27.3704 99.6029 27.4904C99.898 27.6104 100.215 27.6664 100.534 27.6547C100.952 27.6938 101.372 27.5972 101.731 27.3792C102.09 27.1613 102.368 26.8336 102.526 26.445L104.207 26.445ZM98.2218 23.8779H102.534C102.55 23.5933 102.507 23.3085 102.407 23.0413C102.307 22.7742 102.153 22.5305 101.954 22.3255C101.756 22.1205 101.517 21.9587 101.252 21.8502C100.988 21.7417 100.704 21.6888 100.418 21.695C100.13 21.6933 99.8443 21.7485 99.5775 21.8575C99.3107 21.9665 99.0682 22.1271 98.864 22.3301C98.6598 22.533 98.4979 22.7743 98.3877 23.04C98.2774 23.3056 98.2211 23.5904 98.2218 23.8779V23.8779Z" fill="white"/>
<path d="M34.9992 10.6908H35.7592C35.8901 10.707 36.0229 10.6961 36.1493 10.6586C36.2757 10.6211 36.3929 10.5579 36.4936 10.4731C36.5943 10.3882 36.6763 10.2834 36.7343 10.1653C36.7924 10.0473 36.8253 9.91852 36.831 9.78716C36.831 9.26438 36.4365 8.92669 35.7676 8.92669C35.6336 8.90801 35.4971 8.9163 35.3663 8.95108C35.2356 8.98586 35.1131 9.04641 35.0062 9.12917C34.8992 9.21193 34.81 9.31522 34.7438 9.43293C34.6775 9.55064 34.6356 9.6804 34.6205 9.81453H33.786C33.8003 9.57104 33.8648 9.33311 33.9754 9.11555C34.086 8.89799 34.2403 8.70546 34.4287 8.54994C34.6171 8.39442 34.8356 8.27925 35.0706 8.21159C35.3056 8.14393 35.552 8.12523 35.7946 8.15666C36.9138 8.15666 37.7018 8.78149 37.7018 9.68093C37.7045 9.98225 37.6034 10.2753 37.4154 10.5113C37.2275 10.7473 36.9641 10.9118 36.6691 10.9774V11.0442C37.0188 11.0597 37.348 11.2126 37.5849 11.4694C37.8219 11.7263 37.9472 12.0662 37.9335 12.415C37.9076 12.6657 37.8318 12.9087 37.7105 13.1298C37.5892 13.3509 37.4249 13.5456 37.2272 13.7026C37.0294 13.8595 36.8023 13.9756 36.559 14.0438C36.3157 14.1121 36.0612 14.1313 35.8104 14.1002C35.5591 14.1344 35.3034 14.1177 35.0587 14.0513C34.814 13.9848 34.5852 13.8699 34.3859 13.7134C34.1867 13.5568 34.0211 13.3619 33.899 13.1402C33.7769 12.9185 33.7008 12.6745 33.6753 12.4229H34.5228C34.574 12.9651 35.0736 13.3149 35.8104 13.3149C36.5472 13.3149 37.0282 12.922 37.0282 12.3682C37.0282 11.8064 36.5752 11.4604 35.7834 11.4604H34.9992V10.6908Z" fill="white"/>
<path d="M38.896 12.7532C38.896 11.9832 39.4719 11.5393 40.4915 11.4762L41.6535 11.4094V11.0402C41.6535 10.5884 41.3549 10.3332 40.7753 10.3332C40.3027 10.3332 39.9761 10.5063 39.8812 10.8087H39.0616C39.1481 10.0739 39.8422 9.60266 40.8153 9.60266C41.8908 9.60266 42.4973 10.1366 42.4973 11.0402V13.963H41.6814V13.3618H41.6144C41.4785 13.5775 41.2876 13.7533 41.0612 13.8713C40.8348 13.9893 40.5811 14.0453 40.3259 14.0335C40.1458 14.0522 39.9638 14.033 39.7916 13.9772C39.6194 13.9215 39.4608 13.8304 39.3261 13.7097C39.1914 13.5891 39.0835 13.4417 39.0094 13.2769C38.9353 13.1122 38.8967 12.9338 38.896 12.7532ZM41.6535 12.3877V12.0301L40.6059 12.0969C40.0152 12.1363 39.7472 12.3367 39.7472 12.7138C39.7472 13.0988 40.0821 13.3229 40.5427 13.3229C40.6776 13.3365 40.8139 13.3229 40.9435 13.2829C41.0731 13.2429 41.1933 13.1774 41.2969 13.0901C41.4006 13.0029 41.4855 12.8957 41.5468 12.7751C41.6081 12.6544 41.6444 12.5227 41.6535 12.3877Z" fill="white"/>
<path d="M44.7446 10.3958V13.963H43.8979V9.68518H46.7225V10.3958L44.7446 10.3958Z" fill="white"/>
<path d="M51.8532 11.8222C51.8532 13.1813 51.1638 14.0335 50.0809 14.0335C49.8151 14.0516 49.5496 13.9936 49.3157 13.8663C49.0818 13.739 48.8893 13.5477 48.7608 13.3149H48.6938V15.3852H47.8472V9.68517H48.6621V10.3921H48.7254C48.8562 10.1512 49.0513 9.95112 49.289 9.81384C49.5268 9.67656 49.7979 9.60748 50.0725 9.61422C51.1638 9.61419 51.8532 10.4626 51.8532 11.8222ZM50.9824 11.8222C50.9824 10.9186 50.5535 10.3726 49.8362 10.3726C49.1236 10.3726 48.678 10.9302 48.678 11.8259C48.678 12.7175 49.1236 13.2755 49.8325 13.2755C50.5535 13.2755 50.9824 12.7295 50.9824 11.8222Z" fill="white"/>
<path d="M52.9807 15.4951V14.7682C53.0724 14.7799 53.1647 14.7851 53.257 14.784C53.4374 14.7973 53.6163 14.7438 53.7595 14.6336C53.9027 14.5234 54.0001 14.3644 54.0329 14.187L54.0962 13.9787L52.5435 9.68518H53.4654L54.5409 13.083H54.6079L55.6797 9.68518H56.5774L54.9782 14.1397C54.6116 15.1806 54.206 15.5146 53.3315 15.5146C53.2608 15.5146 53.0598 15.5067 52.9807 15.4951Z" fill="white"/>
<path d="M57.2368 12.749H58.0797C58.1625 13.1262 58.517 13.3228 59.0128 13.3228C59.5766 13.3228 59.9227 13.0751 59.9227 12.6901C59.9227 12.2778 59.612 12.0811 59.0128 12.0811H58.3709V11.4252H59.0017C59.5134 11.4252 59.7739 11.229 59.7739 10.8713C59.7739 10.5573 59.5217 10.3175 59.0017 10.3175C58.5281 10.3175 58.182 10.5179 58.1271 10.8556H57.3112C57.3722 10.4675 57.5835 10.1189 57.8996 9.88457C58.2158 9.65026 58.6115 9.54904 59.0017 9.60267C60.0213 9.60267 60.6046 10.0624 60.6046 10.7851C60.6094 10.9863 60.5447 11.1831 60.4215 11.3425C60.2982 11.5019 60.1238 11.6143 59.9274 11.6609V11.7276C60.1612 11.7577 60.3758 11.8723 60.5305 12.0498C60.6852 12.2272 60.7692 12.4551 60.7665 12.6902C60.7665 13.5034 60.0725 14.0414 59.0128 14.0414C58.076 14.0414 57.315 13.6132 57.2368 12.749Z" fill="white"/>
<path d="M61.9858 13.963V9.68518H62.825V12.6275H62.892L64.869 9.68519H65.7081V13.963H64.869V11.0049H64.8057L62.825 13.963L61.9858 13.963Z" fill="white"/>
<path d="M70.3315 10.3958H68.9806V13.9629H68.1331V10.3958H66.7822V9.68518H70.3315V10.3958Z" fill="white"/>
<path d="M74.8914 12.8079C74.776 13.1989 74.5266 13.537 74.1867 13.7632C73.8468 13.9894 73.438 14.0893 73.0317 14.0455C72.749 14.053 72.4682 13.999 72.2086 13.8873C71.949 13.7757 71.7168 13.609 71.5283 13.399C71.3398 13.1889 71.1993 12.9404 71.1167 12.6708C71.0341 12.4011 71.0114 12.1168 71.05 11.8375C71.0124 11.5574 71.0356 11.2724 71.118 11.002C71.2003 10.7316 71.34 10.4819 71.5276 10.27C71.7151 10.0581 71.9462 9.88884 72.205 9.77369C72.4639 9.65854 72.7445 9.6002 73.0279 9.60261C74.2216 9.60261 74.9426 10.4158 74.9426 11.7591V12.0537H71.9134V12.101C71.9 12.258 71.9197 12.4161 71.9712 12.5651C72.0227 12.7141 72.1049 12.8507 72.2124 12.9661C72.32 13.0815 72.4507 13.1732 72.5959 13.2353C72.7412 13.2973 72.8978 13.3284 73.0559 13.3265C73.2582 13.3506 73.4632 13.3142 73.6448 13.2219C73.8263 13.1295 73.9763 12.9854 74.0755 12.8079L74.8914 12.8079ZM71.9134 11.4293H74.0792C74.0899 11.2858 74.0704 11.1417 74.0219 11.0062C73.9734 10.8706 73.8971 10.7467 73.7977 10.6423C73.6984 10.538 73.5782 10.4555 73.445 10.4002C73.3118 10.3449 73.1685 10.318 73.0242 10.3212C72.8777 10.3192 72.7324 10.3465 72.5967 10.4015C72.4609 10.4565 72.3377 10.538 72.2341 10.6413C72.1306 10.7446 72.0488 10.8676 71.9938 11.0029C71.9387 11.1383 71.9113 11.2833 71.9134 11.4293H71.9134Z" fill="white"/>
<path d="M78.481 9.68518H80.4151C81.2543 9.68518 81.7465 10.1092 81.7465 10.7729C81.7478 10.9836 81.6765 11.1882 81.5446 11.3527C81.4126 11.5172 81.2281 11.6315 81.0217 11.6765V11.7433C81.2723 11.7591 81.5071 11.8703 81.6778 12.0538C81.8486 12.2373 81.9421 12.4792 81.939 12.7295C81.939 13.4759 81.3762 13.9629 80.4347 13.9629H78.481V9.68518ZM79.3201 10.3332V11.4409H80.1593C80.671 11.4409 80.9157 11.2447 80.9157 10.8829C80.9157 10.5494 80.7026 10.3332 80.2533 10.3332L79.3201 10.3332ZM79.3201 12.0616V13.315H80.324C80.8245 13.315 81.0925 13.0946 81.0925 12.6901C81.0925 12.262 80.7892 12.0616 80.2179 12.0616L79.3201 12.0616Z" fill="white"/>
</g>
<defs>
<clipPath id="clip0">
<rect width="114" height="38" fill="white"/>
</clipPath>
</defs>
</svg>
