<svg width="128" height="38" viewBox="0 0 128 38" fill="none" xmlns="http://www.w3.org/2000/svg">
<path d="M123.259 38H4.74074C2.08593 38 0 35.91 0 33.25V4.75C0 2.09 2.08593 0 4.74074 0H123.259C125.914 0 128 2.09 128 4.75V33.25C128 35.91 125.914 38 123.259 38Z" fill="black"/>
<path d="M123.259 0.76C125.44 0.76 127.241 2.565 127.241 4.75V33.25C127.241 35.435 125.44 37.24 123.259 37.24H4.74074C2.56 37.24 0.758519 35.435 0.758519 33.25V4.75C0.758519 2.565 2.56 0.76 4.74074 0.76H123.259ZM123.259 0H4.74074C2.08593 0 0 2 0 4.75V33.25C0 35.91 2.08593 38 4.74074 38H123.259C125.914 38 128 35.91 128 33.25V4.75C128 2 125.914 0 123.259 0Z" fill="#A6A6A6"/>
<path d="M43.749 14H42.2646L42.2744 13.2334H43.749C44.2568 13.2334 44.68 13.1276 45.0186 12.916C45.3571 12.7012 45.611 12.4017 45.7803 12.0176C45.9528 11.6302 46.0391 11.1777 46.0391 10.6602V10.2256C46.0391 9.81868 45.9902 9.45736 45.8926 9.1416C45.7949 8.82259 45.6517 8.55404 45.4629 8.33594C45.2741 8.11458 45.043 7.94694 44.7695 7.83301C44.4993 7.71908 44.1885 7.66211 43.8369 7.66211H42.2354V6.89062H43.8369C44.3024 6.89062 44.7272 6.96875 45.1113 7.125C45.4954 7.27799 45.8258 7.50098 46.1025 7.79395C46.3825 8.08366 46.5973 8.43522 46.7471 8.84863C46.8968 9.25879 46.9717 9.72103 46.9717 10.2354V10.6602C46.9717 11.1745 46.8968 11.6383 46.7471 12.0518C46.5973 12.4619 46.3809 12.8118 46.0977 13.1016C45.8177 13.3913 45.4792 13.6143 45.082 13.7705C44.6882 13.9235 44.2438 14 43.749 14ZM42.7676 6.89062V14H41.8252V6.89062H42.7676ZM48.0117 11.417V11.3047C48.0117 10.9238 48.0671 10.5706 48.1777 10.2451C48.2884 9.91634 48.4479 9.63151 48.6562 9.39062C48.8646 9.14648 49.1169 8.95768 49.4131 8.82422C49.7093 8.6875 50.0413 8.61914 50.4092 8.61914C50.7803 8.61914 51.1139 8.6875 51.4102 8.82422C51.7096 8.95768 51.9635 9.14648 52.1719 9.39062C52.3835 9.63151 52.5446 9.91634 52.6553 10.2451C52.766 10.5706 52.8213 10.9238 52.8213 11.3047V11.417C52.8213 11.7979 52.766 12.151 52.6553 12.4766C52.5446 12.8021 52.3835 13.0869 52.1719 13.3311C51.9635 13.5719 51.7113 13.7607 51.415 13.8975C51.1221 14.0309 50.79 14.0977 50.4189 14.0977C50.0479 14.0977 49.7142 14.0309 49.418 13.8975C49.1217 13.7607 48.8678 13.5719 48.6562 13.3311C48.4479 13.0869 48.2884 12.8021 48.1777 12.4766C48.0671 12.151 48.0117 11.7979 48.0117 11.417ZM48.915 11.3047V11.417C48.915 11.6807 48.946 11.9297 49.0078 12.1641C49.0697 12.3952 49.1624 12.6003 49.2861 12.7793C49.4131 12.9583 49.571 13.0999 49.7598 13.2041C49.9486 13.305 50.1683 13.3555 50.4189 13.3555C50.6663 13.3555 50.8828 13.305 51.0684 13.2041C51.2572 13.0999 51.4134 12.9583 51.5371 12.7793C51.6608 12.6003 51.7536 12.3952 51.8154 12.1641C51.8805 11.9297 51.9131 11.6807 51.9131 11.417V11.3047C51.9131 11.0443 51.8805 10.7985 51.8154 10.5674C51.7536 10.333 51.6592 10.1263 51.5322 9.94727C51.4085 9.76497 51.2523 9.62174 51.0635 9.51758C50.8779 9.41341 50.6598 9.36133 50.4092 9.36133C50.1618 9.36133 49.9437 9.41341 49.7549 9.51758C49.5693 9.62174 49.4131 9.76497 49.2861 9.94727C49.1624 10.1263 49.0697 10.333 49.0078 10.5674C48.946 10.7985 48.915 11.0443 48.915 11.3047ZM55.292 13.0625L56.6494 8.7168H57.2451L57.1279 9.58105L55.7461 14H55.165L55.292 13.0625ZM54.3789 8.7168L55.5361 13.1113L55.6191 14H55.0088L53.4756 8.7168H54.3789ZM58.5439 13.0771L59.6475 8.7168H60.5459L59.0127 14H58.4072L58.5439 13.0771ZM57.377 8.7168L58.7051 12.9893L58.8564 14H58.2803L56.8594 9.57129L56.7422 8.7168H57.377ZM62.377 9.84473V14H61.4736V8.7168H62.3281L62.377 9.84473ZM62.1621 11.1582L61.7861 11.1436C61.7894 10.7822 61.8431 10.4486 61.9473 10.1426C62.0514 9.83333 62.1979 9.56478 62.3867 9.33691C62.5755 9.10905 62.8001 8.93327 63.0605 8.80957C63.3242 8.68262 63.6156 8.61914 63.9346 8.61914C64.195 8.61914 64.4294 8.65495 64.6377 8.72656C64.846 8.79492 65.0234 8.9056 65.1699 9.05859C65.3197 9.21159 65.4336 9.41016 65.5117 9.6543C65.5898 9.89518 65.6289 10.1898 65.6289 10.5381V14H64.7207V10.5283C64.7207 10.2516 64.68 10.0303 64.5986 9.86426C64.5173 9.69499 64.3984 9.57292 64.2422 9.49805C64.0859 9.41992 63.8939 9.38086 63.666 9.38086C63.4414 9.38086 63.2363 9.42806 63.0508 9.52246C62.8685 9.61686 62.7106 9.74707 62.5771 9.91309C62.4469 10.0791 62.3444 10.2695 62.2695 10.4844C62.1979 10.696 62.1621 10.9206 62.1621 11.1582ZM67.9824 6.5V14H67.0742V6.5H67.9824ZM69.1934 11.417V11.3047C69.1934 10.9238 69.2487 10.5706 69.3594 10.2451C69.4701 9.91634 69.6296 9.63151 69.8379 9.39062C70.0462 9.14648 70.2985 8.95768 70.5947 8.82422C70.891 8.6875 71.223 8.61914 71.5908 8.61914C71.9619 8.61914 72.2956 8.6875 72.5918 8.82422C72.8913 8.95768 73.1452 9.14648 73.3535 9.39062C73.5651 9.63151 73.7262 9.91634 73.8369 10.2451C73.9476 10.5706 74.0029 10.9238 74.0029 11.3047V11.417C74.0029 11.7979 73.9476 12.151 73.8369 12.4766C73.7262 12.8021 73.5651 13.0869 73.3535 13.3311C73.1452 13.5719 72.8929 13.7607 72.5967 13.8975C72.3037 14.0309 71.9717 14.0977 71.6006 14.0977C71.2295 14.0977 70.8958 14.0309 70.5996 13.8975C70.3034 13.7607 70.0495 13.5719 69.8379 13.3311C69.6296 13.0869 69.4701 12.8021 69.3594 12.4766C69.2487 12.151 69.1934 11.7979 69.1934 11.417ZM70.0967 11.3047V11.417C70.0967 11.6807 70.1276 11.9297 70.1895 12.1641C70.2513 12.3952 70.3441 12.6003 70.4678 12.7793C70.5947 12.9583 70.7526 13.0999 70.9414 13.2041C71.1302 13.305 71.3499 13.3555 71.6006 13.3555C71.848 13.3555 72.0645 13.305 72.25 13.2041C72.4388 13.0999 72.5951 12.9583 72.7188 12.7793C72.8424 12.6003 72.9352 12.3952 72.9971 12.1641C73.0622 11.9297 73.0947 11.6807 73.0947 11.417V11.3047C73.0947 11.0443 73.0622 10.7985 72.9971 10.5674C72.9352 10.333 72.8408 10.1263 72.7139 9.94727C72.5902 9.76497 72.4339 9.62174 72.2451 9.51758C72.0596 9.41341 71.8415 9.36133 71.5908 9.36133C71.3434 9.36133 71.1253 9.41341 70.9365 9.51758C70.751 9.62174 70.5947 9.76497 70.4678 9.94727C70.3441 10.1263 70.2513 10.333 70.1895 10.5674C70.1276 10.7985 70.0967 11.0443 70.0967 11.3047ZM78.251 13.0967V10.377C78.251 10.1686 78.2087 9.98796 78.124 9.83496C78.0426 9.67871 77.9189 9.55827 77.7529 9.47363C77.5869 9.389 77.3818 9.34668 77.1377 9.34668C76.9098 9.34668 76.7096 9.38574 76.5371 9.46387C76.3678 9.54199 76.2344 9.64453 76.1367 9.77148C76.0423 9.89844 75.9951 10.0352 75.9951 10.1816H75.0918C75.0918 9.99284 75.1406 9.80566 75.2383 9.62012C75.3359 9.43457 75.4759 9.26693 75.6582 9.11719C75.8438 8.96419 76.0651 8.84375 76.3223 8.75586C76.5827 8.66471 76.8724 8.61914 77.1914 8.61914C77.5755 8.61914 77.9141 8.68424 78.207 8.81445C78.5033 8.94466 78.7344 9.1416 78.9004 9.40527C79.0697 9.66569 79.1543 9.99284 79.1543 10.3867V12.8477C79.1543 13.0234 79.1689 13.2106 79.1982 13.4092C79.2308 13.6077 79.278 13.7786 79.3398 13.9219V14H78.3975C78.3519 13.8958 78.3161 13.7575 78.29 13.585C78.264 13.4092 78.251 13.2464 78.251 13.0967ZM78.4072 10.7969L78.417 11.4316H77.5039C77.2467 11.4316 77.0173 11.4528 76.8154 11.4951C76.6136 11.5342 76.4443 11.5944 76.3076 11.6758C76.1709 11.7572 76.0667 11.8597 75.9951 11.9834C75.9235 12.1038 75.8877 12.2454 75.8877 12.4082C75.8877 12.5742 75.9251 12.7256 76 12.8623C76.0749 12.999 76.1872 13.1081 76.3369 13.1895C76.4899 13.2676 76.6771 13.3066 76.8984 13.3066C77.1751 13.3066 77.4193 13.248 77.6309 13.1309C77.8424 13.0137 78.0101 12.8704 78.1338 12.7012C78.2607 12.5319 78.3291 12.3675 78.3389 12.208L78.7246 12.6426C78.7018 12.7793 78.64 12.9307 78.5391 13.0967C78.4382 13.2627 78.3031 13.4222 78.1338 13.5752C77.9678 13.7249 77.7692 13.8503 77.5381 13.9512C77.3102 14.0488 77.0531 14.0977 76.7666 14.0977C76.4085 14.0977 76.0944 14.0277 75.8242 13.8877C75.5573 13.7477 75.349 13.5605 75.1992 13.3262C75.0527 13.0885 74.9795 12.8232 74.9795 12.5303C74.9795 12.2471 75.0348 11.998 75.1455 11.7832C75.2562 11.5651 75.4157 11.3844 75.624 11.2412C75.8324 11.0947 76.083 10.984 76.376 10.9092C76.6689 10.8343 76.9961 10.7969 77.3574 10.7969H78.4072ZM83.9053 12.9746V6.5H84.8135V14H83.9834L83.9053 12.9746ZM80.3506 11.417V11.3145C80.3506 10.9108 80.3994 10.5446 80.4971 10.2158C80.598 9.88379 80.7396 9.59896 80.9219 9.36133C81.1074 9.1237 81.3271 8.94141 81.5811 8.81445C81.8382 8.68424 82.1247 8.61914 82.4404 8.61914C82.7725 8.61914 83.0622 8.67773 83.3096 8.79492C83.5602 8.90885 83.7718 9.0765 83.9443 9.29785C84.1201 9.51595 84.2585 9.77962 84.3594 10.0889C84.4603 10.3981 84.5303 10.748 84.5693 11.1387V11.5879C84.5335 11.9753 84.4635 12.3236 84.3594 12.6328C84.2585 12.9421 84.1201 13.2057 83.9443 13.4238C83.7718 13.6419 83.5602 13.8096 83.3096 13.9268C83.0589 14.0407 82.766 14.0977 82.4307 14.0977C82.1214 14.0977 81.8382 14.0309 81.5811 13.8975C81.3271 13.764 81.1074 13.5768 80.9219 13.3359C80.7396 13.0951 80.598 12.8118 80.4971 12.4863C80.3994 12.1576 80.3506 11.8011 80.3506 11.417ZM81.2588 11.3145V11.417C81.2588 11.6807 81.2848 11.9281 81.3369 12.1592C81.3923 12.3903 81.4769 12.5938 81.5908 12.7695C81.7048 12.9453 81.8496 13.0837 82.0254 13.1846C82.2012 13.2822 82.4111 13.3311 82.6553 13.3311C82.9548 13.3311 83.2005 13.2676 83.3926 13.1406C83.5879 13.0137 83.7441 12.846 83.8613 12.6377C83.9785 12.4294 84.0697 12.2031 84.1348 11.959V10.7822C84.0957 10.6032 84.0387 10.4307 83.9639 10.2646C83.8923 10.0954 83.7979 9.94564 83.6807 9.81543C83.5667 9.68197 83.4251 9.57617 83.2559 9.49805C83.0898 9.41992 82.8929 9.38086 82.665 9.38086C82.4176 9.38086 82.2044 9.43294 82.0254 9.53711C81.8496 9.63802 81.7048 9.77799 81.5908 9.95703C81.4769 10.1328 81.3923 10.3379 81.3369 10.5723C81.2848 10.8034 81.2588 11.0508 81.2588 11.3145ZM88.4609 11.417V11.3047C88.4609 10.9238 88.5163 10.5706 88.627 10.2451C88.7376 9.91634 88.8971 9.63151 89.1055 9.39062C89.3138 9.14648 89.5661 8.95768 89.8623 8.82422C90.1585 8.6875 90.4906 8.61914 90.8584 8.61914C91.2295 8.61914 91.5632 8.6875 91.8594 8.82422C92.1589 8.95768 92.4128 9.14648 92.6211 9.39062C92.8327 9.63151 92.9938 9.91634 93.1045 10.2451C93.2152 10.5706 93.2705 10.9238 93.2705 11.3047V11.417C93.2705 11.7979 93.2152 12.151 93.1045 12.4766C92.9938 12.8021 92.8327 13.0869 92.6211 13.3311C92.4128 13.5719 92.1605 13.7607 91.8643 13.8975C91.5713 14.0309 91.2393 14.0977 90.8682 14.0977C90.4971 14.0977 90.1634 14.0309 89.8672 13.8975C89.571 13.7607 89.3171 13.5719 89.1055 13.3311C88.8971 13.0869 88.7376 12.8021 88.627 12.4766C88.5163 12.151 88.4609 11.7979 88.4609 11.417ZM89.3643 11.3047V11.417C89.3643 11.6807 89.3952 11.9297 89.457 12.1641C89.5189 12.3952 89.6117 12.6003 89.7354 12.7793C89.8623 12.9583 90.0202 13.0999 90.209 13.2041C90.3978 13.305 90.6175 13.3555 90.8682 13.3555C91.1156 13.3555 91.332 13.305 91.5176 13.2041C91.7064 13.0999 91.8626 12.9583 91.9863 12.7793C92.11 12.6003 92.2028 12.3952 92.2646 12.1641C92.3298 11.9297 92.3623 11.6807 92.3623 11.417V11.3047C92.3623 11.0443 92.3298 10.7985 92.2646 10.5674C92.2028 10.333 92.1084 10.1263 91.9814 9.94727C91.8577 9.76497 91.7015 9.62174 91.5127 9.51758C91.3271 9.41341 91.109 9.36133 90.8584 9.36133C90.611 9.36133 90.3929 9.41341 90.2041 9.51758C90.0186 9.62174 89.8623 9.76497 89.7354 9.94727C89.6117 10.1263 89.5189 10.333 89.457 10.5674C89.3952 10.7985 89.3643 11.0443 89.3643 11.3047ZM95.3066 9.84473V14H94.4033V8.7168H95.2578L95.3066 9.84473ZM95.0918 11.1582L94.7158 11.1436C94.7191 10.7822 94.7728 10.4486 94.877 10.1426C94.9811 9.83333 95.1276 9.56478 95.3164 9.33691C95.5052 9.10905 95.7298 8.93327 95.9902 8.80957C96.2539 8.68262 96.5452 8.61914 96.8643 8.61914C97.1247 8.61914 97.359 8.65495 97.5674 8.72656C97.7757 8.79492 97.9531 8.9056 98.0996 9.05859C98.2493 9.21159 98.3633 9.41016 98.4414 9.6543C98.5195 9.89518 98.5586 10.1898 98.5586 10.5381V14H97.6504V10.5283C97.6504 10.2516 97.6097 10.0303 97.5283 9.86426C97.4469 9.69499 97.3281 9.57292 97.1719 9.49805C97.0156 9.41992 96.8236 9.38086 96.5957 9.38086C96.3711 9.38086 96.166 9.42806 95.9805 9.52246C95.7982 9.61686 95.6403 9.74707 95.5068 9.91309C95.3766 10.0791 95.2741 10.2695 95.1992 10.4844C95.1276 10.696 95.0918 10.9206 95.0918 11.1582ZM104.623 8.7168V9.41016H101.767V8.7168H104.623ZM102.733 7.43262H103.637V12.6914C103.637 12.8704 103.664 13.0055 103.72 13.0967C103.775 13.1878 103.847 13.248 103.935 13.2773C104.022 13.3066 104.117 13.3213 104.218 13.3213C104.293 13.3213 104.371 13.3148 104.452 13.3018C104.537 13.2855 104.6 13.2725 104.643 13.2627L104.647 14C104.576 14.0228 104.481 14.0439 104.364 14.0635C104.25 14.0863 104.112 14.0977 103.949 14.0977C103.728 14.0977 103.524 14.0537 103.339 13.9658C103.153 13.8779 103.005 13.7314 102.895 13.5264C102.787 13.318 102.733 13.0381 102.733 12.6865V7.43262ZM106.586 6.5V14H105.683V6.5H106.586ZM106.371 11.1582L105.995 11.1436C105.998 10.7822 106.052 10.4486 106.156 10.1426C106.26 9.83333 106.407 9.56478 106.596 9.33691C106.785 9.10905 107.009 8.93327 107.27 8.80957C107.533 8.68262 107.825 8.61914 108.144 8.61914C108.404 8.61914 108.638 8.65495 108.847 8.72656C109.055 8.79492 109.232 8.9056 109.379 9.05859C109.529 9.21159 109.643 9.41016 109.721 9.6543C109.799 9.89518 109.838 10.1898 109.838 10.5381V14H108.93V10.5283C108.93 10.2516 108.889 10.0303 108.808 9.86426C108.726 9.69499 108.607 9.57292 108.451 9.49805C108.295 9.41992 108.103 9.38086 107.875 9.38086C107.65 9.38086 107.445 9.42806 107.26 9.52246C107.077 9.61686 106.92 9.74707 106.786 9.91309C106.656 10.0791 106.553 10.2695 106.479 10.4844C106.407 10.696 106.371 10.9206 106.371 11.1582ZM113.383 14.0977C113.015 14.0977 112.681 14.0358 112.382 13.9121C112.086 13.7852 111.83 13.6077 111.615 13.3799C111.404 13.152 111.241 12.8818 111.127 12.5693C111.013 12.2568 110.956 11.915 110.956 11.5439V11.3389C110.956 10.9092 111.02 10.5267 111.146 10.1914C111.273 9.85286 111.446 9.56641 111.664 9.33203C111.882 9.09766 112.13 8.92025 112.406 8.7998C112.683 8.67936 112.969 8.61914 113.266 8.61914C113.643 8.61914 113.969 8.68424 114.242 8.81445C114.519 8.94466 114.745 9.12695 114.921 9.36133C115.097 9.59245 115.227 9.86589 115.312 10.1816C115.396 10.4941 115.438 10.8359 115.438 11.207V11.6123H111.493V10.875H114.535V10.8066C114.522 10.5723 114.473 10.3444 114.389 10.123C114.307 9.90169 114.177 9.7194 113.998 9.57617C113.819 9.43294 113.575 9.36133 113.266 9.36133C113.061 9.36133 112.872 9.40527 112.699 9.49316C112.527 9.5778 112.379 9.70475 112.255 9.87402C112.131 10.0433 112.035 10.25 111.967 10.4941C111.898 10.7383 111.864 11.0199 111.864 11.3389V11.5439C111.864 11.7946 111.898 12.0306 111.967 12.252C112.038 12.4701 112.141 12.6621 112.274 12.8281C112.411 12.9941 112.576 13.1243 112.768 13.2188C112.963 13.3132 113.184 13.3604 113.432 13.3604C113.751 13.3604 114.021 13.2952 114.242 13.165C114.464 13.0348 114.657 12.8607 114.823 12.6426L115.37 13.0771C115.256 13.2497 115.111 13.4141 114.936 13.5703C114.76 13.7266 114.543 13.8535 114.286 13.9512C114.032 14.0488 113.731 14.0977 113.383 14.0977ZM46.2588 21.9546L43.2192 31H41.0879L45.0723 20.3359H46.4346L46.2588 21.9546ZM48.8003 31L45.7461 21.9546L45.563 20.3359H46.9326L50.939 31H48.8003ZM48.6611 27.0376V28.627H42.9409V27.0376H48.6611ZM53.6343 24.5986V34.0469H51.6934V23.0752H53.4878L53.6343 24.5986ZM58.7246 26.957V27.1108C58.7246 27.687 58.6562 28.2217 58.5195 28.7148C58.3877 29.2031 58.1924 29.6304 57.9336 29.9966C57.6748 30.3579 57.3525 30.6411 56.9668 30.8462C56.5859 31.0464 56.1465 31.1465 55.6484 31.1465C55.1602 31.1465 54.7354 31.0537 54.374 30.8682C54.0127 30.6777 53.7075 30.4092 53.4585 30.0625C53.2095 29.7158 53.0093 29.313 52.8579 28.854C52.7114 28.3901 52.6016 27.8848 52.5283 27.3379V26.8472C52.6016 26.2661 52.7114 25.7388 52.8579 25.2651C53.0093 24.7866 53.2095 24.374 53.4585 24.0273C53.7075 23.6758 54.0103 23.4048 54.3667 23.2144C54.728 23.0239 55.1504 22.9287 55.6338 22.9287C56.1367 22.9287 56.5786 23.0239 56.9595 23.2144C57.3452 23.4048 57.6699 23.6782 57.9336 24.0347C58.1973 24.3911 58.395 24.8159 58.5269 25.3091C58.6587 25.8022 58.7246 26.3516 58.7246 26.957ZM56.7837 27.1108V26.957C56.7837 26.6055 56.752 26.2808 56.6885 25.9829C56.625 25.6802 56.5273 25.4165 56.3955 25.1919C56.2637 24.9624 56.0928 24.7842 55.8828 24.6572C55.6729 24.5303 55.4189 24.4668 55.1211 24.4668C54.8232 24.4668 54.5669 24.5156 54.3521 24.6133C54.1372 24.7109 53.9614 24.8501 53.8247 25.0308C53.688 25.2114 53.5806 25.4263 53.5024 25.6753C53.4292 25.9194 53.3804 26.1904 53.356 26.4883V27.7041C53.3999 28.0654 53.4854 28.3901 53.6123 28.6782C53.7393 28.9663 53.9248 29.1958 54.1689 29.3667C54.418 29.5376 54.7402 29.623 55.1357 29.623C55.4336 29.623 55.6875 29.5571 55.8975 29.4253C56.1074 29.2935 56.2783 29.1128 56.4102 28.8833C56.542 28.6489 56.6372 28.3804 56.6958 28.0776C56.7544 27.7749 56.7837 27.4526 56.7837 27.1108ZM62.0718 24.5986V34.0469H60.1309V23.0752H61.9253L62.0718 24.5986ZM67.1621 26.957V27.1108C67.1621 27.687 67.0938 28.2217 66.957 28.7148C66.8252 29.2031 66.6299 29.6304 66.3711 29.9966C66.1123 30.3579 65.79 30.6411 65.4043 30.8462C65.0234 31.0464 64.584 31.1465 64.0859 31.1465C63.5977 31.1465 63.1729 31.0537 62.8115 30.8682C62.4502 30.6777 62.145 30.4092 61.896 30.0625C61.647 29.7158 61.4468 29.313 61.2954 28.854C61.1489 28.3901 61.0391 27.8848 60.9658 27.3379V26.8472C61.0391 26.2661 61.1489 25.7388 61.2954 25.2651C61.4468 24.7866 61.647 24.374 61.896 24.0273C62.145 23.6758 62.4478 23.4048 62.8042 23.2144C63.1655 23.0239 63.5879 22.9287 64.0713 22.9287C64.5742 22.9287 65.0161 23.0239 65.397 23.2144C65.7827 23.4048 66.1074 23.6782 66.3711 24.0347C66.6348 24.3911 66.8325 24.8159 66.9644 25.3091C67.0962 25.8022 67.1621 26.3516 67.1621 26.957ZM65.2212 27.1108V26.957C65.2212 26.6055 65.1895 26.2808 65.126 25.9829C65.0625 25.6802 64.9648 25.4165 64.833 25.1919C64.7012 24.9624 64.5303 24.7842 64.3203 24.6572C64.1104 24.5303 63.8564 24.4668 63.5586 24.4668C63.2607 24.4668 63.0044 24.5156 62.7896 24.6133C62.5747 24.7109 62.3989 24.8501 62.2622 25.0308C62.1255 25.2114 62.0181 25.4263 61.9399 25.6753C61.8667 25.9194 61.8179 26.1904 61.7935 26.4883V27.7041C61.8374 28.0654 61.9229 28.3901 62.0498 28.6782C62.1768 28.9663 62.3623 29.1958 62.6064 29.3667C62.8555 29.5376 63.1777 29.623 63.5732 29.623C63.8711 29.623 64.125 29.5571 64.335 29.4253C64.5449 29.2935 64.7158 29.1128 64.8477 28.8833C64.9795 28.6489 65.0747 28.3804 65.1333 28.0776C65.1919 27.7749 65.2212 27.4526 65.2212 27.1108ZM78.0386 28.2314C78.0386 28.0264 78.0068 27.8433 77.9434 27.6821C77.8848 27.5161 77.7749 27.3672 77.6138 27.2354C77.4575 27.0986 77.2354 26.9668 76.9473 26.8398C76.6641 26.708 76.2979 26.5713 75.8486 26.4297C75.3506 26.2734 74.8867 26.0977 74.457 25.9023C74.0273 25.707 73.6489 25.48 73.3218 25.2212C72.9995 24.9624 72.748 24.6646 72.5674 24.3276C72.3867 23.9858 72.2964 23.5903 72.2964 23.1411C72.2964 22.7017 72.3892 22.3013 72.5747 21.9399C72.7651 21.5786 73.0337 21.2686 73.3804 21.0098C73.7271 20.7461 74.1348 20.5435 74.6035 20.4019C75.0771 20.2603 75.5996 20.1895 76.1709 20.1895C76.9619 20.1895 77.6455 20.3335 78.2217 20.6216C78.8027 20.9097 79.252 21.3003 79.5693 21.7935C79.8867 22.2866 80.0454 22.8408 80.0454 23.4561H78.0386C78.0386 23.124 77.9678 22.8311 77.8262 22.5771C77.6895 22.3232 77.4795 22.123 77.1963 21.9766C76.918 21.8301 76.5664 21.7568 76.1416 21.7568C75.7314 21.7568 75.3896 21.8179 75.1162 21.9399C74.8477 22.062 74.645 22.228 74.5083 22.438C74.3765 22.6479 74.3105 22.8823 74.3105 23.1411C74.3105 23.3364 74.3569 23.5122 74.4497 23.6685C74.5425 23.8198 74.6816 23.9639 74.8672 24.1006C75.0527 24.2324 75.2822 24.3569 75.5557 24.4741C75.834 24.5864 76.1562 24.6987 76.5225 24.811C77.1084 24.9868 77.6211 25.1821 78.0605 25.397C78.5049 25.6118 78.8735 25.856 79.1665 26.1294C79.4644 26.4028 79.6865 26.7104 79.833 27.0522C79.9844 27.394 80.0601 27.7822 80.0601 28.2168C80.0601 28.6758 79.9697 29.0859 79.7891 29.4473C79.6084 29.8086 79.3496 30.1162 79.0127 30.3701C78.6758 30.624 78.2705 30.8169 77.7969 30.9487C77.3281 31.0806 76.8032 31.1465 76.2222 31.1465C75.7046 31.1465 75.1919 31.0781 74.6841 30.9414C74.1812 30.7998 73.7246 30.5898 73.3145 30.3115C72.9043 30.0283 72.5771 29.6719 72.333 29.2422C72.0889 28.8076 71.9668 28.2998 71.9668 27.7188H73.9883C73.9883 28.0557 74.042 28.3438 74.1494 28.583C74.2617 28.8174 74.418 29.0103 74.6182 29.1616C74.8232 29.3081 75.0625 29.4155 75.3359 29.4839C75.6094 29.5522 75.9048 29.5864 76.2222 29.5864C76.6323 29.5864 76.9692 29.5303 77.2329 29.418C77.5015 29.3008 77.7017 29.1396 77.8335 28.9346C77.9702 28.7295 78.0386 28.4951 78.0386 28.2314ZM85.2163 23.0752V24.4668H80.6753V23.0752H85.2163ZM81.8911 21.127H83.832V28.7148C83.832 28.9492 83.8638 29.1299 83.9272 29.2568C83.9907 29.3838 84.0859 29.4692 84.2129 29.5132C84.3398 29.5571 84.4912 29.5791 84.667 29.5791C84.7939 29.5791 84.9111 29.5718 85.0186 29.5571C85.126 29.5425 85.2163 29.5278 85.2896 29.5132L85.2969 30.9634C85.1357 31.0171 84.9526 31.061 84.7476 31.0952C84.5474 31.1294 84.3203 31.1465 84.0664 31.1465C83.6318 31.1465 83.251 31.0732 82.9238 30.9268C82.5967 30.7754 82.3428 30.5337 82.1621 30.2017C81.9814 29.8647 81.8911 29.4204 81.8911 28.8687V21.127ZM85.9707 27.1182V26.9644C85.9707 26.3833 86.0537 25.8486 86.2197 25.3604C86.3857 24.8672 86.6274 24.4399 86.9448 24.0786C87.2622 23.7173 87.6504 23.4365 88.1094 23.2363C88.5684 23.0312 89.0908 22.9287 89.6768 22.9287C90.2725 22.9287 90.7998 23.0312 91.2588 23.2363C91.7227 23.4365 92.1133 23.7173 92.4307 24.0786C92.748 24.4399 92.9897 24.8672 93.1558 25.3604C93.3218 25.8486 93.4048 26.3833 93.4048 26.9644V27.1182C93.4048 27.6943 93.3218 28.229 93.1558 28.7222C92.9897 29.2104 92.748 29.6377 92.4307 30.0039C92.1133 30.3652 91.7251 30.646 91.2661 30.8462C90.8071 31.0464 90.2822 31.1465 89.6914 31.1465C89.1055 31.1465 88.5806 31.0464 88.1167 30.8462C87.6528 30.646 87.2622 30.3652 86.9448 30.0039C86.6274 29.6377 86.3857 29.2104 86.2197 28.7222C86.0537 28.229 85.9707 27.6943 85.9707 27.1182ZM87.9043 26.9644V27.1182C87.9043 27.4648 87.9385 27.7896 88.0068 28.0923C88.0752 28.395 88.1802 28.6611 88.3218 28.8906C88.4634 29.1201 88.6465 29.3008 88.8711 29.4326C89.1006 29.5596 89.374 29.623 89.6914 29.623C90.0039 29.623 90.2725 29.5596 90.4971 29.4326C90.7217 29.3008 90.9048 29.1201 91.0464 28.8906C91.1929 28.6611 91.3003 28.395 91.3687 28.0923C91.437 27.7896 91.4712 27.4648 91.4712 27.1182V26.9644C91.4712 26.6226 91.437 26.3027 91.3687 26.0049C91.3003 25.7021 91.1929 25.436 91.0464 25.2065C90.9048 24.9722 90.7192 24.7891 90.4897 24.6572C90.2651 24.5205 89.9941 24.4521 89.6768 24.4521C89.3643 24.4521 89.0957 24.5205 88.8711 24.6572C88.6465 24.7891 88.4634 24.9722 88.3218 25.2065C88.1802 25.436 88.0752 25.7021 88.0068 26.0049C87.9385 26.3027 87.9043 26.6226 87.9043 26.9644ZM96.7446 24.6938V31H94.811V23.0752H96.6421L96.7446 24.6938ZM99.1543 23.0239L99.125 24.8257C99.0176 24.8062 98.8955 24.7915 98.7588 24.7817C98.627 24.772 98.5024 24.7671 98.3853 24.7671C98.0874 24.7671 97.8262 24.8086 97.6016 24.8916C97.377 24.9697 97.189 25.0845 97.0376 25.2358C96.8911 25.3872 96.7788 25.5728 96.7007 25.7925C96.6226 26.0073 96.5786 26.2515 96.5688 26.5249L96.1514 26.4736C96.1514 25.9707 96.2026 25.5044 96.3052 25.0747C96.4077 24.645 96.5566 24.269 96.752 23.9468C96.9473 23.6245 97.1914 23.3755 97.4844 23.1997C97.7822 23.019 98.124 22.9287 98.5098 22.9287C98.6172 22.9287 98.7319 22.9385 98.854 22.958C98.981 22.9727 99.0811 22.9946 99.1543 23.0239ZM103.629 31.1465C103.029 31.1465 102.489 31.0488 102.011 30.8535C101.532 30.6582 101.125 30.3872 100.788 30.0405C100.456 29.689 100.199 29.2812 100.019 28.8174C99.8428 28.3486 99.7549 27.8457 99.7549 27.3086V27.0156C99.7549 26.4053 99.8428 25.8511 100.019 25.353C100.194 24.8501 100.443 24.418 100.766 24.0566C101.088 23.6953 101.474 23.417 101.923 23.2217C102.372 23.0264 102.868 22.9287 103.41 22.9287C103.971 22.9287 104.467 23.0239 104.896 23.2144C105.326 23.3999 105.685 23.6636 105.973 24.0054C106.261 24.3472 106.479 24.7573 106.625 25.2358C106.771 25.7095 106.845 26.2344 106.845 26.8105V27.6235H100.634V26.2905H104.94V26.144C104.931 25.8364 104.872 25.5557 104.765 25.3018C104.657 25.043 104.491 24.8379 104.267 24.6865C104.042 24.5303 103.751 24.4521 103.395 24.4521C103.107 24.4521 102.855 24.5156 102.641 24.6426C102.431 24.7646 102.255 24.9404 102.113 25.1699C101.977 25.3945 101.874 25.6631 101.806 25.9756C101.737 26.2881 101.703 26.6348 101.703 27.0156V27.3086C101.703 27.6406 101.747 27.9482 101.835 28.2314C101.928 28.5146 102.062 28.7612 102.238 28.9712C102.418 29.1763 102.633 29.3374 102.882 29.4546C103.136 29.5669 103.424 29.623 103.747 29.623C104.152 29.623 104.518 29.5449 104.845 29.3887C105.177 29.2275 105.465 28.9907 105.709 28.6782L106.684 29.689C106.518 29.9331 106.293 30.1675 106.01 30.3921C105.731 30.6167 105.395 30.7998 104.999 30.9414C104.604 31.0781 104.147 31.1465 103.629 31.1465Z" fill="white"/>
<path d="M27.4251 15.5005C27.2969 15.5996 25.0328 16.8691 25.0328 19.692C25.0328 22.9571 27.9138 24.1122 28 24.1408C27.9867 24.2112 27.5423 25.7228 26.481 27.2629C25.5347 28.6183 24.5464 29.9714 23.0429 29.9714C21.5394 29.9714 21.1524 29.1023 19.4168 29.1023C17.7253 29.1023 17.1239 30 15.7487 30C14.3734 30 13.4138 28.7459 12.3105 27.2057C11.0326 25.3971 10 22.5875 10 19.9208C10 15.6436 12.7947 13.3751 15.5453 13.3751C17.0068 13.3751 18.225 14.33 19.1426 14.33C20.016 14.33 21.378 13.3179 23.0407 13.3179C23.6708 13.3179 25.9349 13.3751 27.4251 15.5005ZM22.2513 11.5072C22.939 10.6953 23.4254 9.56876 23.4254 8.44224C23.4254 8.28603 23.4121 8.12761 23.3834 8C22.2646 8.0418 20.9335 8.74147 20.1309 9.66777C19.5008 10.3806 18.9127 11.5072 18.9127 12.6491C18.9127 12.8207 18.9414 12.9923 18.9547 13.0473C19.0254 13.0605 19.1404 13.0759 19.2554 13.0759C20.2592 13.0759 21.5217 12.407 22.2513 11.5072Z" fill="white"/>
</svg>
