<svg width="128" height="38" viewBox="0 0 128 38" fill="none" xmlns="http://www.w3.org/2000/svg">
<path d="M123.259 38H4.74074C2.08593 38 0 35.91 0 33.25V4.75C0 2.09 2.08593 0 4.74074 0H123.259C125.914 0 128 2.09 128 4.75V33.25C128 35.91 125.914 38 123.259 38Z" fill="black"/>
<path d="M123.259 0.76C125.44 0.76 127.241 2.565 127.241 4.75V33.25C127.241 35.435 125.44 37.24 123.259 37.24H4.74074C2.56 37.24 0.758519 35.435 0.758519 33.25V4.75C0.758519 2.565 2.56 0.76 4.74074 0.76H123.259ZM123.259 0H4.74074C2.08593 0 0 2 0 4.75V33.25C0 35.91 2.08593 38 4.74074 38H123.259C125.914 38 128 35.91 128 33.25V4.75C128 2 125.914 0 123.259 0Z" fill="#A6A6A6"/>
<path d="M48.2588 8.95459L45.2192 18H43.0879L47.0723 7.33594H48.4346L48.2588 8.95459ZM50.8003 18L47.7461 8.95459L47.563 7.33594H48.9326L52.939 18H50.8003ZM50.6611 14.0376V15.627H44.9409V14.0376H50.6611ZM55.6343 11.5986V21.0469H53.6934V10.0752H55.4878L55.6343 11.5986ZM60.7246 13.957V14.1108C60.7246 14.687 60.6562 15.2217 60.5195 15.7148C60.3877 16.2031 60.1924 16.6304 59.9336 16.9966C59.6748 17.3579 59.3525 17.6411 58.9668 17.8462C58.5859 18.0464 58.1465 18.1465 57.6484 18.1465C57.1602 18.1465 56.7354 18.0537 56.374 17.8682C56.0127 17.6777 55.7075 17.4092 55.4585 17.0625C55.2095 16.7158 55.0093 16.313 54.8579 15.854C54.7114 15.3901 54.6016 14.8848 54.5283 14.3379V13.8472C54.6016 13.2661 54.7114 12.7388 54.8579 12.2651C55.0093 11.7866 55.2095 11.374 55.4585 11.0273C55.7075 10.6758 56.0103 10.4048 56.3667 10.2144C56.728 10.0239 57.1504 9.92871 57.6338 9.92871C58.1367 9.92871 58.5786 10.0239 58.9595 10.2144C59.3452 10.4048 59.6699 10.6782 59.9336 11.0347C60.1973 11.3911 60.395 11.8159 60.5269 12.3091C60.6587 12.8022 60.7246 13.3516 60.7246 13.957ZM58.7837 14.1108V13.957C58.7837 13.6055 58.752 13.2808 58.6885 12.9829C58.625 12.6802 58.5273 12.4165 58.3955 12.1919C58.2637 11.9624 58.0928 11.7842 57.8828 11.6572C57.6729 11.5303 57.4189 11.4668 57.1211 11.4668C56.8232 11.4668 56.5669 11.5156 56.3521 11.6133C56.1372 11.7109 55.9614 11.8501 55.8247 12.0308C55.688 12.2114 55.5806 12.4263 55.5024 12.6753C55.4292 12.9194 55.3804 13.1904 55.356 13.4883V14.7041C55.3999 15.0654 55.4854 15.3901 55.6123 15.6782C55.7393 15.9663 55.9248 16.1958 56.1689 16.3667C56.418 16.5376 56.7402 16.623 57.1357 16.623C57.4336 16.623 57.6875 16.5571 57.8975 16.4253C58.1074 16.2935 58.2783 16.1128 58.4102 15.8833C58.542 15.6489 58.6372 15.3804 58.6958 15.0776C58.7544 14.7749 58.7837 14.4526 58.7837 14.1108ZM64.0718 11.5986V21.0469H62.1309V10.0752H63.9253L64.0718 11.5986ZM69.1621 13.957V14.1108C69.1621 14.687 69.0938 15.2217 68.957 15.7148C68.8252 16.2031 68.6299 16.6304 68.3711 16.9966C68.1123 17.3579 67.79 17.6411 67.4043 17.8462C67.0234 18.0464 66.584 18.1465 66.0859 18.1465C65.5977 18.1465 65.1729 18.0537 64.8115 17.8682C64.4502 17.6777 64.145 17.4092 63.896 17.0625C63.647 16.7158 63.4468 16.313 63.2954 15.854C63.1489 15.3901 63.0391 14.8848 62.9658 14.3379V13.8472C63.0391 13.2661 63.1489 12.7388 63.2954 12.2651C63.4468 11.7866 63.647 11.374 63.896 11.0273C64.145 10.6758 64.4478 10.4048 64.8042 10.2144C65.1655 10.0239 65.5879 9.92871 66.0713 9.92871C66.5742 9.92871 67.0161 10.0239 67.397 10.2144C67.7827 10.4048 68.1074 10.6782 68.3711 11.0347C68.6348 11.3911 68.8325 11.8159 68.9644 12.3091C69.0962 12.8022 69.1621 13.3516 69.1621 13.957ZM67.2212 14.1108V13.957C67.2212 13.6055 67.1895 13.2808 67.126 12.9829C67.0625 12.6802 66.9648 12.4165 66.833 12.1919C66.7012 11.9624 66.5303 11.7842 66.3203 11.6572C66.1104 11.5303 65.8564 11.4668 65.5586 11.4668C65.2607 11.4668 65.0044 11.5156 64.7896 11.6133C64.5747 11.7109 64.3989 11.8501 64.2622 12.0308C64.1255 12.2114 64.0181 12.4263 63.9399 12.6753C63.8667 12.9194 63.8179 13.1904 63.7935 13.4883V14.7041C63.8374 15.0654 63.9229 15.3901 64.0498 15.6782C64.1768 15.9663 64.3623 16.1958 64.6064 16.3667C64.8555 16.5376 65.1777 16.623 65.5732 16.623C65.8711 16.623 66.125 16.5571 66.335 16.4253C66.5449 16.2935 66.7158 16.1128 66.8477 15.8833C66.9795 15.6489 67.0747 15.3804 67.1333 15.0776C67.1919 14.7749 67.2212 14.4526 67.2212 14.1108ZM80.0386 15.2314C80.0386 15.0264 80.0068 14.8433 79.9434 14.6821C79.8848 14.5161 79.7749 14.3672 79.6138 14.2354C79.4575 14.0986 79.2354 13.9668 78.9473 13.8398C78.6641 13.708 78.2979 13.5713 77.8486 13.4297C77.3506 13.2734 76.8867 13.0977 76.457 12.9023C76.0273 12.707 75.6489 12.48 75.3218 12.2212C74.9995 11.9624 74.748 11.6646 74.5674 11.3276C74.3867 10.9858 74.2964 10.5903 74.2964 10.1411C74.2964 9.70166 74.3892 9.30127 74.5747 8.93994C74.7651 8.57861 75.0337 8.26855 75.3804 8.00977C75.7271 7.74609 76.1348 7.54346 76.6035 7.40186C77.0771 7.26025 77.5996 7.18945 78.1709 7.18945C78.9619 7.18945 79.6455 7.3335 80.2217 7.62158C80.8027 7.90967 81.252 8.30029 81.5693 8.79346C81.8867 9.28662 82.0454 9.84082 82.0454 10.4561H80.0386C80.0386 10.124 79.9678 9.83105 79.8262 9.57715C79.6895 9.32324 79.4795 9.12305 79.1963 8.97656C78.918 8.83008 78.5664 8.75684 78.1416 8.75684C77.7314 8.75684 77.3896 8.81787 77.1162 8.93994C76.8477 9.06201 76.645 9.22803 76.5083 9.43799C76.3765 9.64795 76.3105 9.88232 76.3105 10.1411C76.3105 10.3364 76.3569 10.5122 76.4497 10.6685C76.5425 10.8198 76.6816 10.9639 76.8672 11.1006C77.0527 11.2324 77.2822 11.3569 77.5557 11.4741C77.834 11.5864 78.1562 11.6987 78.5225 11.811C79.1084 11.9868 79.6211 12.1821 80.0605 12.397C80.5049 12.6118 80.8735 12.856 81.1665 13.1294C81.4644 13.4028 81.6865 13.7104 81.833 14.0522C81.9844 14.394 82.0601 14.7822 82.0601 15.2168C82.0601 15.6758 81.9697 16.0859 81.7891 16.4473C81.6084 16.8086 81.3496 17.1162 81.0127 17.3701C80.6758 17.624 80.2705 17.8169 79.7969 17.9487C79.3281 18.0806 78.8032 18.1465 78.2222 18.1465C77.7046 18.1465 77.1919 18.0781 76.6841 17.9414C76.1812 17.7998 75.7246 17.5898 75.3145 17.3115C74.9043 17.0283 74.5771 16.6719 74.333 16.2422C74.0889 15.8076 73.9668 15.2998 73.9668 14.7188H75.9883C75.9883 15.0557 76.042 15.3438 76.1494 15.583C76.2617 15.8174 76.418 16.0103 76.6182 16.1616C76.8232 16.3081 77.0625 16.4155 77.3359 16.4839C77.6094 16.5522 77.9048 16.5864 78.2222 16.5864C78.6323 16.5864 78.9692 16.5303 79.2329 16.418C79.5015 16.3008 79.7017 16.1396 79.8335 15.9346C79.9702 15.7295 80.0386 15.4951 80.0386 15.2314ZM87.2163 10.0752V11.4668H82.6753V10.0752H87.2163ZM83.8911 8.12695H85.832V15.7148C85.832 15.9492 85.8638 16.1299 85.9272 16.2568C85.9907 16.3838 86.0859 16.4692 86.2129 16.5132C86.3398 16.5571 86.4912 16.5791 86.667 16.5791C86.7939 16.5791 86.9111 16.5718 87.0186 16.5571C87.126 16.5425 87.2163 16.5278 87.2896 16.5132L87.2969 17.9634C87.1357 18.0171 86.9526 18.061 86.7476 18.0952C86.5474 18.1294 86.3203 18.1465 86.0664 18.1465C85.6318 18.1465 85.251 18.0732 84.9238 17.9268C84.5967 17.7754 84.3428 17.5337 84.1621 17.2017C83.9814 16.8647 83.8911 16.4204 83.8911 15.8687V8.12695ZM87.9707 14.1182V13.9644C87.9707 13.3833 88.0537 12.8486 88.2197 12.3604C88.3857 11.8672 88.6274 11.4399 88.9448 11.0786C89.2622 10.7173 89.6504 10.4365 90.1094 10.2363C90.5684 10.0312 91.0908 9.92871 91.6768 9.92871C92.2725 9.92871 92.7998 10.0312 93.2588 10.2363C93.7227 10.4365 94.1133 10.7173 94.4307 11.0786C94.748 11.4399 94.9897 11.8672 95.1558 12.3604C95.3218 12.8486 95.4048 13.3833 95.4048 13.9644V14.1182C95.4048 14.6943 95.3218 15.229 95.1558 15.7222C94.9897 16.2104 94.748 16.6377 94.4307 17.0039C94.1133 17.3652 93.7251 17.646 93.2661 17.8462C92.8071 18.0464 92.2822 18.1465 91.6914 18.1465C91.1055 18.1465 90.5806 18.0464 90.1167 17.8462C89.6528 17.646 89.2622 17.3652 88.9448 17.0039C88.6274 16.6377 88.3857 16.2104 88.2197 15.7222C88.0537 15.229 87.9707 14.6943 87.9707 14.1182ZM89.9043 13.9644V14.1182C89.9043 14.4648 89.9385 14.7896 90.0068 15.0923C90.0752 15.395 90.1802 15.6611 90.3218 15.8906C90.4634 16.1201 90.6465 16.3008 90.8711 16.4326C91.1006 16.5596 91.374 16.623 91.6914 16.623C92.0039 16.623 92.2725 16.5596 92.4971 16.4326C92.7217 16.3008 92.9048 16.1201 93.0464 15.8906C93.1929 15.6611 93.3003 15.395 93.3687 15.0923C93.437 14.7896 93.4712 14.4648 93.4712 14.1182V13.9644C93.4712 13.6226 93.437 13.3027 93.3687 13.0049C93.3003 12.7021 93.1929 12.436 93.0464 12.2065C92.9048 11.9722 92.7192 11.7891 92.4897 11.6572C92.2651 11.5205 91.9941 11.4521 91.6768 11.4521C91.3643 11.4521 91.0957 11.5205 90.8711 11.6572C90.6465 11.7891 90.4634 11.9722 90.3218 12.2065C90.1802 12.436 90.0752 12.7021 90.0068 13.0049C89.9385 13.3027 89.9043 13.6226 89.9043 13.9644ZM98.7446 11.6938V18H96.811V10.0752H98.6421L98.7446 11.6938ZM101.154 10.0239L101.125 11.8257C101.018 11.8062 100.896 11.7915 100.759 11.7817C100.627 11.772 100.502 11.7671 100.385 11.7671C100.087 11.7671 99.8262 11.8086 99.6016 11.8916C99.377 11.9697 99.189 12.0845 99.0376 12.2358C98.8911 12.3872 98.7788 12.5728 98.7007 12.7925C98.6226 13.0073 98.5786 13.2515 98.5688 13.5249L98.1514 13.4736C98.1514 12.9707 98.2026 12.5044 98.3052 12.0747C98.4077 11.645 98.5566 11.269 98.752 10.9468C98.9473 10.6245 99.1914 10.3755 99.4844 10.1997C99.7822 10.019 100.124 9.92871 100.51 9.92871C100.617 9.92871 100.732 9.93848 100.854 9.95801C100.981 9.97266 101.081 9.99463 101.154 10.0239ZM105.629 18.1465C105.029 18.1465 104.489 18.0488 104.011 17.8535C103.532 17.6582 103.125 17.3872 102.788 17.0405C102.456 16.689 102.199 16.2812 102.019 15.8174C101.843 15.3486 101.755 14.8457 101.755 14.3086V14.0156C101.755 13.4053 101.843 12.8511 102.019 12.353C102.194 11.8501 102.443 11.418 102.766 11.0566C103.088 10.6953 103.474 10.417 103.923 10.2217C104.372 10.0264 104.868 9.92871 105.41 9.92871C105.971 9.92871 106.467 10.0239 106.896 10.2144C107.326 10.3999 107.685 10.6636 107.973 11.0054C108.261 11.3472 108.479 11.7573 108.625 12.2358C108.771 12.7095 108.845 13.2344 108.845 13.8105V14.6235H102.634V13.2905H106.94V13.144C106.931 12.8364 106.872 12.5557 106.765 12.3018C106.657 12.043 106.491 11.8379 106.267 11.6865C106.042 11.5303 105.751 11.4521 105.395 11.4521C105.107 11.4521 104.855 11.5156 104.641 11.6426C104.431 11.7646 104.255 11.9404 104.113 12.1699C103.977 12.3945 103.874 12.6631 103.806 12.9756C103.737 13.2881 103.703 13.6348 103.703 14.0156V14.3086C103.703 14.6406 103.747 14.9482 103.835 15.2314C103.928 15.5146 104.062 15.7612 104.238 15.9712C104.418 16.1763 104.633 16.3374 104.882 16.4546C105.136 16.5669 105.424 16.623 105.747 16.623C106.152 16.623 106.518 16.5449 106.845 16.3887C107.177 16.2275 107.465 15.9907 107.709 15.6782L108.684 16.689C108.518 16.9331 108.293 17.1675 108.01 17.3921C107.731 17.6167 107.395 17.7998 106.999 17.9414C106.604 18.0781 106.147 18.1465 105.629 18.1465ZM45.5684 27.6064V28.3486H43.1855V27.6064H45.5684ZM47.4043 25.7168H48.3076L48.2295 27.6943C48.21 28.1956 48.153 28.6286 48.0586 28.9932C47.9642 29.3577 47.8438 29.6686 47.6973 29.9258C47.5508 30.1797 47.3864 30.3929 47.2041 30.5654C47.0251 30.738 46.8395 30.8828 46.6475 31H46.1982L46.2227 30.2627L46.4082 30.2578C46.5156 30.1309 46.6198 30.0007 46.7207 29.8672C46.8216 29.7305 46.9144 29.5693 46.999 29.3838C47.0837 29.195 47.1536 28.9655 47.209 28.6953C47.2676 28.4219 47.305 28.0882 47.3213 27.6943L47.4043 25.7168ZM47.6289 25.7168H50.8076V31H49.9043V26.5518H47.6289V25.7168ZM45.9932 30.2578H51.4863V32.5576H50.583V31H46.8965V32.5576H45.9883L45.9932 30.2578ZM55.6025 30.0967V27.377C55.6025 27.1686 55.5602 26.988 55.4756 26.835C55.3942 26.6787 55.2705 26.5583 55.1045 26.4736C54.9385 26.389 54.7334 26.3467 54.4893 26.3467C54.2614 26.3467 54.0612 26.3857 53.8887 26.4639C53.7194 26.542 53.5859 26.6445 53.4883 26.7715C53.3939 26.8984 53.3467 27.0352 53.3467 27.1816H52.4434C52.4434 26.9928 52.4922 26.8057 52.5898 26.6201C52.6875 26.4346 52.8275 26.2669 53.0098 26.1172C53.1953 25.9642 53.4167 25.8438 53.6738 25.7559C53.9342 25.6647 54.224 25.6191 54.543 25.6191C54.9271 25.6191 55.2656 25.6842 55.5586 25.8145C55.8548 25.9447 56.0859 26.1416 56.252 26.4053C56.4212 26.6657 56.5059 26.9928 56.5059 27.3867V29.8477C56.5059 30.0234 56.5205 30.2106 56.5498 30.4092C56.5824 30.6077 56.6296 30.7786 56.6914 30.9219V31H55.749C55.7035 30.8958 55.6676 30.7575 55.6416 30.585C55.6156 30.4092 55.6025 30.2464 55.6025 30.0967ZM55.7588 27.7969L55.7686 28.4316H54.8555C54.5983 28.4316 54.3688 28.4528 54.167 28.4951C53.9652 28.5342 53.7959 28.5944 53.6592 28.6758C53.5225 28.7572 53.4183 28.8597 53.3467 28.9834C53.2751 29.1038 53.2393 29.2454 53.2393 29.4082C53.2393 29.5742 53.2767 29.7256 53.3516 29.8623C53.4264 29.999 53.5387 30.1081 53.6885 30.1895C53.8415 30.2676 54.0286 30.3066 54.25 30.3066C54.5267 30.3066 54.7708 30.248 54.9824 30.1309C55.194 30.0137 55.3617 29.8704 55.4854 29.7012C55.6123 29.5319 55.6807 29.3675 55.6904 29.208L56.0762 29.6426C56.0534 29.7793 55.9915 29.9307 55.8906 30.0967C55.7897 30.2627 55.6546 30.4222 55.4854 30.5752C55.3193 30.7249 55.1208 30.8503 54.8896 30.9512C54.6618 31.0488 54.4046 31.0977 54.1182 31.0977C53.7601 31.0977 53.446 31.0277 53.1758 30.8877C52.9089 30.7477 52.7005 30.5605 52.5508 30.3262C52.4043 30.0885 52.3311 29.8232 52.3311 29.5303C52.3311 29.2471 52.3864 28.998 52.4971 28.7832C52.6077 28.5651 52.7673 28.3844 52.9756 28.2412C53.1839 28.0947 53.4346 27.984 53.7275 27.9092C54.0205 27.8343 54.3477 27.7969 54.709 27.7969H55.7588ZM62.0088 28.7002L60.0068 25.7168H61.0957L62.4629 27.9043H63.5176L63.3857 28.7002H62.0088ZM62.502 28.6074L60.9688 31H59.8262L61.9307 27.9531L62.502 28.6074ZM63.9814 25.7168V31H63.0781V25.7168H63.9814ZM67.0625 25.7168L65.0605 28.7002H63.6836L63.542 27.9043H64.6016L65.9688 25.7168H67.0625ZM66.0957 31L64.5576 28.6074L65.1387 27.9531L67.2383 31H66.0957ZM70.373 30.3555V33.0361H69.4697V30.3555H70.373ZM69.8945 29.7744L71.3008 25.7168H72.2285L70.2705 31H69.6699L69.8945 29.7744ZM68.5371 25.7168L69.9824 29.7793L70.1826 31H69.582L67.6143 25.7168H68.5371ZM74.0742 25.7168V31H73.1709V25.7168H74.0742ZM77.541 25.7168L75.0361 28.7441H73.7715L73.6348 27.9531H74.6699L76.4424 25.7168H77.541ZM76.5693 31L74.626 28.6074L75.207 27.9531L77.7168 31H76.5693ZM80.6562 25.7168V31H79.748V25.7168H80.6562ZM82.4287 25.7168V26.4492H78.0098V25.7168H82.4287ZM85.1191 31.0977C84.7513 31.0977 84.4176 31.0358 84.1182 30.9121C83.8219 30.7852 83.5664 30.6077 83.3516 30.3799C83.14 30.152 82.9772 29.8818 82.8633 29.5693C82.7493 29.2568 82.6924 28.915 82.6924 28.5439V28.3389C82.6924 27.9092 82.7559 27.5267 82.8828 27.1914C83.0098 26.8529 83.1823 26.5664 83.4004 26.332C83.6185 26.0977 83.8659 25.9202 84.1426 25.7998C84.4193 25.6794 84.7057 25.6191 85.002 25.6191C85.3796 25.6191 85.7051 25.6842 85.9785 25.8145C86.2552 25.9447 86.4814 26.127 86.6572 26.3613C86.833 26.5924 86.9632 26.8659 87.0479 27.1816C87.1325 27.4941 87.1748 27.8359 87.1748 28.207V28.6123H83.2295V27.875H86.2715V27.8066C86.2585 27.5723 86.2096 27.3444 86.125 27.123C86.0436 26.9017 85.9134 26.7194 85.7344 26.5762C85.5553 26.4329 85.3112 26.3613 85.002 26.3613C84.7969 26.3613 84.6081 26.4053 84.4355 26.4932C84.263 26.5778 84.1149 26.7048 83.9912 26.874C83.8675 27.0433 83.7715 27.25 83.7031 27.4941C83.6348 27.7383 83.6006 28.0199 83.6006 28.3389V28.5439C83.6006 28.7946 83.6348 29.0306 83.7031 29.252C83.7747 29.4701 83.8773 29.6621 84.0107 29.8281C84.1475 29.9941 84.3118 30.1243 84.5039 30.2188C84.6992 30.3132 84.9206 30.3604 85.168 30.3604C85.487 30.3604 85.7572 30.2952 85.9785 30.165C86.1999 30.0348 86.3936 29.8607 86.5596 29.6426L87.1064 30.0771C86.9925 30.2497 86.8477 30.4141 86.6719 30.5703C86.4961 30.7266 86.2796 30.8535 86.0225 30.9512C85.7686 31.0488 85.4674 31.0977 85.1191 31.0977ZM89.6455 30.4531L91.1152 25.7168H92.082L89.9629 31.8154C89.9141 31.9456 89.849 32.0856 89.7676 32.2354C89.6895 32.3883 89.5885 32.5332 89.4648 32.6699C89.3411 32.8066 89.1914 32.9173 89.0156 33.002C88.8431 33.0898 88.6364 33.1338 88.3955 33.1338C88.3239 33.1338 88.2327 33.124 88.1221 33.1045C88.0114 33.085 87.9333 33.0687 87.8877 33.0557L87.8828 32.3232C87.9089 32.3265 87.9495 32.3298 88.0049 32.333C88.0635 32.3395 88.1042 32.3428 88.127 32.3428C88.332 32.3428 88.5062 32.3151 88.6494 32.2598C88.7926 32.2077 88.9131 32.1182 89.0107 31.9912C89.1117 31.8675 89.1979 31.6966 89.2695 31.4785L89.6455 30.4531ZM88.5664 25.7168L89.9385 29.8184L90.1729 30.7705L89.5234 31.1025L87.5801 25.7168H88.5664Z" fill="white"/>
<path d="M27.4251 15.5005C27.2969 15.5996 25.0328 16.8691 25.0328 19.692C25.0328 22.9571 27.9138 24.1122 28 24.1408C27.9867 24.2112 27.5423 25.7228 26.481 27.2629C25.5347 28.6183 24.5464 29.9714 23.0429 29.9714C21.5394 29.9714 21.1524 29.1023 19.4168 29.1023C17.7253 29.1023 17.1239 30 15.7487 30C14.3734 30 13.4138 28.7459 12.3105 27.2057C11.0326 25.3971 10 22.5875 10 19.9208C10 15.6436 12.7947 13.3751 15.5453 13.3751C17.0068 13.3751 18.225 14.33 19.1426 14.33C20.016 14.33 21.378 13.3179 23.0407 13.3179C23.6708 13.3179 25.9349 13.3751 27.4251 15.5005ZM22.2513 11.5072C22.939 10.6953 23.4254 9.56876 23.4254 8.44224C23.4254 8.28603 23.4121 8.12761 23.3834 8C22.2646 8.0418 20.9335 8.74147 20.1309 9.66777C19.5008 10.3806 18.9127 11.5072 18.9127 12.6491C18.9127 12.8207 18.9414 12.9923 18.9547 13.0473C19.0254 13.0605 19.1404 13.0759 19.2554 13.0759C20.2592 13.0759 21.5217 12.407 22.2513 11.5072Z" fill="white"/>
</svg>
