<svg width="221" height="35" viewBox="0 0 221 35" fill="none" xmlns="http://www.w3.org/2000/svg">
<path fill-rule="evenodd" clip-rule="evenodd" d="M14.546 24.4656C20.1892 20.5007 27.12 18.7987 33.9591 19.6895C33.6324 21.2812 32.8497 22.797 31.6091 24.0326L23.1566 32.4518C19.7893 35.8058 14.3299 35.8058 10.9626 32.4518L6.27393 27.7816C8.53491 27.773 10.8061 27.0932 12.7681 25.7148L14.546 24.4656Z" fill="white"/>
<path fill-rule="evenodd" clip-rule="evenodd" d="M10.9781 3.48276C14.3454 0.128796 19.8048 0.128793 23.1721 3.48275L31.6247 11.902C32.898 13.1703 33.6896 14.7357 34 16.3745C26.4643 15.4895 18.8547 17.4062 12.6391 21.7732L10.8612 23.0224C8.08245 24.9748 4.42637 24.9496 1.70132 23.0993C-0.815086 19.7375 -0.539719 14.9551 2.52556 11.902L10.9781 3.48276Z" fill="white"/>
<path d="M55.1043 18.1976C56.2073 18.4228 57.1139 19.0267 57.8243 20.0093C58.5347 20.992 58.8899 22.1179 58.8899 23.3872C58.8899 24.5336 58.6281 25.5469 58.1047 26.4272C57.6 27.287 56.8615 27.9626 55.8895 28.4539C54.9174 28.9453 53.7677 29.1909 52.4404 29.1909H44V7.757H52.0759C53.4031 7.757 54.5435 7.99243 55.4969 8.46328C56.469 8.93413 57.198 9.58923 57.6841 10.4286C58.1888 11.2679 58.4412 12.2198 58.4412 13.2844C58.4412 14.5332 58.1328 15.5772 57.5158 16.4166C56.9176 17.2559 56.1138 17.8496 55.1043 18.1976ZM47.9258 16.6008H51.515C52.4497 16.6008 53.1695 16.3756 53.6742 15.9252C54.1789 15.4544 54.4313 14.789 54.4313 13.9292C54.4313 13.0694 54.1789 12.4041 53.6742 11.9332C53.1695 11.4624 52.4497 11.227 51.515 11.227H47.9258V16.6008ZM51.8796 25.6902C52.833 25.6902 53.5714 25.4446 54.0948 24.9533C54.637 24.4619 54.908 23.7659 54.908 22.8651C54.908 21.9439 54.6276 21.2274 54.0668 20.7156C53.506 20.1834 52.7488 19.9172 51.7954 19.9172H47.9258V25.6902H51.8796Z" fill="white"/>
<path d="M76.7403 20.3164C76.7403 20.9306 76.7029 21.4833 76.6281 21.9746H65.2714C65.3649 23.2029 65.7575 24.1651 66.4491 24.8611C67.1408 25.5572 67.9914 25.9052 69.0009 25.9052C70.459 25.9052 71.4966 25.2194 72.1135 23.8478H76.3477C75.899 25.4855 75.0391 26.8367 73.7679 27.9012C72.4967 28.9453 70.9357 29.4673 69.085 29.4673C67.5895 29.4673 66.2435 29.109 65.0471 28.3925C63.8694 27.6555 62.944 26.6217 62.271 25.2911C61.6167 23.9604 61.2896 22.425 61.2896 20.6849C61.2896 18.9243 61.6167 17.3787 62.271 16.0481C62.9253 14.7174 63.8413 13.6938 65.019 12.9773C66.1968 12.2608 67.5521 11.9025 69.085 11.9025C70.5619 11.9025 71.8798 12.2506 73.0388 12.9466C74.2165 13.6426 75.1232 14.6355 75.7588 15.9252C76.4131 17.1945 76.7403 18.6582 76.7403 20.3164ZM72.6743 19.0881C72.6556 17.9826 72.2911 17.1024 71.5807 16.4473C70.8703 15.7717 70.001 15.4339 68.9728 15.4339C68.0008 15.4339 67.1782 15.7615 66.5052 16.4166C65.8509 17.0512 65.449 17.9417 65.2995 19.0881H72.6743Z" fill="white"/>
<path d="M83.8119 14.8198C84.3166 13.919 84.9709 13.2127 85.7748 12.7009C86.5973 12.1891 87.532 11.9332 88.5789 11.9332V16.4473H87.5414C86.3076 16.4473 85.3728 16.7646 84.7372 17.3992C84.1203 18.0338 83.8119 19.1393 83.8119 20.7156V29.1909H79.8861V12.1789H83.8119V14.8198Z" fill="white"/>
<path d="M105.945 20.3164C105.945 20.9306 105.907 21.4833 105.833 21.9746H94.4759C94.5693 23.2029 94.9619 24.1651 95.6536 24.8611C96.3453 25.5572 97.1958 25.9052 98.2053 25.9052C99.6635 25.9052 100.701 25.2194 101.318 23.8478H105.552C105.103 25.4855 104.244 26.8367 102.972 27.9012C101.701 28.9453 100.14 29.4673 98.2895 29.4673C96.7939 29.4673 95.4479 29.109 94.2515 28.3925C93.0738 27.6555 92.1484 26.6217 91.4754 25.2911C90.8212 23.9604 90.494 22.425 90.494 20.6849C90.494 18.9243 90.8212 17.3787 91.4754 16.0481C92.1297 14.7174 93.0458 13.6938 94.2235 12.9773C95.4012 12.2608 96.7565 11.9025 98.2895 11.9025C99.7663 11.9025 101.084 12.2506 102.243 12.9466C103.421 13.6426 104.328 14.6355 104.963 15.9252C105.618 17.1945 105.945 18.6582 105.945 20.3164ZM101.879 19.0881C101.86 17.9826 101.495 17.1024 100.785 16.4473C100.075 15.7717 99.2055 15.4339 98.1773 15.4339C97.2052 15.4339 96.3827 15.7615 95.7097 16.4166C95.0554 17.0512 94.6534 17.9417 94.5039 19.0881H101.879Z" fill="white"/>
<path d="M118.288 29.1909L113.016 21.9439V29.1909H109.091V6.46729H113.016V19.3952L118.232 12.1789H123.335L116.493 20.7156L123.392 29.1909H118.288Z" fill="white"/>
<path d="M140.188 20.3164C140.188 20.9306 140.15 21.4833 140.076 21.9746H128.719C128.812 23.2029 129.205 24.1651 129.897 24.8611C130.588 25.5572 131.439 25.9052 132.448 25.9052C133.907 25.9052 134.944 25.2194 135.561 23.8478H139.795C139.347 25.4855 138.487 26.8367 137.215 27.9012C135.944 28.9453 134.383 29.4673 132.533 29.4673C131.037 29.4673 129.691 29.109 128.495 28.3925C127.317 27.6555 126.392 26.6217 125.719 25.2911C125.064 23.9604 124.737 22.425 124.737 20.6849C124.737 18.9243 125.064 17.3787 125.719 16.0481C126.373 14.7174 127.289 13.6938 128.467 12.9773C129.644 12.2608 131 11.9025 132.533 11.9025C134.009 11.9025 135.327 12.2506 136.486 12.9466C137.664 13.6426 138.571 14.6355 139.206 15.9252C139.861 17.1945 140.188 18.6582 140.188 20.3164ZM136.122 19.0881C136.103 17.9826 135.739 17.1024 135.028 16.4473C134.318 15.7717 133.449 15.4339 132.42 15.4339C131.448 15.4339 130.626 15.7615 129.953 16.4166C129.298 17.0512 128.897 17.9417 128.747 19.0881H136.122Z" fill="white"/>
<path d="M161.4 18.1976C162.503 18.4228 163.41 19.0267 164.12 20.0093C164.83 20.992 165.186 22.1179 165.186 23.3872C165.186 24.5336 164.924 25.5469 164.4 26.4272C163.896 27.287 163.157 27.9626 162.185 28.4539C161.213 28.9453 160.063 29.1909 158.736 29.1909H150.296V7.757H158.372C159.699 7.757 160.839 7.99243 161.793 8.46328C162.765 8.93413 163.494 9.58923 163.98 10.4286C164.485 11.2679 164.737 12.2198 164.737 13.2844C164.737 14.5332 164.428 15.5772 163.812 16.4166C163.213 17.2559 162.41 17.8496 161.4 18.1976ZM154.221 16.6008H157.811C158.745 16.6008 159.465 16.3756 159.97 15.9252C160.475 15.4544 160.727 14.789 160.727 13.9292C160.727 13.0694 160.475 12.4041 159.97 11.9332C159.465 11.4624 158.745 11.227 157.811 11.227H154.221V16.6008ZM158.175 25.6902C159.129 25.6902 159.867 25.4446 160.391 24.9533C160.933 24.4619 161.204 23.7659 161.204 22.8651C161.204 21.9439 160.923 21.2274 160.363 20.7156C159.802 20.1834 159.045 19.9172 158.091 19.9172H154.221V25.6902H158.175Z" fill="white"/>
<path d="M167.585 20.6235C167.585 18.9039 167.894 17.3787 168.511 16.0481C169.146 14.7174 169.997 13.6938 171.062 12.9773C172.147 12.2608 173.352 11.9025 174.68 11.9025C175.839 11.9025 176.848 12.1584 177.708 12.6702C178.587 13.182 179.288 13.8269 179.811 14.6048V12.1789H183.765V29.1909H179.811V26.7036C179.307 27.502 178.605 28.1673 177.708 28.6996C176.83 29.2114 175.811 29.4673 174.652 29.4673C173.343 29.4673 172.147 29.0988 171.062 28.3618C169.997 27.6248 169.146 26.591 168.511 25.2603C167.894 23.9092 167.585 22.3636 167.585 20.6235ZM179.811 20.6849C179.811 19.6409 179.624 18.7503 179.25 18.0133C178.877 17.2559 178.372 16.6827 177.736 16.2937C177.101 15.8843 176.418 15.6796 175.689 15.6796C174.96 15.6796 174.287 15.874 173.67 16.263C173.053 16.652 172.549 17.2252 172.156 17.9826C171.782 18.7196 171.595 19.5999 171.595 20.6235C171.595 21.6471 171.782 22.5478 172.156 23.3258C172.549 24.0832 173.053 24.6667 173.67 25.0761C174.306 25.4855 174.979 25.6902 175.689 25.6902C176.418 25.6902 177.101 25.4958 177.736 25.1068C178.372 24.6974 178.877 24.1242 179.25 23.3872C179.624 22.6297 179.811 21.729 179.811 20.6849Z" fill="white"/>
<path d="M196.488 11.9332C198.339 11.9332 199.835 12.5781 200.975 13.8678C202.115 15.1371 202.685 16.9181 202.685 19.2109V29.1909H198.76V19.7944C198.76 18.4433 198.451 17.4094 197.834 16.6929C197.217 15.9559 196.376 15.5874 195.311 15.5874C194.226 15.5874 193.366 15.9559 192.731 16.6929C192.114 17.4094 191.805 18.4433 191.805 19.7944V29.1909H187.88V12.1789H191.805V14.2977C192.329 13.5607 192.993 12.9875 193.796 12.5781C194.619 12.1482 195.516 11.9332 196.488 11.9332Z" fill="white"/>
<path d="M215.897 29.1909L210.625 21.9439V29.1909H206.699V6.46729H210.625V19.3952L215.84 12.1789H220.944L214.102 20.7156L221 29.1909H215.897Z" fill="white"/>
</svg>
