<svg width="221" height="34" viewBox="0 0 221 34" fill="none" xmlns="http://www.w3.org/2000/svg">
<path d="M98.8336 10.1833L103.446 6.7666H88.0043V27.2334H103.446V23.8167H92.4162V18.5911H101.842V15.1744H92.4162V10.1833H98.8336Z" fill="white"/>
<path d="M76.3404 14.7389H70.9925V10.1833H79.549L84.1616 6.7666H66.5806V27.2334H75.7721C80.9194 27.2334 83.8942 24.8886 83.8942 20.8019C83.8942 16.8828 81.2203 14.7389 76.3404 14.7389ZM75.605 23.8167H70.9925V18.1557H75.605C78.4126 18.1557 79.7162 19.0936 79.7162 21.0029C79.7162 22.9123 78.3124 23.8167 75.605 23.8167Z" fill="white"/>
<path d="M115.948 6.7666H107.559V27.2334H111.971V21.4384H115.982C121.33 21.4384 124.672 18.6246 124.672 14.1025C124.672 9.58036 121.33 6.7666 115.948 6.7666ZM115.848 18.0217H111.938V10.1833H115.848C118.689 10.1833 120.227 11.5902 120.227 14.1025C120.227 16.6148 118.689 18.0217 115.848 18.0217Z" fill="white"/>
<path d="M59.0273 22.8112C57.8575 23.4476 56.554 23.7826 55.217 23.7826C51.2396 23.7826 48.3651 20.9353 48.3651 17.0162C48.3651 13.097 51.2396 10.2497 55.217 10.2497C56.6542 10.2162 58.058 10.6852 59.2279 11.5226L62.4032 9.17782L62.2026 8.97684C60.3643 7.33548 57.8909 6.49805 55.0833 6.49805C52.0417 6.49805 49.2676 7.53646 47.2621 9.4123C45.2567 11.3551 44.1203 14.0684 44.1871 16.8822C44.1537 19.7294 45.2567 22.4762 47.2621 24.486C49.3678 26.4624 52.1754 27.5678 55.0499 27.5008C58.2252 27.5008 60.9994 26.3954 62.8711 24.3856L60.0301 22.2752L59.0273 22.8112Z" fill="white"/>
<path d="M177.717 6.8001V27.2669H182.129V18.8926H191.521V27.2669H195.933V6.8001H191.521V15.2079H182.129V6.8001H177.717ZM170.129 27.2669H174.775L166.152 6.8001H161.673L152.883 27.2669H157.328L159.1 23.1467H168.458L170.129 27.2669ZM160.437 19.73L163.846 11.5232L167.054 19.73H160.437ZM205.826 18.9931H208.567L215.319 27.2334H221.001L211.976 16.6483L219.864 6.7666H214.817L208.266 15.5429H205.826V6.7666H201.414V27.2334H205.826V18.9931ZM138.31 14.7724V10.2168H149.841V6.8001H133.898V27.2669H143.09C148.237 27.2669 151.212 24.9221 151.212 20.8354C151.212 16.9163 148.538 14.7724 143.658 14.7724H138.31ZM138.31 23.8502V18.1891H142.922C145.73 18.1891 147.034 19.1271 147.034 21.0364C147.034 22.9458 145.663 23.8837 142.922 23.8837H138.31V23.8502Z" fill="white"/>
<path d="M30.3819 6.63184C31.184 7.67025 31.8525 8.80916 32.4207 10.0151L16.9789 21.4376L10.4946 17.3509V12.4604L16.9454 16.5135L30.3819 6.63184Z" fill="white"/>
<path d="M3.9106 17.0164C3.9106 16.782 3.9106 16.581 3.94402 16.3465L0.0334234 16.1455C0.0334234 16.4135 0 16.715 0 16.9829C0 21.6725 1.90516 25.9267 4.98016 29.0084L7.75435 26.2282C5.38125 23.8834 3.9106 20.6341 3.9106 17.0164Z" fill="white"/>
<path d="M16.9451 3.95238C17.1791 3.95238 17.3797 3.95238 17.6136 3.98587L17.8142 0.0666998C17.5468 0.0666998 17.246 0.0332031 16.9786 0.0332031C12.2992 0.0332031 8.05437 1.94254 4.97937 5.02429L7.75356 7.80455C10.0932 5.42625 13.3688 3.95238 16.9451 3.95238Z" fill="white"/>
<path d="M16.9451 30.0797C16.7111 30.0797 16.5106 30.0797 16.2766 30.0462L16.076 33.9654C16.3434 33.9654 16.6443 33.9989 16.9116 33.9989C21.591 33.9989 25.8358 32.0896 28.9108 29.0078L26.1367 26.2275C23.797 28.6393 20.5549 30.0797 16.9451 30.0797Z" fill="white"/>
<path d="M24.2986 6.23048L27.6075 3.78518C24.6997 1.44038 20.9896 0 16.9453 0V3.91918C19.6861 3.95267 22.2263 4.7901 24.2986 6.23048Z" fill="white"/>
<path d="M33.9257 17.017C33.9257 15.9786 33.8254 14.9737 33.6583 13.9688L30.0151 16.682C30.0151 16.7825 30.0151 16.9165 30.0151 17.017C30.0151 20.8692 28.3439 24.3194 25.7034 26.6977L28.3439 29.6119C31.7531 26.5302 33.9257 22.0081 33.9257 17.017Z" fill="white"/>
<path d="M16.9445 30.0809C13.1007 30.0809 9.65806 28.406 7.28496 25.7598L4.37708 28.406C7.4855 31.8563 11.9643 34.0001 16.9445 34.0001V30.0809Z" fill="white"/>
<path d="M8.22229 7.33613L5.5818 4.42188C2.13913 7.53712 0 12.0257 0 17.0168H3.9106C3.9106 13.1981 5.5818 9.71443 8.22229 7.33613Z" fill="white"/>
</svg>
