<svg width="36" height="36" viewBox="0 0 36 36" fill="none" xmlns="http://www.w3.org/2000/svg">
    <mask id="mask0" mask-type="alpha" maskUnits="userSpaceOnUse" x="5" y="5" width="26" height="26">
        <path d="M15.2555 5H20.7445C24.3105 5 25.6037 5.3713 26.9074 6.06853C28.2111 6.76576 29.2342 7.78891 29.9315 9.09262C30.6287 10.3963 31 11.6895 31 15.2555V20.7445C31 24.3105 30.6287 25.6037 29.9315 26.9074C29.2342 28.2111 28.2111 29.2342 26.9074 29.9315C25.6037 30.6287 24.3105 31 20.7445 31H15.2555C11.6895 31 10.3963 30.6287 9.09262 29.9315C7.78891 29.2342 6.76576 28.2111 6.06853 26.9074C5.3713 25.6037 5 24.3105 5 20.7445V15.2555C5 11.6895 5.3713 10.3963 6.06853 9.09262C6.76576 7.78891 7.78891 6.76576 9.09262 6.06853C10.3963 5.3713 11.6895 5 15.2555 5Z" fill="white"/>
    </mask>
    <g mask="url(#mask0)">
        <path d="M15.2555 5H20.7445C24.3105 5 25.6037 5.3713 26.9074 6.06853C28.2111 6.76576 29.2342 7.78891 29.9315 9.09262C30.6287 10.3963 31 11.6895 31 15.2555V20.7445C31 24.3105 30.6287 25.6037 29.9315 26.9074C29.2342 28.2111 28.2111 29.2342 26.9074 29.9315C25.6037 30.6287 24.3105 31 20.7445 31H15.2555C11.6895 31 10.3963 30.6287 9.09262 29.9315C7.78891 29.2342 6.76576 28.2111 6.06853 26.9074C5.3713 25.6037 5 24.3105 5 20.7445V15.2555C5 11.6895 5.3713 10.3963 6.06853 9.09262C6.76576 7.78891 7.78891 6.76576 9.09262 6.06853C10.3963 5.3713 11.6895 5 15.2555 5Z" fill="#BEBDD0"/>
        <mask id="mask1" mask-type="alpha" maskUnits="userSpaceOnUse" x="14" y="12" width="8" height="4">
            <rect x="14" y="12" width="8" height="4" fill="white"/>
        </mask>
        <g mask="url(#mask1)">
            <rect x="15.5" y="13" width="5" height="7" rx="2" stroke="#485460" stroke-width="2"/>
        </g>
        <rect x="13" y="17" width="10" height="7" rx="2" fill="#485460"/>
    </g>
</svg>
