<svg width="36" height="36" viewBox="0 0 36 36" fill="none" xmlns="http://www.w3.org/2000/svg">
    <mask id="mask0" mask-type="alpha" maskUnits="userSpaceOnUse" x="5" y="5" width="26" height="26">
        <path d="M15.2555 5H20.7445C24.3105 5 25.6037 5.3713 26.9074 6.06853C28.2111 6.76576 29.2342 7.78891 29.9315 9.09262C30.6287 10.3963 31 11.6895 31 15.2555V20.7445C31 24.3105 30.6287 25.6037 29.9315 26.9074C29.2342 28.2111 28.2111 29.2342 26.9074 29.9315C25.6037 30.6287 24.3105 31 20.7445 31H15.2555C11.6895 31 10.3963 30.6287 9.09262 29.9315C7.78891 29.2342 6.76576 28.2111 6.06853 26.9074C5.3713 25.6037 5 24.3105 5 20.7445V15.2555C5 11.6895 5.3713 10.3963 6.06853 9.09262C6.76576 7.78891 7.78891 6.76576 9.09262 6.06853C10.3963 5.3713 11.6895 5 15.2555 5Z" fill="white"/>
    </mask>
    <g mask="url(#mask0)">
        <path d="M15.2555 5H20.7445C24.3105 5 25.6037 5.3713 26.9074 6.06853C28.2111 6.76576 29.2342 7.78891 29.9315 9.09262C30.6287 10.3963 31 11.6895 31 15.2555V20.7445C31 24.3105 30.6287 25.6037 29.9315 26.9074C29.2342 28.2111 28.2111 29.2342 26.9074 29.9315C25.6037 30.6287 24.3105 31 20.7445 31H15.2555C11.6895 31 10.3963 30.6287 9.09262 29.9315C7.78891 29.2342 6.76576 28.2111 6.06853 26.9074C5.3713 25.6037 5 24.3105 5 20.7445V15.2555C5 11.6895 5.3713 10.3963 6.06853 9.09262C6.76576 7.78891 7.78891 6.76576 9.09262 6.06853C10.3963 5.3713 11.6895 5 15.2555 5Z" fill="#34A9E2"/>
        <path fill-rule="evenodd" clip-rule="evenodd" d="M17.9963 24.3999C18.2161 24.3999 18.3625 24.2607 18.3625 24.019V23.1255C20.4719 23.001 21.988 21.8804 21.988 20.0273C21.988 18.4233 20.9407 17.6177 18.9338 17.1636L18.3625 17.0391V14.4609C19.0657 14.5562 19.5271 14.915 19.8127 15.5156C20.0471 15.9404 20.3621 16.1528 20.8162 16.1528C21.3728 16.1528 21.739 15.8379 21.739 15.3545C21.739 15.2007 21.7097 15.0542 21.6658 14.9077C21.3142 13.7798 20.1057 12.9229 18.3625 12.8057V11.8901C18.3625 11.6484 18.2161 11.5093 17.9963 11.5093C17.7766 11.5093 17.6301 11.6484 17.6301 11.8901V12.8057C15.5867 12.9082 14.1218 14.0508 14.1218 15.8159C14.1218 17.3979 15.1692 18.2549 17.0881 18.687L17.6301 18.8115V21.4775C16.7073 21.397 16.2458 20.9795 16.0115 20.4082C15.8064 19.9834 15.4988 19.749 15.0447 19.749C14.4441 19.749 14.0852 20.1079 14.0852 20.6353C14.0852 20.7744 14.1145 20.9282 14.1731 21.0967C14.532 22.166 15.7478 23.0376 17.6301 23.1255V24.019C17.6301 24.2607 17.7766 24.3999 17.9963 24.3999ZM17.6301 16.8706C16.6047 16.6069 16.1726 16.2188 16.1726 15.6255C16.1726 15.0322 16.6707 14.5415 17.6301 14.4536V16.8706ZM18.3625 18.98V21.4775C19.4172 21.397 19.9446 20.9282 19.9446 20.2544C19.9446 19.6025 19.5344 19.2729 18.3625 18.98Z" fill="white"/>
    </g>
</svg>
