<svg width="36" height="36" viewBox="0 0 36 36" fill="none" xmlns="http://www.w3.org/2000/svg">
    <mask id="mask0" mask-type="alpha" maskUnits="userSpaceOnUse" x="5" y="5" width="26" height="26">
        <path d="M15.2555 5H20.7445C24.3105 5 25.6037 5.3713 26.9074 6.06853C28.2111 6.76576 29.2342 7.78891 29.9315 9.09262C30.6287 10.3963 31 11.6895 31 15.2555V20.7445C31 24.3105 30.6287 25.6037 29.9315 26.9074C29.2342 28.2111 28.2111 29.2342 26.9074 29.9315C25.6037 30.6287 24.3105 31 20.7445 31H15.2555C11.6895 31 10.3963 30.6287 9.09262 29.9315C7.78891 29.2342 6.76576 28.2111 6.06853 26.9074C5.3713 25.6037 5 24.3105 5 20.7445V15.2555C5 11.6895 5.3713 10.3963 6.06853 9.09262C6.76576 7.78891 7.78891 6.76576 9.09262 6.06853C10.3963 5.3713 11.6895 5 15.2555 5Z" fill="white"/>
    </mask>
    <g mask="url(#mask0)">
        <path d="M15.2555 5H20.7445C24.3105 5 25.6037 5.3713 26.9074 6.06853C28.2111 6.76576 29.2342 7.78891 29.9315 9.09262C30.6287 10.3963 31 11.6895 31 15.2555V20.7445C31 24.3105 30.6287 25.6037 29.9315 26.9074C29.2342 28.2111 28.2111 29.2342 26.9074 29.9315C25.6037 30.6287 24.3105 31 20.7445 31H15.2555C11.6895 31 10.3963 30.6287 9.09262 29.9315C7.78891 29.2342 6.76576 28.2111 6.06853 26.9074C5.3713 25.6037 5 24.3105 5 20.7445V15.2555C5 11.6895 5.3713 10.3963 6.06853 9.09262C6.76576 7.78891 7.78891 6.76576 9.09262 6.06853C10.3963 5.3713 11.6895 5 15.2555 5Z" fill="#34A9E2"/>
        <path d="M18.3835 23.2354C20.2292 23.2354 21.8699 22.4517 22.4851 20.9868C22.573 20.7817 22.6096 20.5767 22.6096 20.3862C22.6096 19.8589 22.2288 19.522 21.6208 19.522C21.1741 19.522 20.9324 19.7271 20.6687 20.1812C20.1926 21.126 19.3503 21.4556 18.3762 21.4556C17.0725 21.4556 16.1497 20.6572 15.8054 19.2949H19.1672C19.3943 19.2949 19.5408 19.1411 19.5408 18.9287C19.5408 18.7017 19.3943 18.5625 19.1672 18.5625H15.6736C15.6589 18.3721 15.6516 18.167 15.6443 17.9546C15.6516 17.7715 15.6589 17.5884 15.6736 17.4126H19.1672C19.3943 17.4126 19.5408 17.2588 19.5408 17.0464C19.5408 16.8193 19.3943 16.6802 19.1672 16.6802H15.7908C16.135 15.2959 17.0579 14.4756 18.3689 14.4756C19.3284 14.4756 20.156 14.8784 20.6467 15.8086C20.9177 16.2627 21.1814 16.4678 21.6428 16.4678C22.2141 16.4678 22.5876 16.1309 22.5876 15.6182C22.5876 15.3838 22.5217 15.1348 22.3826 14.8931C21.6868 13.4941 20.2585 12.6885 18.325 12.6885C15.8787 12.6885 14.0623 14.168 13.6082 16.6802H12.7805C12.5535 16.6802 12.407 16.8193 12.407 17.0464C12.407 17.2588 12.5535 17.4126 12.7805 17.4126H13.5203C13.5056 17.5884 13.4983 17.7715 13.4983 17.9619C13.4983 18.167 13.5056 18.3647 13.5203 18.5625H12.7805C12.5535 18.5625 12.407 18.7017 12.407 18.9287C12.407 19.1411 12.5535 19.2949 12.7805 19.2949H13.6155C14.0769 21.7852 15.8787 23.2354 18.3835 23.2354Z" fill="white"/>
    </g>
</svg>
