<svg width="36" height="36" viewBox="0 0 36 36" fill="none" xmlns="http://www.w3.org/2000/svg">
<g clip-path="url(#clip0_3270_68)">
<rect width="36" height="36" rx="18" fill="white"/>
<path fill-rule="evenodd" clip-rule="evenodd" d="M18 36C27.9411 36 36 27.9411 36 18C36 8.05887 27.9411 0 18 0C8.05887 0 0 8.05887 0 18C0 27.9411 8.05887 36 18 36ZM9 21C9 21.552 9.447 22 10 22H26C26.553 22 27 21.552 27 21V12.585C27 11.672 25.875 11.237 25.26 11.913L22.5 14.947L18.74 10.813C18.343 10.377 17.657 10.377 17.26 10.813L13.5 14.947L10.74 11.913C10.125 11.237 9 11.672 9 12.585V21ZM9 25C9 25.552 9.447 26 10 26H26C26.553 26 27 25.552 27 25C27 24.448 26.553 24 26 24H10C9.447 24 9 24.448 9 25Z" fill="#43B741"/>
</g>
<defs>
<clipPath id="clip0_3270_68">
<rect width="36" height="36" rx="18" fill="white"/>
</clipPath>
</defs>
</svg>
