<svg width="36" height="36" viewBox="0 0 36 36" fill="none" xmlns="http://www.w3.org/2000/svg">
<g clip-path="url(#clip0_35835_843)">
<path fill-rule="evenodd" clip-rule="evenodd" d="M14.1377 6.69059L12.6149 8.21347L8.04626 12.7821L6.52338 14.305C6.10285 14.7255 6.10285 15.4073 6.52338 15.8278C6.63521 15.9396 6.76551 16.0217 6.90446 16.0741C7.54245 16.3145 8.43706 16.2186 8.91914 16.7007L9.56913 17.3507L13.7762 21.5577C14.0077 21.7893 14.1377 22.1032 14.1377 22.4306L14.1377 25.4111C14.1377 26.3704 15.2976 26.8509 15.976 26.1725L26.0053 16.1432C26.6837 15.4649 26.2032 14.305 25.2439 14.305L22.2634 14.305C21.936 14.305 21.622 14.1749 21.3905 13.9434L17.1835 9.73634L16.5335 9.08635C16.0514 8.60427 16.1473 7.70966 15.9069 7.07167C15.8545 6.93272 15.7724 6.80242 15.6606 6.69059C15.2401 6.27006 14.5583 6.27006 14.1377 6.69059ZM5.00051 17.3507C5.53675 17.8869 6.2146 18.1952 6.91368 18.2756C7.26251 18.3157 7.6065 18.4338 7.85479 18.6821L11.6225 22.4498C11.854 22.6813 11.9841 22.9953 11.9841 23.3227L11.9841 25.4111C11.9841 28.2892 15.4638 29.7305 17.4989 27.6954L27.5282 17.6661C29.5633 15.631 28.1219 12.1513 25.2439 12.1513H23.1555C22.8281 12.1513 22.5141 12.0212 22.2826 11.7897L18.5149 8.022C18.2666 7.77371 18.1485 7.42972 18.1084 7.08089C18.028 6.38181 17.7197 5.70396 17.1835 5.16772C15.9219 3.90614 13.8765 3.90613 12.6149 5.16772L5.00051 12.7821C3.73892 14.0437 3.73892 16.0891 5.00051 17.3507ZM24.0363 24.2036C24.877 23.363 26.2415 23.363 27.0821 24.2036C27.6524 24.7739 29.7814 28.3009 31.0964 30.5174C31.385 31.004 30.8367 31.5522 30.3502 31.2636C28.1336 29.9486 24.6067 27.8197 24.0363 27.2493C23.1957 26.4087 23.1957 25.0442 24.0363 24.2036Z" fill="#148F2A"/>
</g>
<defs>
<clipPath id="clip0_35835_843">
<rect width="36" height="36" fill="white"/>
</clipPath>
</defs>
</svg>
