<svg width="36" height="36" viewBox="0 0 36 36" fill="none" xmlns="http://www.w3.org/2000/svg">
<g clip-path="url(#clip0_24_2163)">
<path fill-rule="evenodd" clip-rule="evenodd" d="M18 36C27.9411 36 36 27.9411 36 18C36 8.05887 27.9411 0 18 0C8.05887 0 0 8.05887 0 18C0 27.9411 8.05887 36 18 36Z" fill="#FFDC30"/>
<path fill-rule="evenodd" clip-rule="evenodd" d="M31.7839 16.2947L31.4264 17.394C31.2364 17.9646 30.6148 18.9035 29.4558 19.0006C29.5825 19.5147 29.8648 20.0911 30.4884 20.3398L31.3851 20.694L30.9008 21.5038C30.7918 21.6766 30.228 22.4711 29.0524 22.4711C28.8515 22.4707 28.657 22.4511 28.4709 22.4133C28.4228 22.6144 28.3638 22.8166 28.2942 23.0173C28.0195 23.8038 28.2559 24.3518 28.2662 24.3744L28.699 25.2497L27.7058 25.502C27.6978 25.5042 27.3959 25.5824 27.0285 25.5824C26.859 25.5824 26.697 25.5657 26.5457 25.5311C26.4303 25.5049 26.319 25.4707 26.2127 25.4289C26.084 25.6504 25.9289 25.8515 25.7484 26.0304C25.1162 26.6558 24.2179 26.9726 23.0793 26.9726L22.2643 26.9624L23.936 27.6322L22.6866 28.2155L22.686 28.2157C22.2423 28.4237 21.6738 28.6901 21.0997 28.8918L21.2601 29.3104L20.82 29.5031C20.7811 29.5202 19.9437 29.8798 18.5498 29.9595C18.5498 29.9595 18.2153 29.9755 18.0291 29.9755C17.8426 29.9755 17.5039 29.9602 17.5039 29.9602C16.1013 29.8831 15.2571 29.5202 15.2182 29.5031L14.7792 29.3111L14.9382 28.8929C14.3816 28.6976 13.8352 28.4423 13.3731 28.2265L13.3683 28.2242L12.0954 27.6326L13.772 26.9624L12.9604 26.9726H12.957C11.8199 26.9726 10.922 26.6562 10.2886 26.0315C10.1074 25.8511 9.95189 25.6497 9.824 25.4289C9.71805 25.4707 9.60718 25.5049 9.49216 25.5307C9.34081 25.5657 9.1781 25.5824 9.00859 25.5824C8.63475 25.5824 8.33621 25.5035 8.32372 25.4998L7.3354 25.2497L7.77848 24.358C7.77853 24.3579 7.77867 24.3575 7.77891 24.357C7.79024 24.3293 8.01199 23.7877 7.74291 23.0177C7.67291 22.8173 7.61351 22.6147 7.56621 22.4133C7.38043 22.4511 7.18783 22.4707 6.98805 22.4711C6.06556 22.4711 5.41702 21.9547 5.14118 21.5133L4.65194 20.6944L5.54908 20.3395C6.17113 20.0911 6.45416 19.514 6.58167 18.9998C5.40756 18.8987 4.79459 17.9606 4.6107 17.394L4.24594 16.2947L5.44994 16.3315C5.53772 16.3307 6.26345 16.3107 6.96648 15.8198C6.95252 15.8211 6.93863 15.8225 6.92476 15.8239C6.88564 15.8279 6.84665 15.8318 6.80643 15.8318C6.08297 15.8318 5.38032 15.4126 5.09881 14.8118L4.59291 13.7275C5.34097 13.7406 5.82454 13.6573 5.82454 13.6573C5.82438 13.6573 5.8249 13.6572 5.82609 13.657C5.85574 13.6521 6.29788 13.5783 6.80718 13.0787C7.18897 12.7046 7.66081 12.5067 8.17162 12.5067C8.39524 12.5067 8.59502 12.5453 8.76643 12.598C8.73994 12.5104 8.71497 12.4217 8.69983 12.33C8.55189 11.4151 9.096 10.6875 9.20648 10.55L10.1097 9.48529L10.6617 10.7358C10.6617 10.7358 10.662 10.7364 10.6626 10.7375C10.6746 10.7611 10.8116 11.029 11.0477 11.1638C11.123 10.798 11.3084 10.3867 11.7034 9.99402C12.4458 9.25438 13.3512 9.14383 13.8246 9.14383C14.0452 9.14383 14.2011 9.16674 14.2525 9.17474L14.2877 9.1802L15.3116 9.37402C15.2507 9.1442 15.119 8.74347 14.8776 8.38274L14.2843 7.49511L15.7744 7.65874L16.2481 6.68965L17.1698 7.14529L18.0174 6.33838L18.8672 7.14529L19.7867 6.68965L20.2616 7.65874L21.752 7.49583L21.1595 8.38238C20.9188 8.74347 20.7868 9.14529 20.7247 9.37547L21.7978 9.17292C21.8356 9.16674 21.9926 9.14383 22.2121 9.14383C22.6858 9.14383 23.5913 9.25438 24.3356 9.99474C24.7298 10.3871 24.9149 10.798 24.9898 11.1638C25.2384 11.0217 25.378 10.73 25.3799 10.726L25.9312 9.48274L26.8208 10.5413C26.8208 10.5406 27.4999 11.314 27.3376 12.3293C27.3225 12.4209 27.2975 12.5104 27.2703 12.598C27.4424 12.5457 27.6422 12.5067 27.8662 12.5067C28.377 12.5067 28.8485 12.7046 29.2295 13.0787C29.7535 13.5927 30.2076 13.6559 30.2249 13.6583L30.2254 13.6584C30.2254 13.6584 30.8085 13.7358 31.4464 13.7275L30.9383 14.8118C30.6571 15.4126 29.9552 15.8318 29.2303 15.8318C29.1902 15.8318 29.1512 15.8279 29.1122 15.8239C29.0985 15.8225 29.0847 15.8211 29.071 15.8198C29.7755 16.3107 30.5016 16.3307 30.6015 16.3307L31.7839 16.2947ZM15.3771 9.75656L15.3892 9.75402L15.3873 9.74383L15.3771 9.75656Z" fill="white"/>
<path d="M18.0174 9.70508C17.0677 9.70617 16.3556 10.0051 16.2008 10.3571L18.0174 11.0465L19.8348 10.3571C19.6811 10.0051 18.9686 9.70617 18.0174 9.70508Z" fill="white"/>
<path d="M18.0367 27.9462H18C17.4249 27.9502 16.6314 27.8368 16.2504 27.7295L15.7906 28.924C16.0934 29.0277 17.1199 29.2266 18.0193 29.2266C18.9168 29.2266 19.9434 29.0277 20.2457 28.924L19.7871 27.7295C19.4042 27.8368 18.6118 27.9502 18.0367 27.9462Z" fill="white"/>
<path d="M21.5132 26.7578C21.1712 26.9433 20.4076 27.2229 19.9638 27.3527L20.3365 28.3396C21.0236 28.1589 21.5908 27.9484 22.0585 27.7225L21.2851 27.4756L21.5132 26.7578Z" fill="white"/>
<path d="M14.5235 26.7578L14.7524 27.4756L13.9782 27.7225C14.4455 27.9484 15.015 28.1589 15.6995 28.3396L16.0729 27.3527C15.6298 27.2229 14.8651 26.9433 14.5235 26.7578Z" fill="white"/>
<path d="M18.0174 8.56266C18.7337 8.56266 19.4356 8.72739 19.9755 9.01648C20.0251 8.85757 20.0943 8.66448 20.1878 8.46194L19.9831 8.48557L19.7693 8.50703L19.6785 8.31939L19.4053 7.76521L18.9073 8.0143L18.7136 8.10921L18.5589 7.96266L18.0174 7.44775L17.4775 7.96266L17.3231 8.10921L17.1293 8.0143L16.6287 7.76521L16.3593 8.31939L16.267 8.50703L16.0529 8.48557L15.8493 8.46194C15.9427 8.66448 16.0112 8.85757 16.0612 9.01648C16.6034 8.72739 17.3045 8.56266 18.0174 8.56266Z" fill="white"/>
<path d="M28.9491 14.9702C29.0418 15.0011 29.1364 15.0145 29.2303 15.0145C29.6355 15.0145 30.0267 14.7629 30.1611 14.4753C30.1611 14.4753 29.4191 14.432 28.6199 13.6527C28.3657 13.4003 28.0966 13.3247 27.8658 13.3247C27.5075 13.3247 27.2381 13.5065 27.2381 13.5065C28.203 14 28.3997 14.792 28.9491 14.9702Z" fill="white"/>
<path d="M6.80604 15.0145C6.89988 15.0145 6.99448 15.0011 7.08529 14.9702C7.63583 14.7916 7.83448 14 8.7982 13.5065C8.7982 13.5065 8.52842 13.3247 8.17161 13.3247C7.93966 13.3247 7.67064 13.4003 7.41561 13.6527C6.61761 14.432 5.87561 14.4753 5.87561 14.4753C6.00918 14.7629 6.40118 15.0145 6.80604 15.0145Z" fill="white"/>
<path fill-rule="evenodd" clip-rule="evenodd" d="M29.2583 18.1893C29.2412 18.1893 29.2272 18.1893 29.2102 18.1882C28.7463 18.1722 28.5079 18.0013 28.5079 18.0013C28.5079 18.0013 28.3271 20.3631 30.1611 21.0948C30.1611 21.0948 29.8277 21.6522 29.0626 21.6522H29.0532C28.1341 21.6475 27.7637 21.1089 27.7637 21.1089C27.7637 21.1089 27.817 21.8097 27.4863 22.7555C27.0875 23.8951 27.4897 24.7097 27.4897 24.7097C27.4897 24.7097 27.2748 24.7653 27.0277 24.7653C26.9335 24.7653 26.8344 24.7562 26.7417 24.7329C25.9743 24.558 25.7829 23.8864 25.7829 23.8864C25.7829 23.8864 25.8532 26.154 23.102 26.154H23.0809C23.0809 26.154 23.3234 25.8373 23.3945 24.9253C23.5255 23.2428 24.7109 23.0115 24.7109 23.0115C24.7109 23.0115 24.0779 22.9351 23.8036 22.6991C23.3752 22.3257 23.4055 21.894 23.4055 21.894C24.3734 21.8813 25.0076 21.5646 25.4911 21.0275C26.0144 20.4457 26.1003 19.8188 26.1003 19.8188C26.1003 19.8188 25.5797 20.2722 24.5732 20.2722C24.485 20.2722 24.39 20.2682 24.2932 20.2591C23.8168 20.222 23.4876 19.9311 23.4876 19.9311C24.5357 19.2849 25.2705 18.1588 24.6186 16.4624C24.0964 15.1024 22.8421 14.0871 21.5783 13.3224C21.1579 13.07 20.9237 12.7893 20.9237 12.5482C20.9237 12.1999 21.2396 12.0582 21.5634 11.913C21.768 11.8212 21.9758 11.7279 22.1092 11.5802C22.5072 11.1362 22.2579 10.4173 21.9128 9.98385C21.9128 9.98385 22.029 9.96094 22.2121 9.96094C22.5757 9.96094 23.205 10.0489 23.7222 10.5642C24.409 11.2471 24.1244 11.9911 24.1244 11.9911L24.3083 12.0253C24.4091 12.046 24.5099 12.0511 24.6133 12.0563C24.6225 12.0567 24.6317 12.0572 24.6409 12.0577C24.6535 12.0577 24.6663 12.0579 24.6789 12.0582C24.6911 12.0585 24.7033 12.0588 24.7151 12.0588C25.7129 12.0588 26.159 11.0562 26.159 11.0562C26.159 11.0562 27.2196 12.31 25.6576 13.2929C25.389 13.4609 25.2705 13.6169 25.3016 13.7828L25.3258 13.8918L25.4374 13.9108C26.5197 14.1929 27.0912 14.892 27.751 15.699C27.7808 15.7355 27.8109 15.7723 27.8412 15.8093C28.9037 17.1068 30.4063 17.1489 30.5917 17.1489H30.6117C30.6117 17.1489 30.2689 18.1893 29.2583 18.1893ZM27.3266 19.0257C27.4402 19.3635 27.9116 20.302 28.6582 20.6558C28.6582 20.6558 27.7194 20.1126 27.2979 17.9944V18.0111C27.0198 15.854 25.3905 14.2966 23.5769 13.3504C23.4097 13.2635 23.2542 13.1904 23.1047 13.1206C23.656 13.2031 24.5452 13.2129 25.2319 12.6406C25.2319 12.6406 24.1816 13.3831 22.0312 12.7086C22.2041 12.8164 22.4243 12.9372 22.6758 13.0751C23.2897 13.4117 24.0897 13.8503 24.8392 14.4522C27.4795 16.682 25.591 18.8569 25.591 18.8569C26.5392 17.9049 26.5793 16.8857 26.2997 16.0533C26.7992 16.8526 27.1189 17.8224 27.069 19.0188C26.9963 20.7326 26.0159 22.2148 24.9849 23.4053C24.4892 23.9831 24.3787 24.6933 24.3787 24.6933C24.3787 24.6933 24.5785 24.0668 25.1521 23.422C26.2573 22.1784 27.2025 20.8868 27.3266 19.0257Z" fill="white"/>
<path fill-rule="evenodd" clip-rule="evenodd" d="M12.2339 22.6992C11.9592 22.9352 11.3258 23.0116 11.3258 23.0116C11.3258 23.0116 12.5124 23.2429 12.6429 24.9254C12.7137 25.8374 12.9543 26.1542 12.9543 26.1542H12.9346C10.1827 26.1542 10.2531 23.8865 10.2531 23.8865C10.2531 23.8865 10.0612 24.5578 9.29426 24.7331C9.20269 24.7563 9.10469 24.7654 9.00858 24.7654C8.76188 24.7654 8.5481 24.7098 8.5481 24.7098C8.5481 24.7098 8.94842 23.8952 8.54961 22.7552C8.21967 21.8098 8.27302 21.1091 8.27302 21.1091C8.27302 21.1091 7.90334 21.6476 6.9835 21.6527H6.97442C6.20934 21.6527 5.87561 21.0949 5.87561 21.0949C7.70886 20.3632 7.52913 18.0014 7.52913 18.0014C7.52913 18.0014 7.29075 18.1723 6.8261 18.1883C6.80907 18.1894 6.79394 18.1894 6.77767 18.1894C5.76664 18.1894 5.42383 17.1491 5.42383 17.1491H5.44426C5.63118 17.1491 7.13221 17.1069 8.19394 15.8094C8.22408 15.7727 8.254 15.7361 8.28373 15.6997C8.94403 14.8925 9.51588 14.1934 10.5974 13.9109L10.7109 13.8916L10.7351 13.7829C10.7662 13.6171 10.6481 13.4611 10.3794 13.2931C8.81788 12.3102 9.87848 11.0567 9.87848 11.0567C9.87848 11.0567 10.3219 12.0589 11.3224 12.0589C11.3343 12.0589 11.3459 12.0586 11.3578 12.0583C11.37 12.0581 11.3823 12.0578 11.3954 12.0578C11.405 12.0573 11.4146 12.0568 11.4242 12.0563C11.5267 12.0512 11.628 12.046 11.7284 12.0254L11.9123 11.9909C11.9123 11.9909 11.627 11.2472 12.3152 10.5643C12.8325 10.0491 13.4613 9.96143 13.8246 9.96143C14.0085 9.96143 14.1231 9.98397 14.1231 9.98397C13.7792 10.4174 13.5298 11.1363 13.9279 11.5803C14.0611 11.728 14.2686 11.8213 14.473 11.9131C14.7964 12.0584 15.1118 12.2001 15.1118 12.5483C15.1118 12.7894 14.878 13.0702 14.458 13.3222C13.1934 14.0872 11.9395 15.1029 11.4173 16.4625C10.7662 18.1592 11.501 19.2854 12.5502 19.9312C12.5502 19.9312 12.2206 20.2222 11.7435 20.2592C11.6463 20.2683 11.5524 20.2723 11.462 20.2723C10.457 20.2723 9.93637 19.8189 9.93637 19.8189C9.93637 19.8189 10.023 20.4458 10.5433 21.0276C11.0295 21.5647 11.6633 21.8814 12.6312 21.8942C12.6312 21.8942 12.6618 22.3258 12.2339 22.6992ZM8.70891 19.0254C8.83377 20.8869 9.77896 22.1785 10.8838 23.4222C11.4571 24.0669 11.6595 24.6934 11.6595 24.6934C11.6595 24.6934 11.5475 23.9832 11.0496 23.4058C10.02 22.2149 9.04037 20.7327 8.96848 19.0189C8.91664 17.8225 9.23675 16.8527 9.73696 16.0534C9.45772 16.8862 9.49594 17.9051 10.4457 18.8571C10.4457 18.8571 8.55642 16.6822 11.1979 14.4523C11.9466 13.8509 12.7455 13.4127 13.359 13.0761C13.6109 12.9379 13.8316 12.8169 14.0047 12.7087C11.8551 13.3832 10.8047 12.6407 10.8047 12.6407C11.4911 13.2127 12.3803 13.2032 12.9316 13.1207L12.919 13.1266C12.7737 13.1946 12.6212 13.2661 12.4598 13.3505C10.6458 14.2967 9.01691 15.8545 8.73767 18.0109V17.9945C8.31653 20.1123 7.37891 20.656 7.37891 20.656C8.12469 20.3022 8.59464 19.3636 8.70891 19.0254Z" fill="white"/>
<path fill-rule="evenodd" clip-rule="evenodd" d="M16.1157 14.8671C16.0729 14.8165 16.0286 14.766 15.9836 14.7194C15.978 14.7151 15.9737 14.7104 15.9694 14.7058C15.9661 14.7022 15.9628 14.6987 15.959 14.6954C15.7558 14.4962 15.5159 14.3463 15.2 14.2623L15.3419 14.1838H15.3483L15.9076 13.8722L16.4812 13.5562L18.0148 14.3583L18.0174 14.3551L18.0216 14.3583L19.5548 13.5562L20.1288 13.8722L20.6872 14.1838H20.6948L20.8352 14.2623C20.52 14.3463 20.279 14.498 20.0769 14.6965C20.0726 14.7002 20.0685 14.7042 20.0644 14.7083C20.0612 14.7113 20.058 14.7145 20.0546 14.7176C20.0081 14.7652 19.9623 14.8165 19.918 14.8692C19.9097 14.8791 19.9013 14.8896 19.8923 14.9012C19.8491 14.9547 19.8083 15.0096 19.7689 15.0663C19.7633 15.0749 19.7572 15.0834 19.7512 15.0916C19.7503 15.0929 19.7494 15.0942 19.7485 15.0954C19.7023 15.162 19.6581 15.2325 19.6138 15.306C19.2161 15.9642 18.5816 16.358 18.0174 16.3587C17.454 16.358 16.8191 15.9642 16.4222 15.306C16.379 15.2347 16.3351 15.1652 16.2893 15.0983C16.286 15.0938 16.2827 15.0891 16.2795 15.0845C16.2741 15.0766 16.2687 15.069 16.2632 15.0623C16.2246 15.0074 16.1849 14.954 16.1456 14.9034C16.1373 14.8923 16.1296 14.8833 16.1215 14.8739C16.1196 14.8716 16.1176 14.8694 16.1157 14.8671ZM18.6936 14.6551H17.3969V15.0831C17.5505 14.9034 17.8468 14.9402 17.8468 14.9402V15.5565C17.8468 15.5565 17.8365 15.8598 17.7242 15.9911H18.3659C18.2554 15.8598 18.2441 15.5565 18.2441 15.5565V14.9402C18.2441 14.9402 18.5415 14.9034 18.6936 15.0831V14.6551Z" fill="white"/>
<path fill-rule="evenodd" clip-rule="evenodd" d="M17.885 11.3216V13.8256L16.6639 13.2074L16.2265 10.7812L17.885 11.3216ZM17.5289 12.3394V11.9373L16.7748 11.6322C16.7748 11.6322 16.7816 11.8656 17.121 12.1191C17.3021 12.2566 17.4152 12.2931 17.4424 12.3019C17.4461 12.3031 17.4482 12.3038 17.4487 12.3042L17.5289 12.3394Z" fill="white"/>
<path fill-rule="evenodd" clip-rule="evenodd" d="M19.8083 10.7812L19.372 13.2074L18.1506 13.8256V11.3216L19.8083 10.7812ZM19.2615 11.6322L18.5074 11.9373V12.3394L18.5872 12.3042C18.5877 12.3038 18.5898 12.3032 18.5933 12.302C18.6201 12.2935 18.7333 12.2572 18.9145 12.1191C19.2551 11.8656 19.2615 11.6322 19.2615 11.6322Z" fill="white"/>
<path d="M15.5398 19.6299C15.701 19.6862 15.897 19.6979 15.9972 19.6979C16.001 19.6862 16.0067 19.6717 16.0112 19.6535C16.0203 19.6251 16.0286 19.5968 16.0347 19.5655C16.0631 19.4266 16.0729 19.2699 16.0752 19.1688C16.0075 19.1277 15.911 19.0557 15.8576 18.9477C15.7959 18.8233 15.7078 18.7651 15.5799 18.7651C15.413 18.7651 15.234 18.8615 15.1572 18.9066C15.0959 19.2531 15.3616 19.567 15.5398 19.6299Z" fill="white"/>
<path d="M19.2078 18.3022C18.9002 18.6244 18.2966 19.1844 18.2679 19.2128L18.2316 19.2481L16.3264 19.219C16.3249 19.4004 16.2943 19.5546 16.2648 19.6677C16.2598 19.6866 16.2545 19.7059 16.2492 19.7259L18.5153 20.1172C18.7511 19.959 19.4 19.5037 19.652 19.3252C19.4689 19.0681 19.4515 18.763 19.4927 18.5481C19.3724 18.4746 19.2808 18.3906 19.2078 18.3022Z" fill="white"/>
<path d="M19.4662 16.0996C19.0273 16.5182 18.6062 16.6731 18.23 16.7091C18.1616 16.7156 18.0927 16.72 18.0227 16.72H18.0132C17.9432 16.72 17.874 16.7156 17.8059 16.7091C17.74 16.7036 17.6712 16.6931 17.6023 16.6782C17.5773 16.7727 17.5463 16.9687 17.6356 17.156C17.7151 17.3247 17.877 17.4505 18.1128 17.5342L18.1922 17.564L18.1933 17.6462C18.1933 17.6705 18.2123 18.2032 18.8162 18.3512C18.9145 18.2538 19.0042 18.1654 19.0708 18.0916C18.9475 17.8123 19.0122 17.5272 19.1911 17.3876C19.1836 17.4171 19.1049 18.1163 19.6876 18.376L19.7837 18.42L19.7553 18.5182C19.7458 18.5476 19.5513 19.2243 20.2574 19.476L20.3823 19.5218L20.327 19.6382C20.3145 19.664 20.0379 20.2774 20.6899 20.6265H22.1043V19.5476C21.601 19.4887 21.3884 19.1 21.3335 18.8251C21.0993 18.7865 20.9188 18.6894 20.7943 18.5316C20.498 18.156 20.7531 17.8123 20.7565 17.7938C20.7557 17.7967 20.7565 18.1625 20.9915 18.3887C21.108 18.4974 21.2457 18.5818 21.4546 18.6011L21.5575 18.6098L21.5662 18.7109C21.5681 18.7323 21.6245 19.228 22.1043 19.3054L22.1028 17.1014C22.1028 16.76 22.2064 16.4167 22.3313 16.0996H19.4662" fill="white"/>
<path d="M15.6601 17.1099L15.6219 18.5129L15.788 18.5376L16.1936 17.1907L15.9878 16.7769L15.6601 17.1099Z" fill="white"/>
<path fill-rule="evenodd" clip-rule="evenodd" d="M20.1757 23.5526C20.162 23.5497 20.148 23.5479 20.1356 23.5479C20.0538 23.5479 20.0183 23.6173 20.0183 23.6173C20.0728 23.7584 20.0865 23.8597 20.099 23.9516C20.1129 24.0541 20.1252 24.1449 20.1908 24.2661C20.2695 24.4109 20.4004 24.5337 20.4798 24.6082C20.4939 24.6214 20.5063 24.6331 20.5166 24.6432C20.5166 24.6432 20.498 24.7722 20.4784 24.8686L20.3017 25.7522C20.1893 25.7675 20.0709 25.7752 19.9483 25.7802L20.1337 24.9308C20.1608 24.8079 20.007 24.7262 19.802 24.6172C19.5865 24.5026 19.3144 24.358 19.1359 24.1039C18.9656 24.2879 18.6459 24.3428 18.3239 24.3428C18.0303 24.3428 17.737 24.2973 17.5584 24.2639C17.5134 24.257 17.4699 24.2519 17.4271 24.2519C17.3246 24.2519 17.2308 24.2828 17.1653 24.3872L17.1146 24.4701L16.1535 24.2526L15.9148 24.6333C15.8811 24.6952 15.8784 24.7468 15.9329 24.8042L15.998 24.8726C15.953 25.0068 15.7528 25.2104 15.7528 25.2104L15.6105 25.0392C15.4974 24.9177 15.5159 24.6952 15.6336 24.4897L16.0146 23.8712L16.8285 23.9839L16.7025 23.7072C16.5836 23.4512 16.6741 23.1469 16.749 22.8952C16.7813 22.7864 16.8107 22.6874 16.8191 22.6064C16.8096 22.6875 16.732 22.7061 16.642 22.7061C16.5979 22.7061 16.551 22.7017 16.5077 22.6976C16.4703 22.6941 16.4356 22.6908 16.4074 22.6908C16.3832 22.6908 16.3628 22.6933 16.3518 22.701L16.1312 22.8297L15.9575 22.6821C15.9363 22.6537 15.9299 22.5868 15.9806 22.5373L16.3832 22.1028L15.9076 21.5693L16.5739 21.8908L16.7771 21.6537C16.8331 21.7061 16.8089 21.8439 16.8089 21.8439C17.0162 21.849 17.5993 22.1584 17.6303 22.8821C17.6318 22.9039 17.6318 22.9286 17.6318 22.9526C17.6318 22.9526 17.6375 22.9613 17.6477 22.9762C17.6886 23.0308 17.8025 23.1701 17.9463 23.1835L18.8672 23.2708H18.8706C18.9095 23.2708 18.9632 23.2539 19.0292 23.2332C19.1348 23.2 19.2719 23.157 19.4306 23.157C19.571 23.157 19.7265 23.1912 19.8938 23.2919C19.8938 23.2919 19.9774 23.2286 20.1132 23.2217C20.1235 23.2202 20.1356 23.2202 20.145 23.2202C20.4919 23.2202 20.6685 23.4741 20.8478 23.7318C20.8817 23.7805 20.9157 23.8293 20.951 23.8766C21.1175 24.1039 21.3403 24.4406 21.3403 24.4406C21.2578 24.5341 21.1818 24.5864 21.0535 24.5864C21.0183 24.5864 20.9786 24.5839 20.9347 24.5752C20.68 24.5302 20.5506 24.2214 20.4387 23.9541C20.356 23.7568 20.2828 23.5821 20.1757 23.5526ZM16.4604 22.2202C16.4577 22.2661 16.4922 22.3046 16.5395 22.3057C16.5849 22.3093 16.6246 22.2755 16.6288 22.2312C16.6306 22.1882 16.597 22.1479 16.5497 22.1461C16.5028 22.1424 16.4642 22.177 16.4604 22.2202Z" fill="white"/>
<path d="M15.2272 24.3519C15.2272 24.3519 15.5462 24.2257 15.5742 24.1363L15.5318 24.0337C15.5016 23.9672 15.5057 23.8952 15.564 23.8563L15.9076 23.6275L16.4819 23.7337C16.4819 23.7337 16.3783 23.6086 16.3881 23.4417L15.8398 23.3301L15.3234 23.6326C15.1012 23.7919 15.0854 24.0523 15.1588 24.2068L15.2272 24.3519Z" fill="white"/>
<path d="M19.2903 25.7913C19.3928 25.7873 19.5071 25.7854 19.6312 25.7854C19.6312 25.7854 19.9267 24.9549 19.9437 24.9284C19.778 24.8582 19.4337 24.6825 19.3009 24.6025C19.389 24.7287 19.6021 24.8724 19.5601 24.984L19.2903 25.7913Z" fill="white"/>
<path d="M22.1039 20.8647H13.9328V23.8186C13.9328 25.0266 14.8424 25.7829 16.1849 25.7829C17.306 25.7829 17.6019 25.8251 18.0193 26.2226C18.3069 25.9469 18.5441 25.844 19.0326 25.8058L19.0439 25.76L19.3016 24.9949C19.2872 24.9778 18.8661 24.5182 18.8661 24.5182C18.6992 24.5717 18.5589 24.5804 18.3235 24.5804C18.0817 24.5804 17.8089 24.5531 17.5126 24.4997C17.4827 24.4931 17.4551 24.4906 17.4275 24.4906C17.3908 24.4906 17.3885 24.4931 17.3787 24.5106L17.328 24.5917L17.2342 24.7404L17.0578 24.7011L16.2734 24.5237L16.166 24.6942L16.1819 24.7124L16.2772 24.8135L16.2349 24.9455C16.1773 25.1171 15.99 25.3186 15.9329 25.3738L15.7373 25.576L15.5583 25.3589L15.4244 25.1975C15.2832 25.0455 15.2507 24.8135 15.3302 24.5702C15.3283 24.5717 15.3252 24.5727 15.3222 24.5735L15.1012 24.6611L15.0017 24.4535L14.9317 24.3062C14.8114 24.0469 14.8557 23.668 15.1799 23.4389L15.8111 23.0967L16.4119 23.2102C16.4259 23.1546 16.4479 22.9564 16.4649 22.9058C16.4532 22.9047 16.4426 22.9022 16.4305 22.9022L16.0846 23.0262L15.7505 22.8051C15.7505 22.8051 15.62 22.684 15.7384 22.5633L16.0616 22.0927L15.2424 21.1047L16.5012 21.6015L16.5849 21.5018L16.7547 21.3062L16.9477 21.4826C17.0022 21.5331 17.0336 21.5953 17.0487 21.6575C17.3957 21.7877 18.0174 22.1706 18.0723 22.7931L17.8778 22.868V22.8724C17.9224 22.9233 17.9591 22.944 17.9709 22.9458L18.8691 23.0309C18.8922 23.0269 18.9202 23.0175 18.9524 23.0084C19.064 22.9717 19.2312 22.9189 19.4303 22.9189C19.5922 22.9189 19.7485 22.9546 19.8994 23.0222C19.9547 23.0018 20.0228 22.9873 20.1019 22.9822L20.145 22.9811C20.6259 22.9811 20.8654 23.3266 21.0573 23.6022C21.0894 23.6502 21.1212 23.6949 21.1545 23.7397C21.3222 23.9677 21.5416 24.3004 21.5507 24.3149L21.6494 24.4637L21.5284 24.5993C21.4353 24.7033 21.2945 24.8251 21.0535 24.8251C21.0039 24.8251 20.9498 24.82 20.8908 24.8091C20.8397 24.7997 20.7928 24.7851 20.7482 24.7669C20.7413 24.8127 20.7311 24.8669 20.7224 24.9138L20.565 25.704C21.5072 25.4811 22.1058 24.7975 22.1058 23.8186L22.1039 20.8647Z" fill="#FFDC30"/>
<path d="M13.9328 20.6265H20.2884C19.971 20.3112 19.9755 19.9123 20.0561 19.6534C19.9638 19.6109 19.8874 19.5596 19.8196 19.5032C19.571 19.6792 18.8131 20.2098 18.6149 20.3429L18.5725 20.3702L16.0782 19.9371H16.0275C15.9677 19.9371 15.8799 19.9345 15.7842 19.9236C15.7574 20.032 15.6601 20.1058 15.5492 20.1058C15.5364 20.1058 15.5224 20.1047 15.5091 20.1025C15.4444 20.0912 15.3877 20.06 15.3498 20.0072C15.3109 19.9556 15.2954 19.8942 15.3059 19.8312L15.3154 19.7796C15.0585 19.6054 14.8209 19.2163 14.9261 18.8062L14.9363 18.7629L14.9726 18.7378C14.9779 18.7342 15.0206 18.7058 15.0854 18.6709L14.9041 18.644C14.8364 18.6323 14.791 18.5716 14.8012 18.5072C14.8129 18.4422 14.8769 18.3956 14.9435 18.4083L15.3752 18.4738L15.4145 17.0127L16.057 16.3596L16.4581 17.1709L16.0347 18.5763L16.4165 18.6342C16.4835 18.6443 16.5296 18.7047 16.5194 18.7712C16.5096 18.8298 16.457 18.8698 16.3972 18.8698C16.3908 18.8698 16.3839 18.8698 16.3775 18.8691L16.0672 18.8211C16.0714 18.8298 16.0775 18.8352 16.0812 18.8443C16.1142 18.9102 16.1876 18.9567 16.2303 18.9774L18.1317 19.0065C18.2123 18.9312 18.4117 18.7432 18.6171 18.5447C18.1491 18.3738 17.9788 17.9865 17.9508 17.7294C17.6894 17.6222 17.5085 17.4618 17.4086 17.2534C17.2868 16.9952 17.3299 16.7363 17.3628 16.6105C17.1089 16.5218 16.8425 16.3596 16.5701 16.0996H13.7062C13.8288 16.4167 13.9328 16.76 13.9328 17.1014V20.6265Z" fill="#FFDC30"/>
<path d="M16.5497 22.1464C16.5028 22.142 16.4642 22.1769 16.4604 22.2202C16.4573 22.266 16.4922 22.3045 16.5395 22.3056C16.5849 22.3093 16.6246 22.2758 16.6288 22.2311C16.6306 22.1882 16.597 22.1478 16.5497 22.1464Z" fill="black"/>
<path fill-rule="evenodd" clip-rule="evenodd" d="M21.6226 27.3306L22.0933 27.5041L22.6155 27.6921L22.4562 27.7665C21.8752 28.0388 21.1193 28.3929 20.4235 28.5761L20.6036 29.0477C20.6036 29.0477 19.6391 29.4702 18.0291 29.4742V29.475H18.0072V29.4742C16.3991 29.4702 15.4335 29.0477 15.4335 29.0477L15.6128 28.5761C14.9249 28.3949 14.1789 28.0465 13.5987 27.7755L13.5987 27.7755L13.5987 27.7755C13.5371 27.7467 13.4773 27.7188 13.4197 27.6921L13.9434 27.5041L14.4156 27.3306L14.2832 26.863L14.1424 26.3535C14.1424 26.3535 14.9756 26.7884 16.1509 27.115C16.4835 27.2066 16.7366 27.2488 16.7366 27.2488V27.5957C16.7366 27.5957 17.3643 27.7004 18 27.7004H18.0367C18.6716 27.7004 19.3005 27.5957 19.3005 27.5957V27.2488C19.3005 27.2488 19.5529 27.2066 19.8862 27.115C21.0615 26.7884 21.8958 26.3535 21.8958 26.3535L21.7524 26.863L21.6226 27.3306ZM14.7524 27.4761L13.9782 27.7233C14.4455 27.9488 15.015 28.1593 15.6995 28.3401L16.0729 27.3532C15.6298 27.2237 14.8651 26.9441 14.5235 26.7582L14.7524 27.4761ZM18.0193 29.227C17.1199 29.227 16.0933 29.0281 15.7906 28.9244L16.2504 27.7299C16.6314 27.8368 17.4249 27.9502 18 27.9466H18.0367C18.6118 27.9502 19.4042 27.8368 19.7871 27.7299L20.2457 28.9244C19.9433 29.0281 18.9168 29.227 18.0193 29.227ZM19.9638 27.3532L20.3369 28.3401C21.0236 28.1593 21.5908 27.9488 22.0585 27.7233L21.2851 27.4761L21.5132 26.7582C21.1712 26.9441 20.4076 27.2237 19.9638 27.3532Z" fill="black"/>
<path fill-rule="evenodd" clip-rule="evenodd" d="M20.1658 9.48199C19.7424 9.1569 18.9758 8.85181 18.0174 8.85181C17.0609 8.85181 16.2969 9.1569 15.8705 9.48199C15.8705 9.48199 15.7452 8.75436 15.3154 8.11217L16.0869 8.19654L16.4899 7.37217L17.2675 7.75654L18.0174 7.04199L18.77 7.75654L19.5453 7.37217L19.9494 8.19654L20.7213 8.11217C20.2915 8.75436 20.1658 9.48199 20.1658 9.48199ZM16.267 8.50708L16.0529 8.48563L15.8493 8.46199C15.9428 8.66454 16.0112 8.85726 16.0612 9.01654C16.6034 8.72745 17.3045 8.56272 18.0174 8.56272C18.7337 8.56272 19.4356 8.72745 19.9755 9.01654C20.0251 8.85726 20.0943 8.66454 20.1878 8.46199L19.9831 8.48563L19.7693 8.50708L19.6785 8.31981L19.4053 7.76563L18.9073 8.01436L18.7136 8.10926L18.5589 7.96236L18.0174 7.44781L17.4775 7.96236L17.3231 8.10926L17.1293 8.01436L16.6288 7.76563L16.3593 8.31981L16.267 8.50708Z" fill="black"/>
<path fill-rule="evenodd" clip-rule="evenodd" d="M30.9288 17.2445C30.9122 17.2962 30.4975 18.5074 29.2583 18.5074L29.1996 18.506C29.0668 18.5023 28.9491 18.4849 28.8462 18.4656C28.8969 19.1263 29.1489 20.3471 30.2882 20.8016L30.6371 20.9398L30.449 21.2551C30.4486 21.2557 30.4481 21.2566 30.4473 21.2577C30.4123 21.3121 29.9887 21.9703 29.0524 21.9703C28.6317 21.9689 28.3059 21.8682 28.0626 21.7467C28.0259 22.046 27.9491 22.4296 27.8004 22.8587C27.4563 23.8418 27.7705 24.534 27.7879 24.5724L27.7883 24.5733L27.9589 24.9194L27.573 25.018L27.5704 25.0186C27.5339 25.0272 27.3025 25.0816 27.0277 25.0816C26.896 25.0816 26.7746 25.0682 26.6637 25.0431C26.3709 24.9769 26.1465 24.8518 25.9724 24.7096C25.8669 25.0198 25.6875 25.3707 25.3742 25.6816C24.8437 26.2067 24.079 26.4714 23.0793 26.4714L22.4747 26.4638L22.8092 25.9725C22.8118 25.9696 23.0048 25.6816 23.065 24.9023C23.1361 23.9693 23.5031 23.4245 23.8649 23.1118C23.7612 23.0638 23.6628 23.0053 23.5815 22.934C23.0483 22.474 23.071 21.9325 23.074 21.8736L23.0971 21.5816L23.4002 21.5769C24.2149 21.5645 24.7817 21.3311 25.2422 20.8183C25.3496 20.698 25.4363 20.5776 25.5059 20.4602C25.252 20.5351 24.9398 20.5903 24.5736 20.5903C24.4763 20.5903 24.373 20.5845 24.2644 20.5776C23.6953 20.5309 23.3095 20.206 23.2638 20.1676L23.2632 20.1671L22.9469 19.8874L23.3083 19.6642C24.1142 19.1674 24.944 18.2253 24.3079 16.5729C23.8966 15.4991 22.945 14.526 21.4024 13.5936C20.881 13.2769 20.5934 12.9042 20.5934 12.5482C20.5934 11.9976 21.0728 11.7809 21.4236 11.626C21.4351 11.6207 21.4466 11.6154 21.4581 11.6101C21.6175 11.5368 21.7779 11.4631 21.8591 11.3733C22.1304 11.0707 21.9015 10.4914 21.6495 10.1776L21.3282 9.77035L21.8489 9.67108C21.8506 9.67087 21.8539 9.67038 21.8587 9.66966C21.8965 9.66401 22.0267 9.64453 22.2121 9.64453C22.603 9.64453 23.351 9.7358 23.961 10.3423C24.4684 10.8471 24.5342 11.3845 24.5073 11.7318C24.5484 11.7349 24.5904 11.7369 24.6336 11.739C24.6418 11.7394 24.65 11.7398 24.6583 11.7402H24.7151C25.4742 11.7402 25.8365 10.9696 25.8541 10.9319L25.8544 10.9314L26.07 10.4449L26.4151 10.8551C26.4375 10.8798 26.9449 11.4893 26.823 12.2533C26.7394 12.7609 26.4083 13.1987 25.8385 13.5587C25.7776 13.5965 25.7329 13.6296 25.7019 13.6569C26.7727 13.9916 27.3728 14.7248 28.0043 15.4962L28.0096 15.5027L28.1012 15.6125C29.0702 16.7962 30.4377 16.8314 30.6011 16.8314H30.603L31.0677 16.8173L30.9288 17.2445ZM29.0623 21.6525C29.8281 21.6525 30.1615 21.0947 30.1615 21.0947C28.3271 20.3631 28.5079 18.0013 28.5079 18.0013C28.5079 18.0013 28.7463 18.1722 29.2102 18.1882C29.2272 18.1893 29.2412 18.1893 29.2583 18.1893C30.2689 18.1893 30.6117 17.1489 30.6117 17.1489H30.5917C30.4063 17.1489 28.9037 17.1067 27.8412 15.8093C27.8107 15.772 27.7804 15.7349 27.7503 15.6981C27.0909 14.8915 26.5197 14.1927 25.4374 13.9107L25.3262 13.8914L25.3019 13.7827C25.2705 13.6169 25.3893 13.4609 25.658 13.2929C27.2196 12.31 26.159 11.0562 26.159 11.0562C26.159 11.0562 25.7132 12.0587 24.7151 12.0587C24.703 12.0587 24.6908 12.0584 24.6785 12.0582C24.6661 12.0579 24.6536 12.0576 24.6413 12.0576C24.6321 12.0572 24.623 12.0567 24.6138 12.0562C24.51 12.051 24.4092 12.046 24.3079 12.0253L24.124 11.9911C24.124 11.9911 24.409 11.2471 23.7218 10.5642C23.205 10.0489 22.5757 9.96089 22.2121 9.96089C22.029 9.96089 21.9128 9.9838 21.9128 9.9838C22.2575 10.4173 22.5072 11.1362 22.1092 11.5802C21.9758 11.7279 21.768 11.8211 21.5634 11.9129C21.2396 12.0582 20.9237 12.1999 20.9237 12.5482C20.9237 12.7893 21.1583 13.07 21.5783 13.322C22.8417 14.0871 24.0964 15.1027 24.619 16.4623C25.2705 18.1587 24.5357 19.2853 23.488 19.9311C23.488 19.9311 23.8168 20.222 24.2932 20.2591C24.3904 20.2682 24.485 20.2722 24.5736 20.2722C25.5797 20.2722 26.1003 19.8187 26.1003 19.8187C26.1003 19.8187 26.0144 20.4456 25.4908 21.0271C25.0076 21.5645 24.3734 21.8813 23.4055 21.894C23.4055 21.894 23.3752 22.3256 23.8039 22.6991C24.0783 22.9351 24.7109 23.0114 24.7109 23.0114C24.7109 23.0114 23.5255 23.2427 23.3945 24.9253C23.3234 25.8373 23.0809 26.154 23.0809 26.154H23.102C25.8536 26.154 25.7829 23.8863 25.7829 23.8863C25.7829 23.8863 25.9743 24.5576 26.7417 24.7329C26.8348 24.7562 26.9335 24.7653 27.0277 24.7653C27.2748 24.7653 27.4893 24.7096 27.4893 24.7096C27.4893 24.7096 27.0871 23.8951 27.4859 22.7551C27.817 21.8096 27.7637 21.1089 27.7637 21.1089C27.7637 21.1089 28.1341 21.6474 29.0532 21.6525H29.0623Z" fill="black"/>
<path fill-rule="evenodd" clip-rule="evenodd" d="M28.0486 14.6233C27.8125 14.3422 27.5431 14.0251 27.0811 13.7888L26.6066 13.5433L27.047 13.2451C27.0484 13.2443 27.0502 13.2432 27.0523 13.2419C27.1086 13.2072 27.4334 13.0073 27.8658 13.0073C28.2336 13.0073 28.5749 13.1524 28.8572 13.4288C29.5428 14.1022 30.1596 14.1564 30.1819 14.1568L30.6613 14.1841L30.463 14.6062C30.2663 15.0273 29.7467 15.3313 29.2299 15.3313C29.0974 15.3313 28.9677 15.3121 28.8454 15.2717C28.5038 15.163 28.285 14.9035 28.0556 14.6316L28.0486 14.6233ZM28.6203 13.6531C28.3657 13.4008 28.0966 13.3251 27.8658 13.3251C27.5071 13.3251 27.2381 13.507 27.2381 13.507C27.7591 13.7734 28.0561 14.1268 28.3056 14.4236C28.5183 14.6766 28.6964 14.8885 28.9491 14.9706C29.0422 15.0015 29.1364 15.015 29.2299 15.015C29.6355 15.015 30.0264 14.7633 30.1614 14.4757C30.1614 14.4757 29.4187 14.4324 28.6203 13.6531Z" fill="black"/>
<path d="M27.2979 17.9944V18.0108C27.0202 15.8541 25.3905 14.2966 23.5773 13.3504C23.4097 13.2635 23.2545 13.1908 23.1043 13.1206C23.656 13.2028 24.5452 13.2126 25.2316 12.6406C25.2316 12.6406 24.1816 13.3832 22.0309 12.7086C22.626 13.0799 23.7831 13.6039 24.8396 14.4523C27.4795 16.6821 25.591 18.857 25.591 18.857C26.5396 17.905 26.579 16.8857 26.2997 16.0534C26.7996 16.8526 27.1189 17.8224 27.069 19.0188C26.9963 20.7326 26.0163 22.2148 24.9849 23.4054C24.4892 23.9832 24.3787 24.6934 24.3787 24.6934C24.3787 24.6934 24.5789 24.0668 25.1521 23.4221C26.2573 22.1784 27.2025 20.8868 27.3263 19.0257C27.4405 19.3635 27.9116 20.3024 28.6582 20.6559C28.6582 20.6559 27.7198 20.1126 27.2979 17.9944Z" fill="black"/>
<path fill-rule="evenodd" clip-rule="evenodd" d="M13.2258 25.9702C13.2266 25.9716 13.2271 25.9724 13.2271 25.9725L13.562 26.4638L12.9566 26.4714C11.9577 26.4714 11.1933 26.2067 10.6617 25.6813C10.3492 25.3707 10.1691 25.0198 10.0643 24.7096C9.89172 24.8518 9.66507 24.9769 9.37183 25.0431C9.26172 25.0682 9.14026 25.0816 9.00859 25.0816C8.72745 25.0816 8.48945 25.0242 8.4641 25.018L8.07702 24.9194L8.24842 24.5733C8.24862 24.5728 8.24889 24.5722 8.24924 24.5714C8.27066 24.5234 8.57776 23.8342 8.23669 22.8587C8.08723 22.4296 8.0108 22.046 7.97372 21.7471C7.73042 21.8682 7.40502 21.9689 6.98653 21.9703C6.03765 21.9703 5.61397 21.2969 5.5883 21.2561L5.58767 21.2551L5.39923 20.9398L5.74734 20.8016C6.88702 20.3471 7.13978 19.1263 7.19123 18.4656C7.08642 18.4849 6.96875 18.5023 6.83783 18.506L6.77767 18.5074C5.5381 18.5074 5.12491 17.2962 5.10826 17.2445L4.96637 16.8173L5.43329 16.8314C5.59713 16.8314 6.96723 16.7962 7.93513 15.6125L8.02632 15.5027L8.03343 15.494C8.66422 14.7234 9.26348 13.9913 10.3348 13.6569C10.3038 13.6296 10.2606 13.5965 10.1986 13.5587C9.62875 13.1987 9.29691 12.7609 9.2148 12.2533C9.09361 11.5049 9.57899 10.9049 9.61747 10.8573C9.61827 10.8563 9.61888 10.8556 9.61929 10.8551L9.9674 10.4449L10.1823 10.9314C10.1963 10.9616 10.5577 11.7402 11.3224 11.7402H11.378C11.3851 11.7398 11.3922 11.7395 11.3992 11.7391C11.4437 11.737 11.4864 11.7349 11.5286 11.7318C11.5029 11.3845 11.5695 10.8474 12.0776 10.3423C12.6872 9.7358 13.4333 9.64453 13.8246 9.64453C14.0113 9.64453 14.1407 9.66416 14.1774 9.66972C14.1819 9.67041 14.185 9.67088 14.1867 9.67108L14.7104 9.77035L14.3869 10.1776C14.1349 10.4914 13.9059 11.0707 14.1776 11.3733C14.2588 11.4636 14.4202 11.5376 14.5807 11.6113C14.5914 11.6162 14.6021 11.6211 14.6127 11.626C14.9639 11.7809 15.4422 11.9976 15.4422 12.5482C15.4422 12.9042 15.1565 13.2769 14.6355 13.5933C13.0902 14.526 12.1397 15.4987 11.7284 16.5729C11.0935 18.2253 11.9202 19.1674 12.7288 19.6642L13.0902 19.8874L12.7735 20.1671L12.773 20.1674C12.7283 20.2051 12.3414 20.5309 11.7711 20.5776C11.6633 20.5845 11.5604 20.5903 11.462 20.5903C11.0946 20.5903 10.7843 20.5347 10.5308 20.4602C10.6012 20.5776 10.6878 20.698 10.7945 20.8183C11.255 21.3307 11.823 21.5645 12.6353 21.5769L12.9403 21.5816L12.9607 21.8736C12.9645 21.9325 12.9872 22.474 12.4545 22.934C12.3727 23.0053 12.2755 23.0638 12.1707 23.1118C12.5332 23.4245 12.9006 23.9693 12.9725 24.9023C13.0313 25.6447 13.2086 25.9414 13.2258 25.9702ZM10.2531 23.8863C10.2531 23.8863 10.1827 26.154 12.9346 26.154H12.9543C12.9543 26.154 12.7137 25.8373 12.6429 24.9253C12.5124 23.2427 11.3258 23.0114 11.3258 23.0114C11.3258 23.0114 11.9592 22.9351 12.2339 22.6991C12.6618 22.3256 12.6312 21.894 12.6312 21.894C11.6633 21.8813 11.0295 21.5645 10.5433 21.0274C10.023 20.4456 9.93637 19.8187 9.93637 19.8187C9.93637 19.8187 10.457 20.2722 11.462 20.2722C11.5524 20.2722 11.6463 20.2682 11.7435 20.2591C12.2206 20.222 12.5502 19.9311 12.5502 19.9311C11.501 19.2853 10.7662 18.1591 11.4173 16.4623C11.9395 15.1027 13.1935 14.0871 14.458 13.322C14.878 13.07 15.1118 12.7893 15.1118 12.5482C15.1118 12.1998 14.7963 12.0582 14.4728 11.9129C14.2684 11.8211 14.0608 11.7278 13.9275 11.5802C13.5298 11.1362 13.7792 10.4173 14.1231 9.9838C14.1231 9.9838 14.0085 9.96126 13.8246 9.96126C13.461 9.96126 12.8325 10.0489 12.3152 10.5642C11.6266 11.2471 11.9123 11.9907 11.9123 11.9907L11.7284 12.0253C11.628 12.0459 11.5268 12.051 11.4242 12.0562C11.4146 12.0566 11.405 12.0571 11.3954 12.0576C11.3823 12.0576 11.37 12.0579 11.3578 12.0582C11.3459 12.0584 11.3343 12.0587 11.3224 12.0587C10.3219 12.0587 9.87848 11.0565 9.87848 11.0565C9.87848 11.0565 8.81788 12.31 10.3795 13.2929C10.6481 13.4609 10.7662 13.6169 10.7351 13.7827L10.7109 13.8914L10.5974 13.9107C9.51588 14.1933 8.94403 14.8924 8.28373 15.6996C8.254 15.7359 8.22409 15.7725 8.19394 15.8093C7.13221 17.1067 5.63118 17.1489 5.44426 17.1489H5.42383C5.42383 17.1489 5.76664 18.1893 6.77767 18.1893C6.79394 18.1893 6.80907 18.1893 6.8261 18.1882C7.29075 18.1722 7.52913 18.0013 7.52913 18.0013C7.52913 18.0013 7.70848 20.3631 5.87561 21.0947C5.87561 21.0947 6.20934 21.6525 6.97442 21.6525H6.9835C7.90334 21.6474 8.27302 21.1089 8.27302 21.1089C8.27302 21.1089 8.21967 21.8096 8.54961 22.7551C8.94842 23.8951 8.5481 24.7096 8.5481 24.7096C8.5481 24.7096 8.76188 24.7653 9.00859 24.7653C9.10469 24.7653 9.20269 24.7562 9.29426 24.7329C10.0612 24.5576 10.2531 23.8863 10.2531 23.8863Z" fill="black"/>
<path fill-rule="evenodd" clip-rule="evenodd" d="M7.19123 15.2717C7.06864 15.3121 6.93885 15.331 6.80604 15.331C6.28993 15.331 5.77118 15.027 5.57366 14.6059L5.37691 14.1837L5.85556 14.1568C5.87788 14.1561 6.49312 14.1019 7.17912 13.4284C7.46139 13.1521 7.80307 13.0073 8.17161 13.0073C8.60134 13.0073 8.92351 13.2047 8.98262 13.2409C8.98523 13.2426 8.98733 13.2438 8.98891 13.2448L9.43047 13.543L8.95447 13.7884C8.49513 14.0234 8.22879 14.3386 7.99256 14.6181L7.98847 14.623L7.98048 14.6324C7.75146 14.9039 7.53309 15.1628 7.19123 15.2717ZM8.17161 13.3248C7.93966 13.3248 7.67064 13.4004 7.41561 13.6528C6.61761 14.4317 5.87561 14.4753 5.87561 14.4753C6.00918 14.763 6.40118 15.0146 6.80604 15.0146C6.89988 15.0146 6.99447 15.0011 7.08529 14.9702C7.339 14.8881 7.51799 14.6756 7.73156 14.4221C7.98141 14.1255 8.27861 13.7726 8.7982 13.5066C8.7982 13.5066 8.52842 13.3248 8.17161 13.3248Z" fill="black"/>
<path d="M8.96849 19.0189C8.91703 17.8226 9.23638 16.8527 9.73698 16.0535C9.45773 16.8858 9.49557 17.9051 10.4457 18.8571C10.4457 18.8571 8.55681 16.6822 11.1979 14.4524C12.2539 13.604 13.4099 13.08 14.0047 12.7087C11.8551 13.3833 10.8051 12.6411 10.8051 12.6411C11.4911 13.2127 12.3803 13.2033 12.9316 13.1204C12.7829 13.1906 12.6259 13.2637 12.4594 13.3506C10.6455 14.2967 9.01692 15.8542 8.73768 18.0113V17.9946C8.31654 20.1127 7.37892 20.656 7.37892 20.656C8.12471 20.3022 8.59465 19.3637 8.70892 19.0255C8.83379 20.8869 9.7786 22.1786 10.8838 23.4222C11.4571 24.0669 11.6595 24.6935 11.6595 24.6935C11.6595 24.6935 11.5475 23.9833 11.0492 23.4055C10.02 22.2149 9.04038 20.7327 8.96849 19.0189Z" fill="black"/>
<path d="M17.3969 14.6553V15.0833C17.5505 14.9036 17.8468 14.9404 17.8468 14.9404V15.5567C17.8468 15.5567 17.8365 15.86 17.7242 15.9913H18.3659C18.2554 15.86 18.2441 15.5567 18.2441 15.5567V14.9404C18.2441 14.9404 18.5415 14.9036 18.6936 15.0833V14.6553H17.3969Z" fill="black"/>
<path d="M17.121 12.1189C17.3265 12.2752 17.4449 12.3014 17.4487 12.304L17.5289 12.3392V11.9367L16.7748 11.6323C16.7748 11.6323 16.7812 11.8654 17.121 12.1189Z" fill="black"/>
<path d="M18.9145 12.1189C19.2555 11.8654 19.2619 11.6323 19.2619 11.6323L18.5074 11.9367V12.3392L18.5872 12.304C18.5914 12.3014 18.7095 12.2752 18.9145 12.1189Z" fill="black"/>
<path fill-rule="evenodd" clip-rule="evenodd" d="M18.0212 9.31787C19.2025 9.31787 20.2729 9.86769 20.2729 10.4786L20.2498 10.6288L19.778 13.2313L20.2498 13.4957L21.4777 14.1837H21.4735C21.4735 14.1837 21.7493 14.3197 21.8753 14.4033C22.3445 14.715 22.4429 15.1699 22.1716 15.3575C22.1039 14.9866 21.7993 14.5993 21.2291 14.5993C20.8178 14.5993 20.5049 14.8022 20.2498 15.1091C20.1863 15.1862 20.1246 15.2688 20.0663 15.3575C19.9952 15.4695 19.9241 15.5677 19.8537 15.6622H23.0124C22.7793 16.1106 22.5591 16.5851 22.5591 17.1015V23.8182C22.5591 25.4441 21.2597 26.2201 19.8518 26.2201C19.769 26.2201 19.6917 26.2198 19.6192 26.2195C18.7383 26.2164 18.571 26.2158 18.0193 26.747C17.4648 26.2158 17.2976 26.2164 16.4173 26.2195C16.3449 26.2198 16.2676 26.2201 16.1849 26.2201C14.7777 26.2201 13.4769 25.4441 13.4769 23.8182V17.1015C13.4769 16.5851 13.2563 16.1106 13.0243 15.6622H16.1819C16.1115 15.5677 16.04 15.4695 15.9692 15.3575C15.9117 15.2688 15.8497 15.1862 15.7846 15.1091C15.5318 14.8033 15.2182 14.5993 14.8072 14.5993C14.2363 14.5993 13.9313 14.9866 13.8647 15.3575C13.5934 15.1699 13.6925 14.715 14.1595 14.4033C14.2873 14.3197 14.5632 14.1837 14.5632 14.1837H14.5586L15.7846 13.4957L16.2583 13.2313L15.7865 10.6288L15.763 10.4786C15.763 9.86769 16.8335 9.31787 18.0148 9.31787H18.0212ZM17.885 11.3215L16.2265 10.7808L16.6639 13.2073L17.885 13.8259V11.3215ZM16.5701 16.0997C16.8425 16.3597 17.1093 16.5219 17.3628 16.6106C17.3299 16.7361 17.2868 16.9953 17.4086 17.2535C17.5085 17.4619 17.6893 17.6222 17.9508 17.7291C17.9792 17.987 18.1491 18.3739 18.6175 18.5448C18.4117 18.7433 18.2123 18.931 18.1317 19.0066L16.2307 18.9775C16.1876 18.9571 16.1138 18.9102 16.0812 18.8444C16.0793 18.8397 16.0767 18.8361 16.0741 18.8324C16.0717 18.829 16.0692 18.8255 16.0672 18.8211L16.3771 18.8691C16.3839 18.8699 16.3904 18.8699 16.3972 18.8699C16.4573 18.8699 16.5092 18.8302 16.5194 18.771C16.5292 18.7051 16.4835 18.6444 16.4165 18.6342L16.0351 18.5764L16.4581 17.171L16.057 16.3597L15.4149 17.0128L15.3752 18.4739L14.9435 18.4081C14.8769 18.3957 14.8129 18.4426 14.8012 18.5073C14.7906 18.5717 14.8364 18.6328 14.9045 18.6441L15.0853 18.6706C15.0206 18.7059 14.9779 18.7342 14.973 18.7382L14.9363 18.763L14.9261 18.8062C14.8209 19.2164 15.0585 19.6055 15.3154 19.7797L15.3063 19.8313C15.2957 19.8946 15.3105 19.9561 15.3498 20.0073C15.3877 20.0601 15.4444 20.0917 15.5091 20.1026C15.522 20.1048 15.5364 20.1059 15.5489 20.1059C15.6601 20.1059 15.7573 20.0321 15.7846 19.9237C15.8799 19.935 15.9677 19.9371 16.0275 19.9371H16.0782L18.5721 20.3702L18.6149 20.3433C18.8131 20.2099 19.571 19.6793 19.8192 19.5033C19.8877 19.5597 19.9638 19.611 20.0561 19.6535C19.9755 19.9124 19.9706 20.3117 20.2884 20.6266H13.9328V17.1015C13.9328 16.7601 13.8288 16.4168 13.7058 16.0997H16.5701ZM18.5153 20.1168C18.7511 19.9586 19.4 19.503 19.652 19.3244C19.4689 19.0673 19.4515 18.7622 19.4923 18.5477C19.372 18.4739 19.2808 18.3902 19.2078 18.3019C18.9388 18.5836 18.4436 19.0474 18.3042 19.178L18.2679 19.2121L18.2312 19.2477L16.3264 19.2186C16.3249 19.4001 16.2943 19.5542 16.2648 19.6673L16.2577 19.6937L16.2576 19.6938C16.2548 19.7042 16.2519 19.7147 16.2492 19.7251L18.5153 20.1168ZM15.8572 18.9477C15.911 19.0557 16.0075 19.1277 16.0752 19.1688C16.0729 19.2699 16.0631 19.4266 16.0351 19.5655C16.0286 19.5968 16.0203 19.6251 16.0112 19.6535C16.0079 19.6668 16.004 19.6781 16.0007 19.6878L15.9972 19.6979C15.897 19.6979 15.701 19.6862 15.5398 19.6299C15.3616 19.567 15.0959 19.2531 15.1572 18.9066C15.2341 18.8615 15.4126 18.7651 15.5799 18.7651C15.7082 18.7651 15.7963 18.8233 15.8572 18.9477ZM15.6601 17.1099L15.6215 18.5131L15.788 18.5375L16.1936 17.191L15.9878 16.7768L15.6601 17.1099ZM19.6312 25.7855C19.5071 25.7855 19.3928 25.7873 19.2903 25.791L19.5601 24.9841C19.5884 24.9088 19.5008 24.819 19.4138 24.7298C19.3718 24.6867 19.3299 24.6437 19.3012 24.6026C19.4341 24.683 19.778 24.8582 19.9437 24.9284C19.9271 24.9546 19.6312 25.7855 19.6312 25.7855ZM20.3021 25.7521L20.4784 24.8688C20.4981 24.7721 20.5166 24.643 20.5166 24.643C20.5063 24.6329 20.4939 24.6212 20.4798 24.608C20.4004 24.5335 20.2695 24.4107 20.1908 24.2659C20.1252 24.1447 20.1129 24.0539 20.099 23.9514C20.0865 23.8595 20.0728 23.7582 20.0183 23.6171C20.0183 23.6171 20.0538 23.5477 20.1352 23.5477C20.1481 23.5477 20.1621 23.5491 20.1753 23.5528C20.2827 23.5821 20.356 23.757 20.4388 23.9544C20.5508 24.2215 20.6801 24.53 20.9347 24.575C20.9786 24.5837 21.0183 24.5862 21.0535 24.5862C21.1818 24.5862 21.2578 24.5339 21.3403 24.4404C21.3403 24.4404 21.1175 24.1037 20.951 23.8768C20.9159 23.8296 20.882 23.781 20.8483 23.7325L20.8483 23.7325L20.8483 23.7324L20.8483 23.7324L20.8483 23.7324L20.8483 23.7324L20.8483 23.7324C20.6688 23.4744 20.4922 23.2204 20.145 23.2204C20.1352 23.2204 20.1235 23.2204 20.1132 23.2215C19.9774 23.2281 19.8938 23.2921 19.8938 23.2921C19.7269 23.191 19.571 23.1568 19.4306 23.1568C19.2719 23.1568 19.1348 23.1998 19.0293 23.233C18.9632 23.2537 18.9095 23.2706 18.8706 23.2706H18.8672L17.9466 23.183C17.8025 23.1699 17.6886 23.0306 17.6477 22.9761C17.6375 22.9611 17.6318 22.9521 17.6318 22.9521V22.952C17.6318 22.9284 17.6318 22.9037 17.6303 22.8815C17.5993 22.1582 17.0162 21.8484 16.8085 21.8437C16.8085 21.8437 16.8331 21.7062 16.7771 21.6535L16.5735 21.8902L15.9076 21.5688L16.3832 22.103L15.981 22.5371C15.9299 22.5866 15.9363 22.6531 15.9575 22.6815L16.1312 22.8295L16.3518 22.7008C16.3628 22.6928 16.3832 22.6906 16.4074 22.6906C16.4356 22.6906 16.4703 22.6938 16.5076 22.6972L16.5077 22.6972H16.5077H16.5077C16.551 22.7012 16.5979 22.7055 16.642 22.7055C16.7321 22.7055 16.8096 22.6873 16.8191 22.6062C16.8107 22.6873 16.7813 22.7863 16.7489 22.8952C16.6741 23.1469 16.5836 23.4511 16.7022 23.707L16.8285 23.9837L16.0146 23.871L15.6336 24.4891C15.5159 24.695 15.4974 24.9175 15.6105 25.039L15.7532 25.2102C15.7532 25.2102 15.953 25.007 15.9976 24.8724L15.9329 24.8044C15.8784 24.7466 15.8811 24.695 15.9148 24.6331L16.1535 24.2528L17.1146 24.4702L17.1653 24.387C17.2308 24.2826 17.3242 24.2517 17.4271 24.2517C17.4699 24.2517 17.513 24.2568 17.5584 24.2637C17.737 24.2975 18.0303 24.3426 18.3239 24.3426C18.6459 24.3426 18.966 24.2873 19.1359 24.1037C19.3142 24.3578 19.5862 24.5024 19.8017 24.6169C20.0069 24.726 20.1608 24.8079 20.1337 24.931L19.9479 25.7797C20.0709 25.775 20.1893 25.7673 20.3021 25.7521ZM15.5318 24.0339L15.5742 24.1361C15.5462 24.2255 15.2272 24.3517 15.2272 24.3517L15.1584 24.2066C15.0853 24.0521 15.1012 23.7917 15.3233 23.6324L15.8398 23.3299L16.3881 23.4415C16.3779 23.6084 16.4819 23.7339 16.4819 23.7339L15.9076 23.6277L15.564 23.8557C15.5057 23.895 15.5016 23.967 15.5318 24.0339ZM20.7228 24.9131L20.565 25.7037C21.5072 25.4811 22.1054 24.7971 22.1054 23.8182L22.1039 20.8644H13.9328V23.8182C13.9328 25.0262 14.8424 25.7826 16.1849 25.7826C17.3064 25.7826 17.6019 25.8248 18.0193 26.2222C18.3065 25.9466 18.5441 25.8437 19.0326 25.8055L19.0439 25.7597L19.302 24.995C19.2872 24.9771 18.8665 24.5179 18.8665 24.5179C18.6992 24.571 18.5589 24.5797 18.3239 24.5797C18.0813 24.5797 17.8089 24.5531 17.5126 24.4993C17.4828 24.4928 17.4551 24.4902 17.4271 24.4902C17.3912 24.4902 17.3885 24.4928 17.3791 24.5102L17.328 24.591L17.2342 24.7401L17.0575 24.7008L16.2735 24.5233L16.166 24.6939L16.1819 24.7124L16.2772 24.8135L16.2349 24.9448C16.1773 25.1171 15.9901 25.3182 15.9329 25.3731L15.7369 25.5757L15.5587 25.359L15.4244 25.1968C15.2832 25.0451 15.2507 24.8135 15.3302 24.5695C15.3283 24.571 15.3252 24.5724 15.3222 24.5731L15.1012 24.6608L15.0017 24.4531L14.9317 24.3059C14.8114 24.0466 14.8557 23.6681 15.1799 23.439L15.8111 23.0964L16.4119 23.2099C16.4184 23.1852 16.4262 23.1321 16.4345 23.0763C16.4447 23.0071 16.4555 22.9339 16.4649 22.9059C16.4609 22.9054 16.457 22.9047 16.4531 22.904C16.4456 22.9028 16.4382 22.9015 16.4305 22.9015L16.0846 23.0259L15.7505 22.8048C15.7505 22.8048 15.62 22.6837 15.7384 22.563L16.0612 22.0924L15.2424 21.1044L16.5012 21.6011L16.5849 21.5015L16.7548 21.3059L16.9481 21.4822C17.0026 21.5328 17.0336 21.595 17.0488 21.6575C17.3953 21.787 18.0174 22.1699 18.0723 22.7928L17.8778 22.8677V22.8717C17.9228 22.9226 17.9591 22.9433 17.9705 22.9459L18.8695 23.0306C18.8854 23.0278 18.9041 23.0221 18.9247 23.0159L18.9248 23.0159L18.9524 23.0077C19.0644 22.9713 19.2312 22.9186 19.4306 22.9186C19.5926 22.9186 19.7485 22.9539 19.8995 23.0219C19.9547 23.0019 20.0228 22.987 20.1019 22.9819L20.145 22.9811C20.6259 22.9811 20.8658 23.3262 21.0573 23.6019C21.0895 23.6499 21.1209 23.6946 21.1542 23.7393C21.3222 23.967 21.5416 24.3001 21.5503 24.3146L21.6495 24.4633L21.5284 24.599C21.4349 24.703 21.2945 24.8248 21.0535 24.8248C21.0039 24.8248 20.9498 24.8193 20.8908 24.8088C20.8397 24.7993 20.7928 24.7848 20.7478 24.767C20.7426 24.8039 20.7348 24.8466 20.7277 24.8862L20.7228 24.9131ZM22.3313 16.0997C22.2064 16.4168 22.1028 16.7601 22.1028 17.1015L22.1039 19.3055C21.6249 19.2281 21.5681 18.7324 21.5662 18.7106L21.5575 18.6099L21.4542 18.6011C21.2461 18.5819 21.108 18.4975 20.9915 18.3888C20.7565 18.163 20.7561 17.7968 20.7565 17.7935C20.7561 17.7955 20.7529 17.8013 20.7478 17.8103C20.7049 17.8862 20.5297 18.1962 20.7943 18.5317C20.9188 18.6895 21.0997 18.787 21.3331 18.8251C21.3884 19.1004 21.6014 19.4888 22.1039 19.5477V20.6266H20.6903C20.0383 20.2779 20.3145 19.6644 20.327 19.6379L20.3823 19.5215L20.2574 19.4764C19.5513 19.2248 19.7458 18.5477 19.7553 18.5186L19.7837 18.4201L19.6876 18.3761C19.1049 18.1164 19.1836 17.4171 19.1915 17.3877C19.0118 17.5273 18.9475 17.8124 19.0708 18.0917C19.0078 18.1612 18.9242 18.2443 18.8321 18.3358L18.8162 18.3517C18.2123 18.2037 18.1937 17.6706 18.1937 17.6462L18.1922 17.5641L18.1128 17.5346C17.877 17.4506 17.7155 17.3248 17.6352 17.1557C17.5459 16.9688 17.5773 16.7724 17.6019 16.6782C17.6712 16.6935 17.7401 16.7037 17.8055 16.7088C17.8736 16.7157 17.9432 16.7201 18.0132 16.7201H18.0231C18.0927 16.7201 18.1619 16.7157 18.2301 16.7088C18.6065 16.6731 19.0273 16.5179 19.4662 16.0997H22.3313ZM20.6869 14.1837L20.1284 13.8721L19.5548 13.5561L18.0219 14.3582L18.0174 14.355L18.0148 14.3582L16.4816 13.5561L15.9076 13.8721L15.3483 14.1837H15.3419L15.2004 14.2622C15.5159 14.3462 15.7558 14.4961 15.9594 14.6953C15.9628 14.6984 15.9658 14.7017 15.9688 14.705C15.9733 14.7099 15.9778 14.7148 15.9836 14.7193C16.0286 14.7659 16.0729 14.8164 16.1157 14.867L16.1215 14.8738C16.1296 14.8832 16.1373 14.8922 16.1456 14.9033C16.1849 14.9539 16.2246 15.0073 16.2636 15.0622C16.2685 15.0684 16.2733 15.0754 16.2783 15.0826L16.2783 15.0826C16.2819 15.0878 16.2856 15.0931 16.2893 15.0982C16.3351 15.1651 16.379 15.2346 16.4222 15.3059C16.8191 15.9641 17.4536 16.3579 18.0174 16.3586C18.5816 16.3579 19.2161 15.9641 19.6138 15.3059C19.6581 15.2324 19.7023 15.1619 19.7485 15.0953L19.7533 15.0886L19.7533 15.0886C19.7586 15.0813 19.7641 15.0737 19.7693 15.0662C19.8083 15.0095 19.8491 14.9546 19.8919 14.9011L19.918 14.8691C19.9623 14.8164 20.0081 14.7651 20.0546 14.7175C20.0586 14.7139 20.0623 14.7102 20.0659 14.7066L20.0659 14.7066C20.0695 14.7031 20.073 14.6997 20.0765 14.6964C20.279 14.4979 20.5196 14.3462 20.8352 14.2622L20.6948 14.1837H20.6869ZM19.372 13.2073L18.151 13.8259V11.3215L19.8083 10.7808L19.372 13.2073ZM16.2008 10.3564L18.0174 11.0462L19.8348 10.3564C19.6811 10.0048 18.9686 9.70587 18.0174 9.70478C17.0677 9.70587 16.3556 10.0048 16.2008 10.3564Z" fill="black"/>
</g>
<defs>
<clipPath id="clip0_24_2163">
<rect width="36" height="36" fill="white"/>
</clipPath>
</defs>
</svg>
