<svg width="48" height="48" viewBox="0 0 36 36" fill="none" xmlns="http://www.w3.org/2000/svg">
<g clip-path="url(#clip0_35922_982)">
<path fill-rule="evenodd" clip-rule="evenodd" d="M18 36C27.9411 36 36 27.9411 36 18C36 8.05887 27.9411 0 18 0C8.05887 0 0 8.05887 0 18C0 27.9411 8.05887 36 18 36Z" fill="#43B741"/>
<path fill-rule="evenodd" clip-rule="evenodd" d="M16.0169 21.9876C19.9901 19.186 24.8853 18.0107 29.6981 18.7027L29.9653 18.7411C29.8045 20.0996 29.203 21.4147 28.1604 22.4569L22.4627 28.1524C19.9976 30.6165 16.0011 30.6165 13.5361 28.1524L9.40366 24.0216C11.2416 24.3589 13.1974 23.9756 14.8184 22.8326L16.0169 21.9876Z" fill="white"/>
<path d="M29.6981 18.7027L29.7692 18.2078L29.7692 18.2078L29.6981 18.7027ZM16.0169 21.9876L15.7287 21.579L15.7287 21.579L16.0169 21.9876ZM29.9653 18.7411L30.4618 18.7999L30.5191 18.3156L30.0364 18.2462L29.9653 18.7411ZM28.1604 22.4569L27.8069 22.1033L27.8069 22.1033L28.1604 22.4569ZM22.4627 28.1524L22.8161 28.506L22.8161 28.506L22.4627 28.1524ZM13.5361 28.1524L13.8895 27.7988L13.8895 27.7988L13.5361 28.1524ZM9.40366 24.0216L9.49392 23.5298L7.91443 23.2399L9.05017 24.3752L9.40366 24.0216ZM14.8184 22.8326L15.1065 23.2413L14.8184 22.8326ZM29.7692 18.2078C24.8301 17.4976 19.8064 18.7038 15.7287 21.579L16.305 22.3962C20.1739 19.6682 24.9406 18.5237 29.6269 19.1976L29.7692 18.2078ZM30.0364 18.2462L29.7692 18.2078L29.6269 19.1976L29.8941 19.236L30.0364 18.2462ZM28.5138 22.8105C29.6387 21.6861 30.2883 20.266 30.4618 18.7999L29.4687 18.6824C29.3207 19.9332 28.7673 21.1432 27.8069 22.1033L28.5138 22.8105ZM22.8161 28.506L28.5138 22.8105L27.8069 22.1033L22.1092 27.7988L22.8161 28.506ZM13.1826 28.506C15.8429 31.1653 20.1559 31.1653 22.8161 28.506L22.1092 27.7988C19.8394 30.0677 16.1593 30.0677 13.8895 27.7988L13.1826 28.506ZM9.05017 24.3752L13.1826 28.506L13.8895 27.7988L9.75714 23.668L9.05017 24.3752ZM14.5303 22.424C13.0227 23.487 11.2041 23.8437 9.49392 23.5298L9.3134 24.5134C11.2791 24.8742 13.3721 24.4642 15.1065 23.2413L14.5303 22.424ZM15.7287 21.579L14.5303 22.424L15.1065 23.2413L16.305 22.3962L15.7287 21.579Z" fill="#43B741"/>
<path fill-rule="evenodd" clip-rule="evenodd" d="M28.1709 13.5437C29.2758 14.6482 29.8856 16.0606 30 17.5049L29.8732 17.4866C24.7494 16.7498 19.5378 18.0012 15.3078 20.9838L14.1094 21.8288C12.0398 23.2881 9.30983 23.252 7.29637 21.8378C5.39987 19.3642 5.58433 15.8074 7.84891 13.5437L13.5466 7.84825C16.0116 5.38417 20.0082 5.38417 22.4732 7.84825L28.1709 13.5437Z" fill="white"/>
<path d="M30 17.5049L29.9288 17.9998L30.5478 18.0888L30.4984 17.4654L30 17.5049ZM28.1709 13.5437L27.8174 13.8974L27.8174 13.8974L28.1709 13.5437ZM29.8732 17.4866L29.9444 16.9917L29.9444 16.9917L29.8732 17.4866ZM15.3078 20.9838L15.0197 20.5751L15.0197 20.5751L15.3078 20.9838ZM14.1094 21.8288L13.8213 21.4202L13.8213 21.4202L14.1094 21.8288ZM7.29637 21.8378L6.89958 22.142L6.94623 22.2028L7.00898 22.2469L7.29637 21.8378ZM7.84891 13.5437L8.20239 13.8974L8.20239 13.8974L7.84891 13.5437ZM13.5466 7.84825L13.9001 8.20187L13.9001 8.20187L13.5466 7.84825ZM22.4732 7.84825L22.1197 8.20187L22.1197 8.20187L22.4732 7.84825ZM30.4984 17.4654C30.375 15.907 29.7166 14.3819 28.5244 13.1901L27.8174 13.8974C28.8351 14.9146 29.3962 16.2143 29.5016 17.5444L30.4984 17.4654ZM29.802 17.9815L29.9288 17.9998L30.0712 17.01L29.9444 16.9917L29.802 17.9815ZM15.596 21.3924C19.7216 18.4834 24.8046 17.2629 29.802 17.9815L29.9444 16.9917C24.6942 16.2368 19.3541 17.5189 15.0197 20.5751L15.596 21.3924ZM14.3975 22.2375L15.596 21.3924L15.0197 20.5751L13.8213 21.4202L14.3975 22.2375ZM7.00898 22.2469C9.19265 23.7807 12.1529 23.8201 14.3975 22.2375L13.8213 21.4202C11.9267 22.7561 9.42701 22.7233 7.58377 21.4286L7.00898 22.2469ZM7.49543 13.1901C5.05114 15.6334 4.85239 19.4719 6.89958 22.142L7.69317 21.5335C5.94735 19.2565 6.11752 15.9814 8.20239 13.8974L7.49543 13.1901ZM13.1931 7.49463L7.49543 13.1901L8.20239 13.8974L13.9001 8.20187L13.1931 7.49463ZM22.8267 7.49463C20.1664 4.83537 15.8534 4.83538 13.1931 7.49463L13.9001 8.20187C16.1699 5.93296 19.8499 5.93296 22.1197 8.20187L22.8267 7.49463ZM28.5244 13.1901L22.8267 7.49463L22.1197 8.20187L27.8174 13.8974L28.5244 13.1901Z" fill="#43B741"/>
</g>
<defs>
<clipPath id="clip0_35922_982">
<rect width="36" height="36" rx="18" fill="white"/>
</clipPath>
</defs>
</svg>
