<svg width="24" height="24" viewBox="0 0 24 24" fill="none" xmlns="http://www.w3.org/2000/svg">
<path fill-rule="evenodd" clip-rule="evenodd" d="M18.6667 6C19.7707 6 20.6667 6.896 20.6667 8V16.6667C20.6667 17.7707 19.7707 18.6667 18.6667 18.6667H5.33333C4.22933 18.6667 3.33333 17.7707 3.33333 16.6667V8C3.33333 6.896 4.22933 6 5.33333 6H18.6667ZM18.6667 7.33333H5.33333C4.96533 7.33333 4.66666 7.632 4.66666 8V16.6667C4.66666 17.0347 4.96533 17.3333 5.33333 17.3333H18.6667C19.0347 17.3333 19.3333 17.0347 19.3333 16.6667V8C19.3333 7.632 19.0347 7.33333 18.6667 7.33333ZM16 11.6667C16.368 11.6667 16.6667 11.9653 16.6667 12.3333V13.3333H17.6667C18.0087 13.3333 18.2907 13.5907 18.3287 13.922L18.3333 14C18.3333 14.368 18.0347 14.6667 17.6667 14.6667H16.6667V15.6667C16.6667 16.0087 16.4093 16.2907 16.078 16.3287L16 16.3333C15.632 16.3333 15.3333 16.0347 15.3333 15.6667V14.6667H14.3333C13.9913 14.6667 13.7093 14.4093 13.6713 14.078L13.6667 14C13.6667 13.632 13.9653 13.3333 14.3333 13.3333H15.3333V12.3333C15.3333 11.9913 15.5907 11.7093 15.922 11.6713L16 11.6667ZM18 9.33333V10.6667H5.99999V9.33333H18Z"/>
</svg>
