<svg width="16" height="14" viewBox="0 0 16 14" fill="none" xmlns="http://www.w3.org/2000/svg">
<path d="M11.9996 5.13543V3.18185C11.9996 2.24832 11.314 1.40693 10.0689 0.812747C8.97083 0.288651 7.52572 0 5.99982 0C4.47372 0 3.02855 0.288651 1.93053 0.812747C0.685618 1.40693 0 2.24832 0 3.18185V5.72734V8.27266V10.8181C0 11.7517 0.685619 12.5931 1.93057 13.1873C3.02862 13.7114 4.47378 14 5.99988 14C7.1624 14 8.27071 13.8344 9.22812 13.5204C9.86086 13.827 10.5761 14 11.3329 14C13.9063 14 16 12.0014 16 9.54485C15.9999 7.30438 14.2583 5.44518 11.9996 5.13543ZM1.33345 7.76498C1.51529 7.88235 1.71424 7.99318 1.93057 8.09643C3.02862 8.6205 4.47385 8.90919 5.99988 8.90919C6.24049 8.90919 6.47975 8.90161 6.71674 8.88726C6.68332 9.10192 6.66578 9.32149 6.66578 9.54491C6.66578 9.75275 6.68111 9.95732 6.71015 10.1577C6.47588 10.1736 6.23858 10.1817 5.99988 10.1817C3.32905 10.1817 1.33345 9.17385 1.33345 8.27272V7.76498ZM7.1488 7.57277C6.7744 7.61483 6.38942 7.63624 5.99982 7.63624C3.32905 7.6363 1.33345 6.62842 1.33345 5.72734V5.21961C1.51529 5.33692 1.71424 5.44781 1.93057 5.551C3.02862 6.07512 4.47385 6.3637 5.99988 6.3637C6.82092 6.3637 7.61791 6.27947 8.35077 6.12063C7.85138 6.51758 7.44006 7.0119 7.1488 7.57277ZM5.99982 1.2729C8.67052 1.2729 10.6661 2.28073 10.6661 3.18185C10.6661 4.08298 8.67052 5.09087 5.99982 5.09087C3.32905 5.09087 1.33345 4.08298 1.33345 3.18185C1.33345 2.28073 3.32905 1.2729 5.99982 1.2729ZM1.33345 10.8182V10.3105C1.51529 10.4278 1.71424 10.5387 1.93057 10.6419C3.02862 11.166 4.47378 11.4546 5.99988 11.4546C6.36788 11.4546 6.73335 11.4374 7.09212 11.404C7.29551 11.8251 7.5656 12.211 7.88966 12.5491C7.29551 12.6653 6.65218 12.7272 5.99982 12.7272C3.32905 12.7272 1.33345 11.7193 1.33345 10.8182ZM11.3329 12.7272C9.49471 12.7272 7.99926 11.2996 7.99926 9.54491C7.99926 7.7952 9.48634 6.37105 11.3174 6.36306C11.3226 6.36317 11.3276 6.36382 11.3329 6.36382C11.3381 6.36382 11.3431 6.36317 11.3484 6.36306C13.1794 6.37105 14.6665 7.7952 14.6665 9.54491C14.6665 11.2996 13.171 12.7272 11.3329 12.7272Z" fill="#068441"/>
</svg>
