<svg xmlns="http://www.w3.org/2000/svg" width="24" height="24" viewBox="0 0 24 24" fill="none">
<path d="M12 0C5.4 0 0 5.4 0 12C0 18.6 5.4 24 12 24C18.6 24 24 18.6 24 12C24 5.4 18.6 0 12 0ZM18 18C18 18.7333 17.4 19.3333 16.6667 19.3333H7.33333C6.6 19.3333 6 18.7333 6 18V6C6 5.26667 6.6 4.66667 7.33333 4.66667H16.6667C17.4 4.66667 18 5.26667 18 6V18Z" fill="#21CA9A"/>
<path d="M16 10.667H8V12.0003H16V10.667Z" fill="#21CA9A"/>
<path d="M16 7.33301H8V8.66634H16V7.33301Z" fill="#21CA9A"/>
<path d="M14.8673 14.2L13.334 15.7333L12.4673 14.8667C12.2007 14.6 11.8007 14.6 11.534 14.8667C11.2673 15.1333 11.2673 15.5333 11.534 15.8L12.8673 17.1333C13.0007 17.2667 13.2007 17.3333 13.334 17.3333C13.4673 17.3333 13.6673 17.2667 13.8007 17.1333L15.8007 15.1333C16.0673 14.8667 16.0673 14.4667 15.8007 14.2C15.534 13.9333 15.134 13.9333 14.8673 14.2Z" fill="#21CA9A"/>
</svg>