<svg width="24" height="24" viewBox="0 0 24 24" fill="none" xmlns="http://www.w3.org/2000/svg">
<path d="M12 0C18.6274 0 24 5.37258 24 12C24 18.6274 18.6274 24 12 24C5.37258 24 0 18.6274 0 12C0 5.37258 5.37258 0 12 0Z" fill="#C2C2C2"/>
<path d="M15.3334 6.66665H8.66665C8.2985 6.66665 8 6.96515 8 7.33335C8 7.70155 8.2985 8 8.66665 8H15.3334C15.7015 8 16 7.70155 16 7.33335C16 6.96515 15.7015 6.66665 15.3334 6.66665Z" fill="white"/>
<path d="M15.3334 16H8.66665C8.2985 16 8 16.2985 8 16.6667C8 17.0349 8.2985 17.3333 8.66665 17.3333H15.3334C15.7015 17.3333 16 17.0349 16 16.6667C16 16.2985 15.7015 16 15.3334 16Z" fill="white"/>
<path fill-rule="evenodd" clip-rule="evenodd" d="M10.065 10.3133C10.4902 10.9936 11.1018 11.3333 11.9997 11.3333C13.324 11.3333 14.3791 11.8825 15.065 12.98C15.7183 14.0253 15.9997 15.5077 15.9997 17.3333H14.6663C14.6663 15.6034 14.3922 14.4192 13.9343 13.6867C13.5092 13.0064 12.8976 12.6667 11.9997 12.6667C10.6753 12.6667 9.62029 12.1175 8.93435 11.02C8.28105 9.97473 7.99969 8.49231 7.99969 6.66665H9.33302C9.33302 8.39658 9.60721 9.58085 10.065 10.3133Z" fill="white"/>
<path fill-rule="evenodd" clip-rule="evenodd" d="M15.0657 11.02C14.3797 12.1175 13.3247 12.6667 12.0004 12.6667C11.1024 12.6667 10.4908 13.0064 10.0657 13.6867C9.60786 14.4192 9.33367 15.6034 9.33367 17.3333H8.00034C8.00034 15.5077 8.2817 14.0253 8.935 12.98C9.62095 11.8825 10.676 11.3333 12.0004 11.3333C12.8982 11.3333 13.5098 10.9936 13.935 10.3133C14.3928 9.58085 14.667 8.39658 14.667 6.66665H16.0003C16.0003 8.49231 15.719 9.97473 15.0657 11.02Z" fill="white"/>
</svg>
