<svg width="16" height="16" viewBox="0 0 16 16" fill="none" xmlns="http://www.w3.org/2000/svg">
<path fill-rule="evenodd" clip-rule="evenodd" d="M5.33331 3.33317C5.33331 2.96498 5.63179 2.6665 5.99998 2.6665C6.36817 2.6665 6.66665 2.96498 6.66665 3.33317V12.6665C6.66665 12.7627 6.64629 12.854 6.60966 12.9366C6.56878 13.0287 6.50763 13.1099 6.43187 13.1744C6.38583 13.2136 6.33572 13.2456 6.28304 13.2703C6.19712 13.3106 6.10119 13.3332 5.99998 13.3332C5.90022 13.3332 5.80557 13.3113 5.7206 13.272C5.66356 13.2457 5.60947 13.2109 5.56024 13.1676C5.54828 13.1571 5.5367 13.1462 5.52553 13.1348L2.70015 10.3095C2.4398 10.0491 2.4398 9.627 2.70015 9.36665C2.96049 9.1063 3.3826 9.1063 3.64295 9.36665L5.33331 11.057V3.33317ZM9.33331 3.33317C9.33331 3.24278 9.3513 3.15659 9.3839 3.07798C9.41643 2.99935 9.46466 2.92568 9.52857 2.86177C9.59249 2.79785 9.66616 2.74962 9.74479 2.71709C9.8234 2.68449 9.90959 2.6665 9.99998 2.6665C10.0904 2.6665 10.1766 2.68449 10.2552 2.71709C10.3332 2.74938 10.4064 2.79714 10.47 2.86035L10.4716 2.86194L13.2998 5.69019C13.5602 5.95054 13.5602 6.37265 13.2998 6.633C13.0395 6.89335 12.6174 6.89335 12.357 6.633L10.6666 4.94265V12.6665C10.6666 13.0347 10.3682 13.3332 9.99998 13.3332C9.63179 13.3332 9.33331 13.0347 9.33331 12.6665V3.33317Z" fill="#08A652"/>
</svg>
