<svg width="24" height="24" viewBox="0 0 24 24" fill="none" xmlns="http://www.w3.org/2000/svg">
<path fill-rule="evenodd" clip-rule="evenodd" d="M12 2C6.48 2 2 6.48 2 12C2 17.52 6.48 22 12 22C17.52 22 22 17.52 22 12C22 6.48 17.52 2 12 2ZM15.6 6.4C15.2686 5.95817 14.6418 5.86863 14.2 6.2C13.7582 6.53137 13.6686 7.15817 14 7.6C14.8633 8.75102 15.3 10.2068 15.3 12C15.3 13.7932 14.8633 15.249 14 16.4C13.6686 16.8418 13.7582 17.4686 14.2 17.8C14.6418 18.1314 15.2686 18.0418 15.6 17.6C16.7367 16.0844 17.3 14.2068 17.3 12C17.3 9.7932 16.7367 7.91565 15.6 6.4ZM10.2453 8.16795C10.7048 7.8616 11.3257 7.98577 11.6321 8.4453C12.4034 9.60234 12.8 10.7921 12.8 12C12.8 13.2079 12.4034 14.3977 11.6321 15.5547C11.3257 16.0142 10.7048 16.1384 10.2453 15.8321C9.78577 15.5257 9.6616 14.9048 9.96795 14.4453C10.5299 13.6023 10.8 12.7921 10.8 12C10.8 11.2079 10.5299 10.3977 9.96795 9.5547C9.6616 9.09517 9.78577 8.4743 10.2453 8.16795ZM8.3 12C8.3 12.9665 7.74036 13.75 7.05 13.75C6.35964 13.75 5.8 12.9665 5.8 12C5.8 11.0335 6.35964 10.25 7.05 10.25C7.74036 10.25 8.3 11.0335 8.3 12Z" fill="#08A652"/>
</svg>
