<svg width="24" height="24" viewBox="0 0 24 24" xmlns="http://www.w3.org/2000/svg">
<path fill-rule="evenodd" clip-rule="evenodd" d="M3 4C2.44772 4 2 4.44772 2 5V15C2 15.5523 2.44772 16 3 16H21C21.5523 16 22 15.5523 22 15V5C22 4.44772 21.5523 4 21 4H3ZM12 13C13.6569 13 15 11.6569 15 10C15 8.34315 13.6569 7 12 7C10.3431 7 9 8.34315 9 10C9 11.6569 10.3431 13 12 13ZM5 9C5 8.44772 5.44772 8 6 8C6.55228 8 7 8.44772 7 9V11C7 11.5523 6.55228 12 6 12C5.44772 12 5 11.5523 5 11V9ZM18 8C17.4477 8 17 8.44772 17 9V11C17 11.5523 17.4477 12 18 12C18.5523 12 19 11.5523 19 11V9C19 8.44772 18.5523 8 18 8Z" />
<path d="M21 18H3C2.44772 18 2 18.4477 2 19C2 19.5523 2.44772 20 3 20H21C21.5523 20 22 19.5523 22 19C22 18.4477 21.5523 18 21 18Z" />
</svg>
