<svg width="16" height="20" viewBox="0 0 16 20" fill="none" xmlns="http://www.w3.org/2000/svg">
<path fill-rule="evenodd" clip-rule="evenodd" d="M2 4.75C2 4.33579 2.33579 4 2.75 4C3.16421 4 3.5 4.33579 3.5 4.75L3.50043 10.2364L11.334 10.236L9.3566 8.30248C9.05182 8.00452 9.05182 7.52142 9.3566 7.22347C9.66137 6.92551 10.1555 6.92551 10.4603 7.22347L13.7714 10.4605C14.0762 10.7585 14.0762 11.2415 13.7714 11.5395L10.4603 14.7765C10.1555 15.0745 9.66137 15.0745 9.3566 14.7765C9.05182 14.4786 9.05182 13.9955 9.3566 13.6975L11.3351 11.762L2.00052 11.7625L2 10.2365H2.00043L2 4.75Z" fill="black"/>
</svg>
