<svg width="24" height="21" viewBox="0 0 24 21" fill="none" xmlns="http://www.w3.org/2000/svg">
<path fill-rule="evenodd" clip-rule="evenodd" d="M22 1C22 0.44772 21.5523 0 21 0H3L2.82373 0.00509024C1.24892 0.0963402 0 1.40232 0 3V4V6V18C0 19.6569 1.34315 21 3 21H21C22.6569 21 24 19.6569 24 18V7C24 5.3431 22.6569 4 21 4H4H3L2.88338 3.9933C2.38604 3.9355 2 3.5128 2 3C2 2.44772 2.44772 2 3 2H21L21.1166 1.99327C21.614 1.93551 22 1.51284 22 1ZM20 12.5C20 13.3284 19.3284 14 18.5 14C17.6716 14 17 13.3284 17 12.5C17 11.6716 17.6716 11 18.5 11C19.3284 11 20 11.6716 20 12.5Z" />
</svg>
