<svg width="24" height="24" viewBox="0 0 24 24" fill="none" xmlns="http://www.w3.org/2000/svg">
<path fill-rule="evenodd" clip-rule="evenodd" d="M12 1.99988C17.522 1.99988 22 6.47688 22 11.9999C22 17.5229 17.522 21.9999 12 21.9999C6.478 21.9999 2 17.5229 2 11.9999C2 6.47688 6.478 1.99988 12 1.99988ZM5.63587 12.7074C5.45485 12.5264 5.34313 12.2761 5.34313 12.0003C5.34313 11.4473 5.79002 11.0005 6.34297 11.0005L11 11.0002V6.34345C11 5.79049 11.4476 5.34289 12.0005 5.34289C12.5528 5.3436 12.9997 5.79049 13.0004 6.34274L13.0001 11L17.6574 10.9997C18.2096 11.0005 18.6565 11.4473 18.6572 11.9996C18.6572 12.5526 18.2096 13.0002 17.6567 13.0002H13L12.9997 17.6572C12.9997 18.2101 12.5528 18.657 11.9998 18.657C11.7241 18.657 11.4737 18.5453 11.2927 18.3643C11.1117 18.1832 11 17.9329 11 17.6572V13.0002H6.34297C6.0672 13.0002 5.81689 12.8884 5.63587 12.7074Z" />
</svg>
