<svg width="24" height="24" viewBox="0 0 24 24" fill="none" xmlns="http://www.w3.org/2000/svg">
<path fill-rule="evenodd" clip-rule="evenodd" d="M13.6896 14.2001L13.8614 14.2854L13.9619 14.1823L14.6956 13.4444C15.3764 12.7636 16.326 12.7353 17.0277 13.3588L17.1178 13.4439L18.3363 14.6555L18.7884 15.1138C19.4832 15.8086 19.5122 16.7585 18.8752 17.4745L18.7884 17.5666L18.188 18.1576L18.0482 18.3015C18.0267 18.3242 18.006 18.3464 17.9856 18.3684L17.8665 18.5014C17.3123 19.1116 16.6001 19.3684 15.7438 19.329C14.8258 19.2842 13.9377 19.0097 12.9433 18.5216C11.0745 17.6096 9.46053 16.3469 8.12744 14.7563C7.06796 13.52 6.27252 12.2184 5.7576 10.8221C5.43999 9.96198 5.29422 9.23368 5.3404 8.47187C5.38074 7.8521 5.62866 7.31995 6.08209 6.88552L6.18701 6.7846L7.04084 5.93902L7.20677 5.78098C7.90941 5.1566 8.85959 5.18496 9.5404 5.86577L10.3824 6.70777L11.0549 7.3751L11.2843 7.61473C11.9052 8.31032 11.9056 9.1973 11.2931 9.88515L11.1257 10.0608L10.795 10.3945L10.3686 10.8091C10.5465 11.1646 10.7784 11.5104 11.0824 11.8843C11.8194 12.7945 12.6279 13.5385 13.5057 14.0987L13.6223 14.1648C13.6433 14.1761 13.6656 14.1877 13.6896 14.2001ZM8.59759 6.80858C8.40799 6.61899 8.24904 6.61899 8.04949 6.8186L7.89219 6.97116L7.23086 7.62869L7.00353 7.84923C6.79187 8.05201 6.68959 8.27156 6.6711 8.5555C6.63796 9.10229 6.74932 9.65868 7.00848 10.3605C7.46572 11.6004 8.17877 12.7672 9.14459 13.8943C10.3624 15.3472 11.8274 16.4934 13.5294 17.324C14.3756 17.7394 15.0978 17.9625 15.8069 17.9972C16.2851 18.0192 16.6095 17.9022 16.8701 17.6155C17.0049 17.4607 17.1331 17.3256 17.3203 17.1395L17.8456 16.6238C18.0499 16.4195 18.0499 16.2609 17.8397 16.0506L17.5097 15.7152L16.1752 14.3869C15.9863 14.1977 15.828 14.1977 15.6375 14.3881L15.0093 15.0187L14.6071 15.4326C14.3095 15.7302 13.9302 15.806 13.5462 15.6151L13.1234 15.4079L12.9598 15.3221L12.8045 15.2326C11.7837 14.5815 10.8698 13.7404 10.0471 12.7245C9.59629 12.1701 9.26409 11.6449 9.01121 11.0444C8.87491 10.683 8.94928 10.3327 9.22735 10.0567L9.71421 9.58688L10.0176 9.2866C10.0482 9.25567 10.0783 9.22512 10.1083 9.19452L10.3027 8.99215C10.4545 8.81911 10.4538 8.6887 10.2936 8.50748L10.1035 8.30933L8.59759 6.80858Z" fill="#068441"/>
</svg>
