<svg width="36" height="36" viewBox="0 0 36 36" fill="none" xmlns="http://www.w3.org/2000/svg">
<rect x="14.7485" y="12.1103" width="6.46154" height="11.6123" fill="#FF5F00"/>
<path d="M15.1589 17.9174C15.1564 15.6511 16.1966 13.5095 17.9794 12.1103C14.9516 9.73078 10.6037 10.0774 7.99114 12.9065C5.3786 15.7355 5.3786 20.0973 7.99114 22.9264C10.6037 25.7554 14.9516 26.102 17.9794 23.7226C16.1971 22.3237 15.1571 20.1831 15.1589 17.9174Z" fill="#EB001B"/>
<path d="M29.9282 17.9174C29.9281 20.7448 28.3137 23.3239 25.7706 24.5595C23.2275 25.795 20.2022 25.47 17.9795 23.7226C19.7609 22.3225 20.8011 20.1822 20.8011 17.9164C20.8011 15.6507 19.7609 13.5103 17.9795 12.1103C20.2022 10.3628 23.2275 10.0378 25.7706 11.2734C28.3137 12.5089 29.9281 15.088 29.9282 17.9154V17.9174Z" fill="#F79E1B"/>
</svg>
