<svg width="24" height="24" viewBox="0 0 24 24" fill="none" xmlns="http://www.w3.org/2000/svg">
<path fill-rule="evenodd" clip-rule="evenodd" d="M4.38462 7.30747H19.6154V17.6921H4.38462L4.38462 7.30747ZM3 7.30747C3 6.54277 3.61991 5.92285 4.38462 5.92285H19.6154C20.3801 5.92285 21 6.54277 21 7.30747V17.6921C21 18.4568 20.3801 19.0767 19.6154 19.0767H4.38462C3.61991 19.0767 3 18.4568 3 17.6921V7.30747ZM12.6923 12.8459H18.2308V11.4613H12.6923V12.8459ZM16.8462 15.6152H12.6923V14.2305H16.8462V15.6152ZM8.88462 11.1152V11.4613C8.88462 11.8437 8.57466 12.1536 8.19231 12.1536C7.80996 12.1536 7.5 11.8437 7.5 11.4613V11.1152C7.5 10.7328 7.80996 10.4229 8.19231 10.4229C8.57466 10.4229 8.88462 10.7328 8.88462 11.1152ZM6.11538 11.1152C6.11538 9.96811 7.04525 9.03824 8.19231 9.03824C9.33936 9.03824 10.2692 9.96811 10.2692 11.1152V11.4613C10.2692 12.6084 9.33936 13.5382 8.19231 13.5382C7.04525 13.5382 6.11538 12.6084 6.11538 11.4613V11.1152ZM7.15385 14.2305C6.38914 14.2305 5.76923 14.8505 5.76923 15.6152H10.6154C10.6154 14.8505 9.99547 14.2305 9.23077 14.2305H7.15385Z" fill="#148F2B"/>
</svg>
