<svg width="39" height="36" viewBox="0 0 39 36" xmlns="http://www.w3.org/2000/svg">
<path fill-rule="evenodd" clip-rule="evenodd" d="M32.0833 8H6.41661C5.82597 8 5.34717 8.44772 5.34717 9V23C5.34717 23.5523 5.82597 24 6.41661 24H32.0833C32.6739 24 33.1527 23.5523 33.1527 23V9C33.1527 8.44772 32.6739 8 32.0833 8ZM7.48606 10H31.0138V22H7.48606V10ZM14.9722 16C14.9722 13.7907 16.8872 12 19.2499 12C21.6127 12 23.5277 13.7907 23.5277 16C23.5277 18.2093 21.6127 20 19.2499 20C16.8872 20 14.9722 18.2093 14.9722 16ZM19.2499 14C20.4314 14 21.3888 14.8953 21.3888 16C21.3888 17.1047 20.4314 18 19.2499 18C18.0685 18 17.1111 17.1047 17.1111 16C17.1111 14.8953 18.0685 14 19.2499 14ZM33.0875 27C33.0875 26.4477 32.6087 26 32.018 26H6.41661L6.29189 26.0067C5.76002 26.0645 5.34717 26.4872 5.34717 27C5.34717 27.5523 5.82597 28 6.41661 28H32.018L32.1428 27.9933C32.6746 27.9355 33.0875 27.5128 33.0875 27ZM27.8055 18H25.6666V14H27.8055V18ZM12.8333 18V14H10.6944V18H12.8333Z" />
</svg>
