<svg width="36" height="36" viewBox="0 0 36 36" fill="none" xmlns="http://www.w3.org/2000/svg">
<path fill-rule="evenodd" clip-rule="evenodd" d="M14.905 6.73661L13.3444 8.29718L8.6627 12.9789L7.10213 14.5395C6.67119 14.9704 6.67119 15.6691 7.10213 16.1C7.25747 16.2554 7.44759 16.3547 7.64743 16.3981C7.8218 16.4359 8.01105 16.456 8.20232 16.4763C8.66435 16.5253 9.13822 16.5755 9.44299 16.8803L10.2233 17.6606L11.9339 19.3713L19.7368 11.5684L18.0261 9.85775L17.2458 9.07746C16.9411 8.77269 16.8908 8.29882 16.8418 7.83679C16.8215 7.64552 16.8014 7.45628 16.7636 7.2819C16.7202 7.08207 16.6209 6.89194 16.4656 6.73661C16.0346 6.30567 15.3359 6.30567 14.905 6.73661ZM21.2973 10.0078L19.3394 8.04992C19.1175 7.82797 19.0105 7.52091 18.9814 7.20837C18.9124 6.46671 18.594 5.74389 18.0261 5.17604C16.7333 3.88322 14.6372 3.88321 13.3444 5.17604L5.54156 12.9789C4.24874 14.2717 4.24874 16.3678 5.54156 17.6606C6.10942 18.2285 6.83224 18.5469 7.5739 18.6159C7.88643 18.645 8.1935 18.752 8.41545 18.9739L10.3734 20.9318L4.48879 26.8164C4.05785 27.2473 4.05785 27.946 4.48879 28.377C4.91973 28.8079 5.61842 28.8079 6.04936 28.377L28.1192 6.30716C28.5501 5.87622 28.5501 5.17752 28.1192 4.74659C27.6882 4.31565 26.9895 4.31565 26.5586 4.74659L21.2973 10.0078ZM14.4941 22.1695C14.7868 22.1727 14.905 22.5067 14.905 22.7994V25.9205C14.905 26.9036 16.0936 27.396 16.7888 26.7008L27.0663 16.4232C27.7615 15.7281 27.2692 14.5395 26.2861 14.5395L23.1649 14.5395C22.8723 14.5395 22.5382 14.4212 22.535 14.1286C22.5334 13.9754 22.591 13.8218 22.7078 13.7049L23.5561 12.8567C23.8917 12.521 24.3469 12.3325 24.8216 12.3325L26.2861 12.3325C29.2354 12.3325 30.7124 15.8983 28.6269 17.9838L18.3493 28.2614C16.2639 30.3469 12.698 28.8699 12.698 25.9205V24.456C12.698 23.9814 12.8866 23.5262 13.2222 23.1905L14.0704 22.3423C14.1873 22.2254 14.341 22.1678 14.4941 22.1695ZM25.0486 24.6831C25.9101 23.8217 27.3083 23.8217 28.1698 24.6831C28.7542 25.2676 30.9359 28.8819 32.2834 31.1533C32.5792 31.6519 32.0174 32.2137 31.5188 31.918C29.2473 30.5704 25.6331 28.3887 25.0486 27.8043C24.1872 26.9429 24.1872 25.5446 25.0486 24.6831Z" fill="#148F2A"/>
</svg>
