<svg width="36" height="36" viewBox="0 0 36 36" fill="none" xmlns="http://www.w3.org/2000/svg">
<path fill-rule="evenodd" clip-rule="evenodd" d="M6 8.99456C6 7.893 6.90234 7 7.99456 7H27V9H25H9H8.00026L8.00022 8.99858C8.00013 8.99771 8 8.99643 8 8.99456V9H7.99456C7.99643 9 7.99771 9.00013 7.99858 9.00022L8 9.00025V25.9997L7.99858 25.9998H7.99856C7.99769 25.9999 7.99642 26 7.99456 26H8H9V28H7.99456C6.893 28 6 27.0977 6 26.0054V8.99456Z" fill="#808B95"/>
<path fill-rule="evenodd" clip-rule="evenodd" d="M8 11C6.89543 11 6 11.8954 6 13V26C6 27.1046 6.89543 28 8 28H28C29.1046 28 30 27.1046 30 26V13C30 11.8954 29.1046 11 28 11H8ZM23.5 21C24.3284 21 25 20.3284 25 19.5C25 18.6716 24.3284 18 23.5 18C22.6716 18 22 18.6716 22 19.5C22 20.3284 22.6716 21 23.5 21Z" fill="#5B5BAD"/>
<mask id="mask0" mask-type="alpha" maskUnits="userSpaceOnUse" x="6" y="11" width="24" height="17">
<path fill-rule="evenodd" clip-rule="evenodd" d="M8 11C6.89543 11 6 11.8954 6 13V26C6 27.1046 6.89543 28 8 28H28C29.1046 28 30 27.1046 30 26V13C30 11.8954 29.1046 11 28 11H8ZM23.5 21C24.3284 21 25 20.3284 25 19.5C25 18.6716 24.3284 18 23.5 18C22.6716 18 22 18.6716 22 19.5C22 20.3284 22.6716 21 23.5 21Z" fill="white"/>
</mask>
<g mask="url(#mask0)">
</g>
</svg>
