<svg width="36" height="36" viewBox="0 0 36 36" fill="none" xmlns="http://www.w3.org/2000/svg">
<path fill-rule="evenodd" clip-rule="evenodd" d="M17.5317 14.1502L15.7734 22.3709H13.6466L15.4051 14.1502H17.5317ZM26.4792 19.4585L27.5989 16.3712L28.2429 19.4585H26.4792ZM28.8534 22.3709H30.8198L29.1016 14.1502H27.2877C26.8787 14.1502 26.5342 14.3873 26.3816 14.7528L23.1903 22.3709H25.424L25.8673 21.1433H28.5955L28.8534 22.3709ZM23.3012 19.6872C23.3105 17.5177 20.3021 17.3974 20.322 16.428C20.3286 16.1333 20.6095 15.8197 21.2239 15.7395C21.5284 15.7002 22.3688 15.6684 23.3215 16.1073L23.6941 14.3633C23.1822 14.1783 22.5238 14 21.7047 14C19.6021 14 18.123 15.1168 18.1112 16.7173C18.0978 17.9008 19.1679 18.5608 19.9723 18.955C20.8017 19.3577 21.0797 19.6162 21.0757 19.9762C21.0699 20.5277 20.4141 20.772 19.8038 20.7811C18.7338 20.7979 18.1138 20.4921 17.6195 20.2615L17.2335 22.0638C17.7311 22.2915 18.6483 22.4899 19.5978 22.5C21.833 22.5 23.2946 21.3963 23.3012 19.6872ZM14.4928 14.1502L11.0469 22.3709H8.79897L7.10306 15.8101C7.00033 15.4069 6.9107 15.2585 6.59804 15.0882C6.08663 14.8102 5.24227 14.5504 4.5 14.3889L4.55017 14.1502H8.16917C8.63026 14.1502 9.04485 14.4569 9.15029 14.988L10.0461 19.7453L12.2585 14.1502H14.4928Z" fill="#182E66"/>
</svg>
