<svg width="36" height="36" viewBox="0 0 36 36" fill="none" xmlns="http://www.w3.org/2000/svg">
<path d="M15.3 5H20.8C24.4 5 25.7 5.4 27 6.1C28.2775 6.77749 29.3225 7.82249 30 9.1C30.7 10.4 31.1 11.7 31.1 15.3V20.8C31.1 24.4 30.7 25.7 30 27C29.3225 28.2775 28.2775 29.3225 27 30C25.7 30.7 24.4 31.1 20.8 31.1H15.3C11.7 31.1 10.4 30.7 9.1 30C7.82249 29.3225 6.77749 28.2775 6.1 27C5.4 25.7 5 24.3 5 20.7V15.2C5 11.6 5.4 10.3 6.1 9C6.77749 7.72249 7.82249 6.67749 9.1 6C10.4 5.4 11.7 5 15.3 5Z" fill="#232323" fill-opacity="0.24"/>
<path fill-rule="evenodd" clip-rule="evenodd" d="M22.11 13.5601H13.81C13.7171 13.5601 13.6281 13.5232 13.5625 13.4576C13.4968 13.392 13.46 13.3029 13.46 13.2101C13.46 13.1173 13.4968 13.0283 13.5625 12.9626C13.6281 12.897 13.7171 12.8601 13.81 12.8601H22.11C22.1559 12.8601 22.2014 12.8692 22.2439 12.8868C22.2864 12.9043 22.3249 12.9301 22.3574 12.9626C22.3899 12.9951 22.4157 13.0337 22.4333 13.0762C22.4509 13.1186 22.46 13.1641 22.46 13.2101C22.46 13.2561 22.4509 13.3016 22.4333 13.344C22.4157 13.3865 22.3899 13.4251 22.3574 13.4576C22.3249 13.4901 22.2864 13.5159 22.2439 13.5335C22.2014 13.5511 22.1559 13.5601 22.11 13.5601ZM14.31 15.0601H21.61C21.8354 15.0601 22.0516 15.1496 22.211 15.309C22.3704 15.4684 22.46 15.6846 22.46 15.9101C22.46 16.1355 22.3704 16.3517 22.211 16.5111C22.0516 16.6705 21.8354 16.7601 21.61 16.7601H19.06V22.3601C19.0688 22.4937 19.049 22.6276 19.0019 22.753C18.9547 22.8783 18.8814 22.9921 18.7867 23.0868C18.692 23.1815 18.5782 23.2548 18.4529 23.302C18.3275 23.3491 18.1936 23.3689 18.06 23.3601H17.86C17.7264 23.3689 17.5924 23.3491 17.4671 23.302C17.3417 23.2548 17.2279 23.1815 17.1332 23.0868C17.0385 22.9921 16.9652 22.8783 16.9181 22.753C16.8709 22.6276 16.8511 22.4937 16.86 22.3601V16.7601H14.31C14.0845 16.7601 13.8683 16.6705 13.7089 16.5111C13.5495 16.3517 13.46 16.1355 13.46 15.9101C13.46 15.6846 13.5495 15.4684 13.7089 15.309C13.8683 15.1496 14.0845 15.0601 14.31 15.0601Z" fill="white"/>
</svg>
