<svg width="36" height="36" viewBox="0 0 36 36" fill="none" xmlns="http://www.w3.org/2000/svg">
<path fill-rule="evenodd" clip-rule="evenodd" d="M5.99951 28.0001H29.9995C30.5518 28.0001 30.9995 27.5524 30.9995 27.0001C30.9995 26.4478 30.5518 26.0001 29.9995 26.0001H5.99951C5.44723 26.0001 4.99951 26.4478 4.99951 27.0001C4.99951 27.5524 5.44723 28.0001 5.99951 28.0001ZM17.9995 12.0232C21.0658 12.0232 22.9995 13.9461 22.9995 17.0002C22.9995 17.5525 23.4472 18.0002 23.9995 18.0002C24.5518 18.0002 24.9995 17.5525 24.9995 17.0002C24.9995 12.839 22.1679 10.0232 17.9995 10.0232C17.4472 10.0232 16.9995 10.471 16.9995 11.0232C16.9995 11.5755 17.4472 12.0232 17.9995 12.0232ZM26.7849 23.6015C28.213 21.705 29 19.41 29 17C29 10.9247 24.0753 6 18 6C11.9247 6 7.00001 10.9247 7.00001 17C7.00001 19.4095 7.78673 21.7043 9.21392 23.6012C9.54597 24.0425 10.1729 24.1311 10.6142 23.7991C11.0555 23.467 11.1441 22.8401 10.8121 22.3988C9.6425 20.8443 9.00001 18.9702 9.00001 17C9.00001 12.0293 13.0293 8 18 8C22.9707 8 27 12.0293 27 17C27 18.9705 26.3573 20.8444 25.1872 22.3985C24.8549 22.8397 24.9433 23.4666 25.3845 23.7988C25.8257 24.1311 26.4526 24.0427 26.7849 23.6015Z" />
</svg>
