<svg width="36" height="36" viewBox="0 0 36 36" fill="none" xmlns="http://www.w3.org/2000/svg">
<path fill-rule="evenodd" clip-rule="evenodd" d="M29.5 14.5C29.5 8.14873 24.3513 3 18 3C11.6487 3 6.5 8.14873 6.5 14.5C6.5 16.9125 7.24289 19.1516 8.51239 21.0008L8.5 21L8.60292 21.1307C8.84438 21.4723 9.10399 21.8001 9.38035 22.1128L16.4319 31.0193C16.5278 31.1404 16.6374 31.25 16.7586 31.3459C17.6246 32.0315 18.8825 31.8853 19.5681 31.0193L26.6302 22.1009C26.8991 21.7958 27.1521 21.4763 27.3878 21.1438L27.5 21L27.4876 21.0008C28.7571 19.1516 29.5 16.9125 29.5 14.5ZM8.5 14.5C8.5 9.25329 12.7533 5 18 5C23.2467 5 27.5 9.25329 27.5 14.5L27.4932 14.8638C27.425 16.6771 26.8483 18.3984 25.8388 19.8688L25.764 19.976L25.6657 20.113C25.4774 20.3668 25.3079 20.5763 25.1298 20.7784L25.0622 20.8593L18 29.7778L10.9484 20.8713L10.6548 20.5254C10.5087 20.3474 10.369 20.1643 10.2361 19.9763L9.96514 19.5715C9.01368 18.0682 8.5 16.3248 8.5 14.5ZM18 10C20.4853 10 22.5 12.0147 22.5 14.5C22.5 16.9853 20.4853 19 18 19C15.5147 19 13.5 16.9853 13.5 14.5C13.5 12.0147 15.5147 10 18 10ZM15.5 14.5C15.5 13.1193 16.6193 12 18 12C19.3807 12 20.5 13.1193 20.5 14.5C20.5 15.8807 19.3807 17 18 17C16.6193 17 15.5 15.8807 15.5 14.5Z" />
</svg>
