<svg width="36" height="36" viewBox="0 0 36 36" fill="none" xmlns="http://www.w3.org/2000/svg">
<path d="M15.3 5H20.8C24.4 5 25.7 5.4 27 6.1C28.2775 6.77749 29.3225 7.82249 30 9.1C30.7 10.4 31.1 11.7 31.1 15.3V20.8C31.1 24.4 30.7 25.7 30 27C29.3225 28.2775 28.2775 29.3225 27 30C25.7 30.7 24.4 31.1 20.8 31.1H15.3C11.7 31.1 10.4 30.7 9.1 30C7.82249 29.3225 6.77749 28.2775 6.1 27C5.4 25.7 5 24.3 5 20.7V15.2C5 11.6 5.4 10.3 6.1 9C6.77749 7.72249 7.82249 6.67749 9.1 6C10.4 5.4 11.7 5 15.3 5Z" fill="#333399"/>
<path fill-rule="evenodd" clip-rule="evenodd" d="M22.1109 13.5604H13.8109C13.7181 13.5604 13.6291 13.5235 13.5635 13.4578C13.4978 13.3922 13.4609 13.3032 13.4609 13.2104C13.4609 13.1175 13.4978 13.0285 13.5635 12.9629C13.6291 12.8972 13.7181 12.8604 13.8109 12.8604H22.1109C22.1569 12.8604 22.2024 12.8694 22.2449 12.887C22.2873 12.9046 22.3259 12.9304 22.3584 12.9629C22.3909 12.9954 22.4167 13.0339 22.4343 13.0764C22.4519 13.1189 22.4609 13.1644 22.4609 13.2104C22.4609 13.2563 22.4519 13.3018 22.4343 13.3443C22.4167 13.3868 22.3909 13.4253 22.3584 13.4578C22.3259 13.4903 22.2873 13.5161 22.2449 13.5337C22.2024 13.5513 22.1569 13.5604 22.1109 13.5604ZM14.3109 15.0603H21.6109C21.8364 15.0603 22.0526 15.1499 22.212 15.3093C22.3714 15.4687 22.4609 15.6849 22.4609 15.9103C22.4609 16.1357 22.3714 16.3519 22.212 16.5113C22.0526 16.6707 21.8364 16.7603 21.6109 16.7603H19.0609V22.3603C19.0698 22.4939 19.05 22.6279 19.0028 22.7532C18.9557 22.8785 18.8824 22.9923 18.7877 23.087C18.693 23.1817 18.5792 23.2551 18.4538 23.3022C18.3285 23.3493 18.1945 23.3691 18.0609 23.3603H17.8609C17.7273 23.3691 17.5934 23.3493 17.468 23.3022C17.3427 23.2551 17.2289 23.1817 17.1342 23.087C17.0395 22.9923 16.9662 22.8785 16.919 22.7532C16.8719 22.6279 16.8521 22.4939 16.8609 22.3603V16.7603H14.3109C14.0855 16.7603 13.8693 16.6707 13.7099 16.5113C13.5505 16.3519 13.4609 16.1357 13.4609 15.9103C13.4609 15.6849 13.5505 15.4687 13.7099 15.3093C13.8693 15.1499 14.0855 15.0603 14.3109 15.0603Z" fill="white"/>
</svg>
