<svg width="36" height="36" viewBox="0 0 36 36" fill="none" xmlns="http://www.w3.org/2000/svg">
<path d="M15.3 5H20.8C24.4 5 25.7 5.4 27 6.1C28.2775 6.77749 29.3225 7.82249 30 9.1C30.7 10.4 31.1 11.7 31.1 15.3V20.8C31.1 24.4 30.7 25.7 30 27C29.3225 28.2775 28.2775 29.3225 27 30C25.7 30.7 24.4 31.1 20.8 31.1H15.3C11.7 31.1 10.4 30.7 9.1 30C7.82249 29.3225 6.77749 28.2775 6.1 27C5.4 25.7 5 24.3 5 20.7V15.2C5 11.6 5.4 10.3 6.1 9C6.77749 7.72249 7.82249 6.67749 9.1 6C10.4 5.4 11.7 5 15.3 5Z" fill="#08A652"/>
<path fill-rule="evenodd" clip-rule="evenodd" d="M22.11 13.56H13.81C13.7171 13.56 13.6281 13.5231 13.5625 13.4575C13.4968 13.3918 13.46 13.3028 13.46 13.21C13.46 13.1172 13.4968 13.0281 13.5625 12.9625C13.6281 12.8969 13.7171 12.86 13.81 12.86H22.11C22.1559 12.86 22.2014 12.869 22.2439 12.8866C22.2864 12.9042 22.3249 12.93 22.3574 12.9625C22.3899 12.995 22.4157 13.0336 22.4333 13.076C22.4509 13.1185 22.46 13.164 22.46 13.21C22.46 13.2559 22.4509 13.3015 22.4333 13.3439C22.4157 13.3864 22.3899 13.425 22.3574 13.4575C22.3249 13.49 22.2864 13.5158 22.2439 13.5333C22.2014 13.5509 22.1559 13.56 22.11 13.56ZM14.31 15.0599H21.61C21.8354 15.0599 22.0516 15.1495 22.211 15.3089C22.3704 15.4683 22.46 15.6845 22.46 15.9099C22.46 16.1354 22.3704 16.3516 22.211 16.511C22.0516 16.6704 21.8354 16.7599 21.61 16.7599H19.06V22.3599C19.0688 22.4935 19.049 22.6275 19.0019 22.7528C18.9547 22.8782 18.8814 22.992 18.7867 23.0867C18.692 23.1813 18.5782 23.2547 18.4529 23.3018C18.3275 23.349 18.1936 23.3688 18.06 23.3599H17.86C17.7264 23.3688 17.5924 23.349 17.4671 23.3018C17.3417 23.2547 17.2279 23.1813 17.1332 23.0867C17.0385 22.992 16.9652 22.8782 16.9181 22.7528C16.8709 22.6275 16.8511 22.4935 16.86 22.3599V16.7599H14.31C14.0845 16.7599 13.8683 16.6704 13.7089 16.511C13.5495 16.3516 13.46 16.1354 13.46 15.9099C13.46 15.6845 13.5495 15.4683 13.7089 15.3089C13.8683 15.1495 14.0845 15.0599 14.31 15.0599Z" fill="white"/>
</svg>
