<svg width="32" height="32" viewBox="0 0 32 32" fill="none" xmlns="http://www.w3.org/2000/svg">
<circle cx="16" cy="16" r="16" fill="#00AFCA"/>
<g clip-path="url(#clip0_2079_26331)">
<path d="M15.8406 18.1277C18.2423 18.1277 20.1892 16.173 20.1892 13.7618C20.1892 11.3506 18.2423 9.396 15.8406 9.396C13.439 9.396 11.4921 11.3506 11.4921 13.7618C11.4921 16.173 13.439 18.1277 15.8406 18.1277Z" fill="#FEC50C"/>
<path d="M15.8407 8.80538C16.0992 8.80538 16.1961 8.6432 16.1961 8.44858C16.1961 8.1891 15.8407 6.95654 15.8407 6.95654C15.8407 6.95654 15.4854 8.1891 15.4854 8.44858C15.4854 8.63671 15.5823 8.80538 15.8407 8.80538Z" fill="#FEC50C"/>
<path d="M20.7838 13.7611C20.7838 14.0206 20.9454 14.1179 21.1392 14.1179C21.3977 14.1179 22.6318 13.7611 22.6318 13.7611C22.6318 13.7611 21.3977 13.4043 21.1392 13.4043C20.9454 13.4043 20.7838 13.5016 20.7838 13.7611Z" fill="#FEC50C"/>
<path d="M15.8407 18.7241C15.5823 18.7241 15.4854 18.8863 15.4854 19.0809C15.4854 19.3404 15.8407 20.573 15.8407 20.573C15.8407 20.573 16.1961 19.3404 16.1961 19.0809C16.1961 18.8863 16.0992 18.7241 15.8407 18.7241Z" fill="#FEC50C"/>
<path d="M10.9041 13.7611C10.9041 13.5016 10.7426 13.4043 10.5488 13.4043C10.2903 13.4043 9.06262 13.7611 9.06262 13.7611C9.06262 13.7611 10.2903 14.1179 10.5488 14.1179C10.7361 14.1179 10.9041 14.0206 10.9041 13.7611Z" fill="#FEC50C"/>
<path d="M17.7339 9.18184C17.973 9.27915 18.1281 9.16238 18.1991 8.98723C18.2961 8.7472 18.4382 7.46924 18.4382 7.46924C18.4382 7.46924 17.637 8.47474 17.5401 8.71477C17.469 8.89641 17.4948 9.08453 17.7339 9.18184Z" fill="#FEC50C"/>
<path d="M20.4026 15.6621C20.3056 15.9021 20.422 16.0578 20.5964 16.1291C20.8355 16.2264 22.1084 16.3692 22.1084 16.3692C22.1084 16.3692 21.1069 15.5648 20.8678 15.4674C20.6933 15.3961 20.5059 15.422 20.4026 15.6621Z" fill="#FEC50C"/>
<path d="M13.9475 18.3478C13.7084 18.2505 13.5533 18.3672 13.4822 18.5424C13.3853 18.7824 13.2432 20.0604 13.2432 20.0604C13.2432 20.0604 14.0444 19.0549 14.1413 18.8148C14.2188 18.6332 14.1865 18.4451 13.9475 18.3478Z" fill="#FEC50C"/>
<path d="M11.2788 11.8673C11.3758 11.6272 11.2594 11.4715 11.085 11.4002C10.8459 11.3029 9.573 11.1602 9.573 11.1602C9.573 11.1602 10.5745 11.9646 10.8136 12.0619C10.9881 12.1332 11.1754 12.1073 11.2788 11.8673Z" fill="#FEC50C"/>
<path d="M19.3364 10.2582C19.5238 10.4398 19.7047 10.3944 19.8404 10.2582C20.0213 10.0765 20.6416 8.94775 20.6416 8.94775C20.6416 8.94775 19.5173 9.57052 19.3364 9.75216C19.2007 9.88839 19.149 10.0765 19.3364 10.2582Z" fill="#FEC50C"/>
<path d="M19.3364 17.2707C19.1554 17.4588 19.2007 17.6404 19.3364 17.7767C19.5173 17.9583 20.6416 18.5811 20.6416 18.5811C20.6416 18.5811 20.0213 17.4523 19.8404 17.2707C19.7047 17.1345 19.5173 17.089 19.3364 17.2707Z" fill="#FEC50C"/>
<path d="M12.345 17.2707C12.1576 17.089 11.9767 17.1345 11.841 17.2707C11.6601 17.4523 11.0398 18.5811 11.0398 18.5811C11.0398 18.5811 12.1641 17.9583 12.345 17.7767C12.4807 17.6404 12.5324 17.4523 12.345 17.2707Z" fill="#FEC50C"/>
<path d="M12.345 10.2582C12.5259 10.07 12.4807 9.88839 12.345 9.75216C12.1641 9.57052 11.0398 8.94775 11.0398 8.94775C11.0398 8.94775 11.6601 10.07 11.841 10.2582C11.9832 10.3944 12.1641 10.4398 12.345 10.2582Z" fill="#FEC50C"/>
<path d="M20.4026 11.8673C20.5059 12.1073 20.6933 12.1332 20.8678 12.0619C21.1069 11.9646 22.1084 11.1602 22.1084 11.1602C22.1084 11.1602 20.8355 11.3029 20.5964 11.4002C20.422 11.4715 20.3056 11.6272 20.4026 11.8673Z" fill="#FEC50C"/>
<path d="M17.7339 18.348C17.4948 18.4518 17.469 18.64 17.5401 18.8151C17.637 19.0551 18.4382 20.0607 18.4382 20.0607C18.4382 20.0607 18.2961 18.7827 18.1991 18.5427C18.1216 18.361 17.973 18.2443 17.7339 18.348Z" fill="#FEC50C"/>
<path d="M11.2788 15.6621C11.1754 15.422 10.9881 15.3961 10.8136 15.4674C10.5745 15.5648 9.573 16.3692 9.573 16.3692C9.573 16.3692 10.8459 16.2264 11.085 16.1291C11.2594 16.0578 11.3758 15.9021 11.2788 15.6621Z" fill="#FEC50C"/>
<path d="M13.9475 9.18184C14.1865 9.07805 14.2124 8.88992 14.1413 8.71477C14.0444 8.47474 13.2432 7.46924 13.2432 7.46924C13.2432 7.46924 13.3853 8.7472 13.4822 8.98723C13.5598 9.16887 13.7149 9.28563 13.9475 9.18184Z" fill="#FEC50C"/>
<path d="M16.8035 8.90247C17.0555 8.94788 17.1847 8.81165 17.2235 8.61704C17.2752 8.36404 17.1654 7.07959 17.1654 7.07959C17.1654 7.07959 16.5774 8.22132 16.5257 8.47432C16.4869 8.66894 16.5515 8.85058 16.8035 8.90247Z" fill="#FEC50C"/>
<path d="M20.6868 14.7342C20.6416 14.9872 20.7773 15.117 20.9711 15.1559C21.2231 15.2078 22.5025 15.0975 22.5025 15.0975C22.5025 15.0975 21.3653 14.5072 21.1133 14.4553C20.9195 14.4164 20.7385 14.4748 20.6868 14.7342Z" fill="#FEC50C"/>
<path d="M14.8779 18.6269C14.6259 18.5815 14.4967 18.7178 14.4579 18.9124C14.4062 19.1654 14.5161 20.4498 14.5161 20.4498C14.5161 20.4498 15.1041 19.3081 15.1558 19.0551C15.1945 18.8605 15.1299 18.6788 14.8779 18.6269Z" fill="#FEC50C"/>
<path d="M10.9945 12.7949C11.0397 12.5419 10.9041 12.4122 10.7102 12.3733C10.4582 12.3214 9.17883 12.4316 9.17883 12.4316C9.17883 12.4316 10.3161 13.022 10.5681 13.0739C10.7619 13.1128 10.9428 13.0544 10.9945 12.7949Z" fill="#FEC50C"/>
<path d="M18.5868 9.64208C18.8065 9.7848 18.9745 9.70047 19.0844 9.53829C19.2265 9.32421 19.6142 8.09814 19.6142 8.09814C19.6142 8.09814 18.6321 8.9285 18.4899 9.14257C18.3801 9.30475 18.3736 9.49936 18.5868 9.64208Z" fill="#FEC50C"/>
<path d="M20.4412 16.4211C20.2796 16.3108 20.0922 16.3043 19.9436 16.5184C19.8015 16.739 19.8855 16.9076 20.047 17.0179C20.2602 17.1606 21.4815 17.5499 21.4815 17.5499C21.4815 17.5499 20.6609 16.5703 20.4412 16.4211Z" fill="#FEC50C"/>
<path d="M13.0945 17.8873C12.8748 17.7446 12.7068 17.8289 12.597 17.9911C12.4548 18.2051 12.0671 19.4312 12.0671 19.4312C12.0671 19.4312 13.0493 18.6009 13.1914 18.3868C13.3013 18.2246 13.3142 18.03 13.0945 17.8873Z" fill="#FEC50C"/>
<path d="M11.2401 11.1083C11.4017 11.2185 11.589 11.225 11.7377 11.0109C11.8798 10.7904 11.7958 10.6217 11.6343 10.5114C11.4211 10.3687 10.1998 9.97949 10.1998 9.97949C10.1998 9.97949 11.0204 10.959 11.2401 11.1083Z" fill="#FEC50C"/>
<path d="M19.9502 11.0109C20.0988 11.225 20.2862 11.2185 20.4477 11.1083C20.6609 10.9655 21.488 9.97949 21.488 9.97949C21.488 9.97949 20.2668 10.3687 20.0536 10.5114C19.8856 10.6217 19.8016 10.7969 19.9502 11.0109Z" fill="#FEC50C"/>
<path d="M18.5868 17.8873C18.3736 18.0365 18.3801 18.2246 18.4899 18.3868C18.6321 18.6009 19.6142 19.4312 19.6142 19.4312C19.6142 19.4312 19.2265 18.2051 19.0844 17.9911C18.9745 17.8289 18.8001 17.7446 18.5868 17.8873Z" fill="#FEC50C"/>
<path d="M11.7312 16.5184C11.5826 16.3043 11.3952 16.3108 11.2337 16.4211C11.0204 16.5638 10.1934 17.5499 10.1934 17.5499C10.1934 17.5499 11.4146 17.1606 11.6278 17.0179C11.7958 16.9076 11.8798 16.7325 11.7312 16.5184Z" fill="#FEC50C"/>
<path d="M13.0945 9.64208C13.3077 9.49288 13.3013 9.30475 13.1914 9.14257C13.0493 8.9285 12.0671 8.09814 12.0671 8.09814C12.0671 8.09814 12.4548 9.32421 12.597 9.53829C12.7068 9.70047 12.8813 9.7848 13.0945 9.64208Z" fill="#FEC50C"/>
<path d="M20.9711 12.3796C20.7837 12.4185 20.6351 12.5483 20.6868 12.8013C20.7385 13.0543 20.9194 13.1191 21.1068 13.0802C21.3588 13.0283 22.496 12.438 22.496 12.438C22.496 12.438 21.2231 12.3277 20.9711 12.3796Z" fill="#FEC50C"/>
<path d="M16.8035 18.6272C16.5515 18.6791 16.4869 18.8607 16.5257 19.0488C16.5774 19.3018 17.1654 20.4436 17.1654 20.4436C17.1654 20.4436 17.2752 19.1591 17.2235 18.9061C17.1847 18.7245 17.0555 18.5817 16.8035 18.6272Z" fill="#FEC50C"/>
<path d="M10.7168 15.15C10.9042 15.1111 11.0528 14.9814 11.0011 14.7284C10.9494 14.4754 10.7685 14.4105 10.5811 14.4494C10.3291 14.5013 9.19189 15.0916 9.19189 15.0916C9.19189 15.0916 10.4583 15.2019 10.7168 15.15Z" fill="#FEC50C"/>
<path d="M14.8779 8.90282C15.1299 8.85093 15.1945 8.66929 15.1558 8.48116C15.1041 8.22816 14.5161 7.08643 14.5161 7.08643C14.5161 7.08643 14.4062 8.37088 14.4579 8.62388C14.4967 8.80552 14.6259 8.94823 14.8779 8.90282Z" fill="#FEC50C"/>
<path d="M15.0651 23.2202C14.9488 23.2267 14.8357 23.2429 14.7259 23.2786C14.5741 23.2981 14.4287 23.3532 14.2768 23.3759L14.2154 23.3856L14.1153 23.3954C14.1218 23.4246 14.125 23.4505 14.125 23.4797C14.125 23.5089 14.1218 23.5381 14.1153 23.5608C14.1088 23.5835 14.0894 23.6127 14.0733 23.6289C14.0507 23.6516 14.0281 23.6743 14.0022 23.6873C13.9764 23.7003 13.9473 23.7067 13.9182 23.7067C13.8891 23.7067 13.8601 23.7067 13.831 23.697C13.8019 23.6873 13.7761 23.6678 13.7502 23.6484C13.7211 23.6549 13.6888 23.6613 13.6598 23.6646C13.6307 23.6678 13.6016 23.6678 13.5758 23.6646C13.5467 23.6549 13.5144 23.6451 13.4853 23.6354C13.4562 23.6224 13.4271 23.6094 13.4013 23.59C13.2915 23.6549 13.1687 23.7165 13.1008 23.83C13.0621 23.8819 13.0556 23.9403 13.0459 24.0019C13.0395 24.0765 13.0588 24.1576 13.0911 24.229C13.1041 24.2484 13.1138 24.1544 13.1493 24.1414C13.2107 24.0895 13.2882 24.0538 13.3658 24.0343C13.4304 24.0019 13.4239 24.0376 13.3948 24.0895C13.3884 24.1154 13.3528 24.2192 13.4013 24.1673C13.621 24.07 13.8633 24.0506 14.0991 24.0311C14.4416 23.9954 14.7841 23.9889 15.1297 23.9825C15.4528 23.9857 15.7759 23.9922 16.099 24.0019C16.254 24.0052 16.4091 24.0408 16.561 24.0149C16.5965 24.0052 16.6547 24.0019 16.6773 23.9825C16.6094 23.9435 16.5287 23.9403 16.4511 23.9306H15.834C15.6628 23.9143 15.4851 23.9111 15.3236 23.8462C15.2816 23.83 15.2396 23.7878 15.2008 23.8332C15.1394 23.856 15.0748 23.8689 15.0102 23.8754C14.8971 23.8851 14.7841 23.8592 14.6807 23.817C14.755 23.7132 14.8454 23.6192 14.9294 23.5219C14.8616 23.5121 14.797 23.4959 14.7324 23.4797C14.8422 23.3986 14.9521 23.3045 15.0651 23.2202Z" fill="#FEC50C"/>
<path d="M20.0955 24.339C19.8628 24.4785 19.6819 24.2287 19.4881 24.1541C19.3492 24.2287 19.3362 24.485 19.2038 24.605C19.0487 24.7834 18.8549 24.5563 18.871 24.3779C18.6836 24.5369 18.5899 24.8937 18.2862 24.845C18.1441 24.7282 18.0375 24.4817 17.9276 24.7607C17.8372 24.8969 17.6013 25.0915 17.4786 24.8872C17.4398 24.7055 17.3493 24.4915 17.2492 24.7801C17.1813 24.9845 16.9649 25.1369 16.7516 25.0461C16.6353 24.952 16.8453 24.6017 16.6967 24.6244C16.477 24.7704 16.3478 25.1337 16.0441 25.1045C15.9246 24.9715 16.1152 24.7445 15.986 24.5953C15.8309 24.7931 15.6596 25.085 15.3947 25.1045C15.2655 25.0007 15.4012 24.699 15.3172 24.6536C15.0426 24.8191 14.755 25.111 14.4094 25.0202C14.545 24.5044 15.104 24.326 15.5756 24.2839C16.3866 24.1833 17.2395 24.3682 18.0181 24.073C18.1441 23.9952 18.4478 23.8882 18.3412 23.7098C18.2442 23.5703 18.5932 23.6254 18.6255 23.46C18.6061 23.2524 18.7838 23.2816 18.9615 23.2621C19.7498 23.2265 20.5284 23.3951 21.3135 23.4243C21.3716 23.8071 20.9484 24.0795 20.6059 23.9595C20.4412 23.9855 20.1988 23.5833 20.2473 23.8752C20.215 24.0341 20.2376 24.2352 20.0955 24.339ZM13.3949 23.5541C13.5758 23.7227 13.705 23.5216 13.8763 23.4503C14.4481 23.2524 14.9457 22.9086 15.4367 22.5648C15.734 22.3183 15.9924 21.9972 16.393 21.9161C17.1749 21.6793 18.0019 21.7085 18.787 21.4879C19.3847 20.6673 20.3959 20.3754 21.2456 19.9051C21.4362 19.8467 21.5105 19.6877 21.5719 19.5158C21.895 19.0033 22.3376 18.546 22.8577 18.2379C23.1033 18.1016 23.4005 18.0238 23.6784 18.0854C23.659 18.4195 23.4684 18.7147 23.2357 18.9482C23.4231 18.945 23.5879 18.825 23.7785 18.8314C23.8431 19.1753 23.4748 19.3537 23.2777 19.5677C23.3876 19.5937 23.8076 19.6261 23.5782 19.7364C23.2874 19.9375 22.9547 20.077 22.6865 20.3137C22.9353 20.3592 22.9611 20.4111 22.7091 20.5019C22.5734 20.5959 22.3118 20.6284 22.2859 20.8068C22.4733 20.9235 22.1987 21.0371 22.0953 21.076C21.895 21.1246 21.6818 21.2122 21.9499 21.3647C21.8498 21.5171 21.6301 21.5495 21.4524 21.5366C21.5073 21.7117 21.5848 21.9063 21.3587 21.9809C20.8547 22.3637 20.2602 22.6426 19.627 22.7075C20.4185 22.7691 21.2359 22.6199 21.9144 22.1885C22.0048 22.0815 22.4733 21.968 22.2116 21.8804C22.0888 21.8285 21.8239 21.7701 21.8045 21.676C22.1728 21.449 22.6348 21.5301 23.029 21.3939C23.0387 21.2641 22.7285 21.2998 22.6122 21.2706C22.3376 21.2479 22.3538 21.1765 22.6187 21.1506C22.9547 21.0598 23.3359 21.0436 23.6202 20.823C23.3908 20.716 23.1001 20.81 22.8545 20.7224C23.2713 20.5376 23.7624 20.5213 24.1371 20.2456C24.3084 20.0543 23.9174 20.1159 23.8044 20.1191C23.5717 20.1581 23.4651 20.0478 23.73 19.9537C24.1791 19.6229 24.7445 19.4055 25.0611 18.9255C25.1354 18.8185 25.2356 18.4941 24.9997 18.6109C24.6863 18.7147 24.4117 19.0682 24.0564 18.9579C24.7574 18.413 25.4262 17.7903 25.9076 17.0345C25.9334 16.8172 25.591 16.7912 25.5037 16.9631C25.0514 17.401 24.6443 17.9135 24.066 18.1892C24.6185 17.654 25.0773 17.0183 25.4747 16.3598C25.5587 16.1652 25.7913 15.9284 25.6653 15.7111C25.465 15.5425 25.213 15.6982 25.1096 15.896C24.7574 16.3566 24.4925 16.8918 24.0402 17.2648C24.4344 16.509 24.8447 15.7046 24.8543 14.8321C24.8543 14.6537 24.8156 14.3878 24.5733 14.4202C24.3794 14.4559 24.4279 14.7445 24.3471 14.8905C24.1727 15.4873 24.0887 16.1328 23.73 16.655C23.8108 16.1717 23.953 15.6657 23.8431 15.1759C23.7914 14.9586 23.4425 15.0527 23.4877 15.2668C23.0677 17.4043 21.6398 19.2726 19.7724 20.3527C18.9162 20.8392 17.9632 21.1506 16.9907 21.2933C16.729 21.3517 16.448 21.316 16.196 21.4068C15.5918 21.8739 15.2235 22.6524 14.4578 22.8956C14.1154 23.0675 13.6663 23.1032 13.4207 23.4211C13.4014 23.46 13.3949 23.5087 13.3949 23.5541Z" fill="#FEC50C"/>
<path d="M15.6887 21.3841C15.5756 21.5917 15.5078 21.8285 15.3624 22.0101C14.9262 21.6112 14.2898 21.6241 13.7373 21.5982C13.2786 21.5722 12.781 21.5301 12.4256 21.2025C12.0541 20.8943 11.7472 20.4986 11.3304 20.2489C10.9492 20.1451 10.568 20.0153 10.261 19.7526C9.60844 19.2174 9.23367 18.426 8.59399 17.8746C8.47122 17.7546 8.32906 17.6605 8.19337 17.5599C8.06414 17.5924 8.1223 17.8713 7.96399 17.7286C7.87676 17.667 7.66353 17.6605 7.64092 17.7481C7.83476 18.0076 8.03184 18.2995 8.05768 18.6303C7.92522 18.6433 7.68938 18.6011 7.62153 18.653C7.79922 18.919 8.02537 19.1558 8.28383 19.3439C8.16107 19.3634 7.91553 19.3536 7.8703 19.4023C8.12553 19.6099 8.40014 19.824 8.73291 19.8791C8.80075 19.9699 8.63275 20.1451 8.77491 20.2229C8.85568 20.2554 9.12706 20.3137 8.94291 20.4078C8.81368 20.4954 8.86214 20.6965 9.02691 20.6932C9.13029 20.7451 9.3629 20.7581 9.38229 20.8522C9.29183 20.9462 9.00429 21.0565 9.2466 21.1441C9.47275 21.2706 9.73444 21.3517 9.9929 21.3614C9.86367 21.4717 9.70213 21.5333 9.56644 21.6371C10.1641 21.9907 10.8297 22.221 11.4855 22.4448C11.7472 22.5323 12.0121 22.6134 12.2835 22.6653C11.4952 22.6199 10.736 22.3864 10.0187 22.0653C9.64721 21.9031 9.27244 21.7441 8.89121 21.6014C9.05921 21.5139 9.24983 21.4944 9.42429 21.4165C9.06567 21.3452 8.67152 21.3192 8.35491 21.1214C8.40337 21.0338 8.58752 21.0306 8.68768 20.9852C8.87829 20.9397 8.99783 20.8846 8.72645 20.8684C8.45506 20.7938 8.14491 20.8262 7.90261 20.664C7.91876 20.5667 8.16753 20.5992 8.27091 20.557C8.40014 20.5343 8.54229 20.5148 8.64568 20.4305C8.22568 20.2554 7.67645 20.3786 7.34692 20.0088C7.27261 19.8661 7.58276 19.9829 7.66999 19.9569C7.89614 19.9569 8.13845 20.0283 8.35168 19.9375C7.74107 19.6683 7.08523 19.4153 6.61677 18.9158C6.56508 18.8347 6.41 18.6173 6.536 18.5882C6.89784 18.6368 7.16277 19.0358 7.55045 18.9709C7.60215 18.8995 7.3243 18.786 7.25646 18.6855C6.69108 18.1989 6.14185 17.667 5.74447 17.028C5.71862 16.8139 6.05139 16.7815 6.13862 16.9469C6.57154 17.3653 6.96246 17.8551 7.50199 18.1405C7.69261 18.2346 7.39215 18.0303 7.35338 17.9557C6.85584 17.3751 6.38093 16.762 6.032 16.0776C5.97062 15.9544 5.86724 15.7306 6.05139 15.6657C6.23877 15.5716 6.42292 15.6981 6.51662 15.8603C6.88169 16.3241 7.15307 16.8756 7.60861 17.2615C7.22092 16.5025 6.80415 15.7079 6.79446 14.8354C6.80415 14.6667 6.81385 14.4104 7.04323 14.4169C7.23384 14.3877 7.20477 14.6343 7.26615 14.751C7.45353 15.39 7.53753 16.0841 7.91553 16.6517C7.83153 16.1782 7.70876 15.6884 7.78953 15.2051C7.80891 15.0462 7.98661 14.9975 8.10291 15.0948C8.1966 15.3251 8.21599 15.6106 8.30322 15.8571C8.79106 17.5275 9.88305 18.9968 11.3046 19.9829C12.4773 20.7905 13.8698 21.2738 15.2881 21.3549C15.4335 21.3744 15.5627 21.3776 15.6887 21.3841Z" fill="#FEC50C"/>
<path d="M13.886 23.603C13.9288 23.603 13.9635 23.5681 13.9635 23.5251C13.9635 23.4821 13.9288 23.4473 13.886 23.4473C13.8432 23.4473 13.8085 23.4821 13.8085 23.5251C13.8085 23.5681 13.8432 23.603 13.886 23.603Z" fill="#FEC50C"/>
<path d="M13.8795 23.5444C13.8973 23.5444 13.9118 23.5298 13.9118 23.5119C13.9118 23.494 13.8973 23.4795 13.8795 23.4795C13.8616 23.4795 13.8472 23.494 13.8472 23.5119C13.8472 23.5298 13.8616 23.5444 13.8795 23.5444Z" fill="#FEC50C" stroke="#00AFCA" stroke-width="0.00589813" stroke-miterlimit="2"/>
</g>
<defs>
<clipPath id="clip0_2079_26331">
<rect width="20.1534" height="18.1575" fill="white" transform="translate(5.75439 6.95068)"/>
</clipPath>
</defs>
</svg>
