<svg width="48" height="48" viewBox="0 0 48 48" fill="none" xmlns="http://www.w3.org/2000/svg">
<circle cx="24" cy="24" r="24" fill="#08A652"/>
<path fill-rule="evenodd" clip-rule="evenodd" d="M24 42C33.9411 42 42 33.9411 42 24C42 14.0589 33.9411 6 24 6C14.0589 6 6 14.0589 6 24C6 33.9411 14.0589 42 24 42Z" fill="#08A652"/>
<path d="M24.0009 14.7714H23.9996C21.621 14.7714 19.45 15.6757 17.8115 17.1594C15.9457 18.849 14.7732 21.2894 14.7723 23.9995C14.7723 26.3787 15.6778 28.5501 17.1606 30.1888L17.1617 30.1878C18.8512 32.0536 21.2918 33.2277 24.001 33.2277C26.3798 33.2275 28.5511 32.3219 30.1897 30.839L30.1887 30.838C32.0545 29.1484 33.2286 26.7078 33.2286 23.9986C33.2286 23.9166 33.2268 23.8346 33.2249 23.7526L35.8078 21.8491C35.934 22.5474 36 23.2654 36 23.9995C36 27.3133 34.6564 30.3139 32.4851 32.4847C30.313 34.6567 27.3132 36 24.0001 36L23.9707 36C20.6691 35.9918 17.6803 34.65 15.5154 32.4846C13.3434 30.3125 12 27.3127 12 23.9995C12 20.6864 13.3428 17.6863 15.5142 15.5149C17.6862 13.3428 20.6865 12 23.9996 12H24.0009C26.8561 12 29.4776 12.997 31.5375 14.6621L29.2034 16.3818C27.8396 15.448 26.2141 14.8692 24.4605 14.7834C24.3786 14.7794 24.2964 14.777 24.214 14.7746C24.1432 14.7731 24.0721 14.7713 24.0009 14.7714Z" fill="white"/>
<path d="M34.9343 19.0476C34.5471 18.1948 34.0627 17.3948 33.4963 16.6626L24.0007 23.6612L19.4324 20.7975V24.2426L24.0007 27.1063L34.9343 19.0476Z" fill="white"/>
</svg>
