<svg width="36" height="36" viewBox="0 0 36 36" fill="none" xmlns="http://www.w3.org/2000/svg">
<path fill-rule="evenodd" clip-rule="evenodd" d="M7 9C7 7.89543 7.89543 7 9 7H27C28.1046 7 29 7.89543 29 9V27C29 28.1046 28.1046 29 27 29V30C27 30.8284 26.3284 31.5 25.5 31.5C24.6716 31.5 24 30.8284 24 30V29H12V30C12 30.8284 11.3284 31.5 10.5 31.5C9.67157 31.5 9 30.8284 9 30L9 29C7.89543 29 7 28.1046 7 27V9Z" fill="#0EBAB1"/>
<circle cx="18" cy="18" r="4" stroke="white"  fill="none" stroke-width="2"/>
</svg>
