<svg width="36" height="36" viewBox="0 0 36 36" fill="none" xmlns="http://www.w3.org/2000/svg">
<path fill-rule="evenodd" d="M30.3135 8.39691H5.68649C5.58449 8.39691 5.48149 8.39691 5.37849 8.39791C5.29249 8.39791 5.20649 8.39891 5.11949 8.40191C4.93149 8.40691 4.74149 8.41791 4.55549 8.45091C4.36649 8.48491 4.19049 8.54091 4.01949 8.62791C3.85049 8.71391 3.69649 8.82591 3.56249 8.95991C3.42849 9.09391 3.31649 9.24791 3.23049 9.41691C3.14349 9.58791 3.08749 9.76391 3.05449 9.95291C3.02049 10.1389 3.00949 10.3289 3.00449 10.5169C3.00149 10.6039 3.00149 10.6899 3.00049 10.7759C3.00049 10.8789 3.00049 10.9809 3.00049 11.0839V24.9169C3.00049 25.0189 3.00049 25.1219 3.00049 25.2239C3.00149 25.3109 3.00149 25.3969 3.00449 25.4829C3.00949 25.6709 3.02049 25.8609 3.05449 26.0469C3.08749 26.2359 3.14349 26.4119 3.23049 26.5839C3.31649 26.7519 3.42849 26.9069 3.56249 27.0399C3.69649 27.1739 3.85049 27.2869 4.01949 27.3719C4.19049 27.4589 4.36649 27.5149 4.55549 27.5489C4.74149 27.5819 4.93149 27.5929 5.11949 27.5989C5.20649 27.6009 5.29249 27.6019 5.37849 27.6019C5.48149 27.6029 5.58449 27.6029 5.68649 27.6029H30.3135C30.4165 27.6029 30.5185 27.6029 30.6215 27.6019C30.7075 27.6019 30.7935 27.6009 30.8805 27.5989C31.0685 27.5929 31.2585 27.5819 31.4445 27.5489C31.6335 27.5149 31.8095 27.4589 31.9805 27.3719C32.1495 27.2869 32.3035 27.1739 32.4375 27.0399C32.5705 26.9069 32.6835 26.7519 32.7695 26.5839C32.8565 26.4119 32.9125 26.2359 32.9455 26.0469C32.9795 25.8609 32.9905 25.6709 32.9955 25.4829C32.9975 25.3969 32.9995 25.3109 32.9995 25.2239C33.0005 25.1219 33.0005 25.0189 33.0005 24.9169V11.0839C33.0005 10.9809 33.0005 10.8789 32.9995 10.7759C32.9995 10.6899 32.9975 10.6039 32.9955 10.5169C32.9905 10.3289 32.9795 10.1389 32.9455 9.95291C32.9125 9.76391 32.8565 9.58791 32.7695 9.41691C32.6835 9.24791 32.5705 9.09391 32.4375 8.95991C32.3035 8.82591 32.1495 8.71391 31.9805 8.62791C31.8095 8.54091 31.6335 8.48491 31.4445 8.45091C31.2585 8.41791 31.0685 8.40691 30.8805 8.40191C30.7935 8.39891 30.7075 8.39791 30.6215 8.39791C30.5185 8.39691 30.4165 8.39691 30.3135 8.39691Z" fill="white" />
<path fill-rule="evenodd" d="M30.3135 8.39691H5.68649C5.58449 8.39691 5.48149 8.39691 5.37849 8.39791C5.29249 8.39791 5.20649 8.39891 5.11949 8.40191C4.93149 8.40691 4.74149 8.41791 4.55549 8.45091C4.36649 8.48491 4.19049 8.54091 4.01949 8.62791C3.85049 8.71391 3.69649 8.82591 3.56249 8.95991C3.42849 9.09391 3.31649 9.24791 3.23049 9.41691C3.14349 9.58791 3.08749 9.76391 3.05449 9.95291C3.02049 10.1389 3.00949 10.3289 3.00449 10.5169C3.00224 10.5821 3.00168 10.6468 3.00111 10.7113L3.00049 10.7759V11.0839V24.9169V25.2239L3.00111 25.2886C3.00167 25.3536 3.00223 25.4183 3.00449 25.4829C3.00949 25.6709 3.02049 25.8609 3.05449 26.0469C3.08749 26.2359 3.14349 26.4119 3.23049 26.5839C3.31649 26.7519 3.42849 26.9069 3.56249 27.0399C3.69649 27.1739 3.85049 27.2869 4.01949 27.3719C4.19049 27.4589 4.36649 27.5149 4.55549 27.5489C4.74149 27.5819 4.93149 27.5929 5.11949 27.5989C5.20649 27.6009 5.29249 27.6019 5.37849 27.6019C5.48149 27.6029 5.58449 27.6029 5.68649 27.6029H30.3135C30.4165 27.6029 30.5185 27.6029 30.6215 27.6019C30.7075 27.6019 30.7935 27.6009 30.8805 27.5989C31.0685 27.5929 31.2585 27.5819 31.4445 27.5489C31.6335 27.5149 31.8095 27.4589 31.9805 27.3719C32.1495 27.2869 32.3035 27.1739 32.4375 27.0399C32.5705 26.9069 32.6835 26.7519 32.7695 26.5839C32.8565 26.4119 32.9125 26.2359 32.9455 26.0469C32.9795 25.8609 32.9905 25.6709 32.9955 25.4829C32.9975 25.3969 32.9995 25.3109 32.9995 25.2239C33.0005 25.1219 33.0005 25.0189 33.0005 24.9169V11.0839C33.0005 10.9809 33.0005 10.8789 32.9995 10.7759C32.9995 10.6908 32.9975 10.6057 32.9956 10.5196L32.9955 10.5169C32.9905 10.3289 32.9795 10.1389 32.9455 9.95291C32.9125 9.76391 32.8565 9.58791 32.7695 9.41691C32.6835 9.24791 32.5705 9.09391 32.4375 8.95991C32.3035 8.82591 32.1495 8.71391 31.9805 8.62791C31.8095 8.54091 31.6335 8.48491 31.4445 8.45091C31.2585 8.41791 31.0685 8.40691 30.8805 8.40191C30.7935 8.39891 30.7075 8.39791 30.6215 8.39791C30.5185 8.39691 30.4165 8.39691 30.3135 8.39691ZM30.3135 9.03711L30.6165 9.03811C30.6985 9.03811 30.7805 9.03911 30.8625 9.04111C31.0065 9.04511 31.1745 9.05311 31.3315 9.08111C31.4675 9.10611 31.5815 9.14311 31.6905 9.19911C31.7985 9.25411 31.8975 9.32611 31.9845 9.41211C32.0715 9.49911 32.1435 9.59811 32.1985 9.70711C32.2545 9.81611 32.2915 9.93011 32.3155 10.0671C32.3435 10.2221 32.3515 10.3901 32.3555 10.5351C32.3575 10.6161 32.3585 10.6981 32.3585 10.7811C32.3595 10.8819 32.3595 10.9827 32.3595 11.0835V11.0841V24.9161C32.3595 25.0171 32.3595 25.1181 32.3585 25.2211C32.3585 25.3031 32.3575 25.3841 32.3555 25.4661C32.3515 25.6101 32.3435 25.7781 32.3155 25.9351C32.2915 26.0701 32.2545 26.1831 32.1985 26.2931C32.1435 26.4021 32.0715 26.5011 31.9845 26.5871C31.8975 26.6741 31.7985 26.7461 31.6895 26.8021C31.5815 26.8571 31.4665 26.8941 31.3325 26.9191C31.1725 26.9471 30.9975 26.9551 30.8655 26.9581C30.7825 26.9601 30.7005 26.9611 30.6155 26.9621C30.5155 26.9631 30.4145 26.9631 30.3135 26.9631H5.68649H5.68249C5.58349 26.9631 5.48349 26.9631 5.38149 26.9621L5.37867 26.9621C5.29758 26.9611 5.21558 26.9601 5.13749 26.9581C5.00249 26.9551 4.82749 26.9471 4.66849 26.9191C4.53249 26.8941 4.41849 26.8571 4.30949 26.8011C4.20049 26.7461 4.10249 26.6741 4.01449 26.5871C3.92849 26.5011 3.85649 26.4021 3.80149 26.2931C3.74549 26.1841 3.70849 26.0701 3.68449 25.9331C3.65549 25.7771 3.64749 25.6091 3.64449 25.4661C3.64251 25.3851 3.64151 25.3041 3.64052 25.2241L3.64049 25.2211V24.9801V24.9161V11.0841V11.0201V10.7801C3.64149 10.6981 3.64249 10.6161 3.64449 10.5341C3.64749 10.3911 3.65549 10.2231 3.68449 10.0651C3.70849 9.93011 3.74549 9.81611 3.80149 9.70611C3.85649 9.59811 3.92849 9.49911 4.01549 9.41211C4.10149 9.32611 4.20049 9.25411 4.30949 9.19911C4.41849 9.14311 4.53249 9.10611 4.66849 9.08111C4.82549 9.05311 4.99349 9.04511 5.13749 9.04111C5.21949 9.03911 5.30149 9.03811 5.38249 9.03811L5.68649 9.03711H30.3135ZM11.5749 13.6639C11.6209 14.1039 11.4469 14.5359 11.1899 14.8569C10.9239 15.1689 10.5019 15.4169 10.0799 15.3799C10.0249 14.9579 10.2359 14.5079 10.4749 14.2329C10.7399 13.9119 11.1989 13.6819 11.5749 13.6639ZM11.5703 15.4624C11.1976 15.4405 10.859 15.5739 10.5849 15.6818C10.4081 15.7514 10.2582 15.8104 10.1433 15.8104C10.0166 15.8104 9.86099 15.7489 9.68592 15.6798L9.68592 15.6798C9.45603 15.5889 9.19262 15.4849 8.91729 15.4894C8.28629 15.4994 7.70029 15.8564 7.38029 16.4234C6.72129 17.5584 7.20629 19.2424 7.84729 20.1674C8.15829 20.6244 8.53329 21.1284 9.02729 21.1104C9.24286 21.1016 9.39787 21.0363 9.55845 20.9687C9.74499 20.8901 9.93905 20.8084 10.2443 20.8084C10.5346 20.8084 10.7193 20.8876 10.8967 20.9636C11.0657 21.0361 11.2282 21.1058 11.4693 21.1014C11.9823 21.0914 12.3023 20.6434 12.6133 20.1854C12.9549 19.6868 13.1033 19.2038 13.1234 19.1386L13.1253 19.1324C13.1248 19.132 13.1213 19.1304 13.115 19.1276C13.0099 19.08 12.1368 18.6855 12.1283 17.6224C12.1199 16.739 12.8022 16.29 12.918 16.2138C12.9258 16.2086 12.931 16.2052 12.9333 16.2034C12.4943 15.5544 11.8083 15.4814 11.5703 15.4624ZM19.1679 16.442C19.1679 15.105 18.2399 14.187 16.9079 14.187H14.3339V21.053H15.3989V18.708H16.8749C18.2209 18.708 19.1679 17.784 19.1679 16.442ZM15.3989 17.813H16.6219C17.5499 17.813 18.0779 17.313 18.0779 16.447C18.0779 15.581 17.5499 15.086 16.6269 15.086H15.3989V17.813ZM21.3062 18.1507C20.1172 18.2177 19.4462 18.7547 19.4462 19.6307C19.4462 20.5297 20.1312 21.1387 21.1122 21.1387C21.7682 21.1387 22.4012 20.7867 22.6912 20.2297H22.7152V21.0537H23.7002V17.6037C23.7002 16.5997 22.9252 15.9567 21.7112 15.9567C20.4742 15.9567 19.7032 16.6227 19.6462 17.5277H20.6162C20.7072 17.0797 21.0782 16.7947 21.6732 16.7947C22.3012 16.7947 22.6772 17.1277 22.6772 17.6847V18.0697L21.3062 18.1507ZM22.6772 19.1787V18.7837L21.4452 18.8597C20.8312 18.9027 20.4832 19.1737 20.4832 19.6017C20.4832 20.0397 20.8452 20.3247 21.3972 20.3247C22.1152 20.3247 22.6772 19.8307 22.6772 19.1787ZM24.6304 22.062V22.895C24.7064 22.909 24.9634 22.918 25.0484 22.918C26.0864 22.918 26.5814 22.528 27.0094 21.315L28.8844 16.047H27.7994L26.5334 20.121H26.5144L25.2484 16.047H24.1354L25.9434 21.058C25.9434 21.0601 25.927 21.1152 25.9082 21.1782C25.8829 21.2628 25.8534 21.3619 25.8534 21.367C25.6954 21.881 25.4394 22.081 24.9634 22.081C24.8774 22.081 24.7064 22.081 24.6304 22.062Z" fill="black" />
</svg>
