<svg width="48" height="48" viewBox="0 0 48 48" fill="none" xmlns="http://www.w3.org/2000/svg">
<circle cx="24" cy="24" r="21" fill="white" stroke="#33CCFF" stroke-width="6"/>
<path fill-rule="evenodd" clip-rule="evenodd" d="M42 24C42 33.941 33.941 42 24 42C14.059 42 6 33.941 6 24C6 14.059 14.059 6 24 6C33.941 6 42 14.059 42 24ZM24 20V16.4141C24 15.5231 22.923 15.0771 22.293 15.7071L14.707 23.2931C14.316 23.6831 14.316 24.3161 14.707 24.7071L22.293 32.2931C22.923 32.9231 24 32.4761 24 31.5861V28H34C34 23.582 30.418 20 26 20H24Z" fill="#33CCFF"/>
</svg>
