<svg width="32" height="32" viewBox="0 0 32 32" fill="none" xmlns="http://www.w3.org/2000/svg">
<path d="M16 32C24.8366 32 32 24.8366 32 16C32 7.16344 24.8366 0 16 0C7.16344 0 0 7.16344 0 16C0 24.8366 7.16344 32 16 32Z" fill="#F0F0F0"/>
<path d="M31.0044 21.5644C31.6647 19.7836 32.0018 17.8993 32 16C32.0019 14.1004 31.6648 12.2158 31.0044 10.4347H0.995556C0.335245 12.2158 -0.0018929 14.1004 2.99874e-07 16C-0.0018929 17.8996 0.335245 19.7842 0.995556 21.5653L16 22.9564L31.0044 21.5653V21.5644Z" fill="#0052B4"/>
<path d="M16 32C22.88 32 28.744 27.6578 31.0044 21.5644H0.995552C3.256 27.6578 9.12 32 16 32Z" fill="#D80027"/>
</svg>
