<svg width="48" height="48" viewBox="0 0 36 36" fill="none" xmlns="http://www.w3.org/2000/svg">
<circle cx="18" cy="18" r="15" fill="white" stroke="#067DCC" stroke-width="6"/>
<g clip-path="url(#clip0_1803_18505)">
<path fill-rule="evenodd" clip-rule="evenodd" d="M31.5 18C31.5 25.4557 25.4557 31.5 18 31.5C10.5443 31.5 4.5 25.4557 4.5 18C4.5 10.5443 10.5443 4.5 18 4.5C25.4557 4.5 31.5 10.5443 31.5 18ZM14.5534 21.8318C14.9803 23.2474 15.6407 24.5164 16.4879 25.5395C14.7341 25.189 13.1956 24.2425 12.0928 22.9199C12.8109 22.473 13.6206 22.1123 14.4925 21.8493L14.5534 21.8318ZM23.9073 22.919L23.8369 23.0029C22.7396 24.2821 21.229 25.1963 19.5121 25.5388C20.3592 24.5161 21.0196 23.2473 21.4465 21.832C22.3415 22.0954 23.1721 22.4624 23.9073 22.919ZM17.9997 21.3442C18.8065 21.3442 19.5955 21.4201 20.3508 21.5652C19.8606 23.1631 19.0454 24.5368 17.9997 25.507C16.9544 24.5368 16.1394 23.1632 15.6483 21.5658C16.4043 21.4201 17.1931 21.3442 17.9997 21.3442ZM24.5642 13.9968C25.2768 15.1628 25.6875 16.5335 25.6875 18C25.6875 19.4665 25.2768 20.8372 24.5642 22.0032C23.7145 21.4665 22.7547 21.0406 21.7223 20.7396C21.9045 19.8622 22.0001 18.9422 22.0001 18C22.0001 17.0573 21.9044 16.1367 21.7228 15.2588C22.6552 14.9886 23.5291 14.6144 24.3161 14.1488L24.5642 13.9968ZM14.277 15.2602L14.2532 15.3776C14.0871 16.2196 13.9999 17.0997 13.9999 18C13.9999 18.9425 14.0955 19.8629 14.2771 20.7406C13.2448 21.0408 12.2852 21.4667 11.4359 22.003C10.7232 20.8372 10.3125 19.4665 10.3125 18C10.3125 16.5335 10.7232 15.1628 11.4358 13.9968C12.2853 14.5334 13.2448 14.9592 14.277 15.2602ZM20.6292 15.5258C20.7899 16.3163 20.8751 17.1471 20.8751 18C20.8751 18.8529 20.7899 19.6837 20.6292 20.4742C19.783 20.3062 18.9006 20.2192 17.9997 20.2192C17.099 20.2192 16.2167 20.3062 15.3711 20.4733C15.21 19.6836 15.1249 18.8528 15.1249 18C15.1249 17.1472 15.21 16.3164 15.3708 15.5259C16.217 15.6938 17.0994 15.7808 18.0003 15.7808C18.8897 15.7808 19.7611 15.696 20.597 15.5331L20.6292 15.5258ZM17.9997 10.493L18.1686 10.6552C19.1331 11.6135 19.8871 12.9235 20.3515 14.4338C19.5961 14.5799 18.8071 14.6558 18.0003 14.6558C17.1935 14.6558 16.4045 14.5799 15.6492 14.4348C16.1127 12.9238 16.8665 11.6136 17.8308 10.6552L17.9997 10.493ZM16.4879 10.4605C15.6407 11.4836 14.9803 12.7526 14.5534 14.1682C13.6585 13.9046 12.8279 13.5376 12.0927 13.081C13.1668 11.7921 14.6541 10.8607 16.3509 10.4898L16.4879 10.4605ZM19.5121 10.4612C21.2662 10.8111 22.805 11.7579 23.9078 13.0809C23.1721 13.5377 22.3415 13.9047 21.4466 14.169C21.0282 12.7815 20.3863 11.5363 19.5644 10.5247L19.5121 10.4612Z" fill="#067DCC"/>
</g>
<defs>
<clipPath id="clip0_1803_18505">
<rect width="27" height="27" fill="white" transform="translate(4.5 4.5)"/>
</clipPath>
</defs>
</svg>
