<svg width="32" height="32" viewBox="0 0 32 32" fill="none" xmlns="http://www.w3.org/2000/svg">
<path d="M16 32C24.8366 32 32 24.8366 32 16C32 7.16344 24.8366 0 16 0C7.16344 0 0 7.16344 0 16C0 24.8366 7.16344 32 16 32Z" fill="#F0F0F0"/>
<path fill-rule="evenodd" clip-rule="evenodd" d="M25.7412 3.30768L25.7422 3.30845V3.30667L25.7412 3.30768ZM25.7412 3.30768C24.1059 2.05117 22.2218 1.10212 20.1742 0.551117V8.87467L25.7412 3.30768ZM0.551117 11.8267C1.10223 9.77956 2.04978 7.89512 3.30667 6.25956L8.87467 11.8267H0.551117ZM28.6933 6.25956C29.9681 7.91658 30.9044 9.8082 31.4489 11.8267H23.1262L28.6933 6.25956ZM0.551117 20.1742L0.551356 20.1751H0.551117V20.1742ZM0.551356 20.1751H8.87378L3.30667 25.7422C2.05174 24.1069 1.1025 22.2228 0.551356 20.1751ZM6.25956 28.6933C7.89512 29.9502 9.77956 30.8978 11.8267 31.4489V23.1253L6.25956 28.6933ZM6.25956 3.30667C7.91658 2.03191 9.8082 1.09561 11.8267 0.551117V8.87378L6.25956 3.30667ZM20.1733 31.4489C22.1918 30.9044 24.0834 29.9681 25.7404 28.6933L20.1733 23.1262V31.4489ZM28.6916 25.7413L23.1245 20.1742H31.4471C30.896 22.2213 29.9485 24.1058 28.6916 25.7413Z" fill="#0052B4"/>
<path fill-rule="evenodd" clip-rule="evenodd" d="M31.8649 13.9129H18.0871V0.135086C16.7015 -0.0453744 15.2984 -0.0453744 13.9129 0.135086V13.9129H0.135086C-0.0453744 15.2984 -0.0453744 16.7015 0.135086 18.0871H13.9129V31.8649C15.2984 32.0453 16.7015 32.0453 18.0871 31.8649V18.0871H31.8649C32.0453 16.7015 32.0453 15.2984 31.8649 13.9129ZM20.1742 20.1742L27.3138 27.3138L28.2542 26.2862L22.1413 20.1733H20.1733L20.1742 20.1742ZM4.68623 27.3138L11.8258 20.1742H11.8267V22.1413L5.71378 28.2542L4.68623 27.3138ZM11.8258 11.8258L4.68623 4.68623L3.74578 5.71378L9.85867 11.8267H11.8267L11.8258 11.8258ZM27.3138 4.68623L20.1742 11.8258L20.1733 11.8267V9.85867L26.2862 3.74578L27.3138 4.68623Z" fill="#D80027"/>
</svg>
