<svg width="17" height="17" viewBox="0 0 17 17" fill="none" xmlns="http://www.w3.org/2000/svg">
<path fill-rule="evenodd" clip-rule="evenodd" d="M12 7C12 9.76142 9.76142 12 7 12C4.23858 12 2 9.76142 2 7C2 4.23858 4.23858 2 7 2C9.76142 2 12 4.23858 12 7ZM11.1918 12.6067C10.0233 13.4817 8.57217 14 7 14C3.13401 14 0 10.866 0 7C0 3.13401 3.13401 0 7 0C10.866 0 14 3.13401 14 7C14 8.5725 13.4815 10.0239 12.6061 11.1925L15.7184 14.3049C16.109 14.6954 16.109 15.3285 15.7184 15.7191C15.3279 16.1096 14.6947 16.1096 14.3042 15.7191L11.1918 12.6067Z" fill="#232323" fill-opacity="0.24"/>
</svg>
