<svg width="256" height="160" viewBox="0 0 256 160" fill="none" xmlns="http://www.w3.org/2000/svg">
<path opacity="0.25" fill-rule="evenodd" clip-rule="evenodd" d="M136.626 98.8888L149.428 93.7588L162.17 125.459L156.3 127.809L155.518 125.809C155.518 125.809 154.016 128.679 149.368 130.539C144.72 132.399 138.96 131.539 137.718 128.409C136.896 126.34 138.912 125.857 141.286 125.288C142.505 124.997 143.817 124.681 144.89 124.119C148.056 122.459 148.346 120.459 148.346 120.459C148.346 120.459 140.522 109.699 136.626 98.8888ZM104.239 95.2688L117.072 100.329L104.48 132.089L98.5996 129.769L99.371 127.769C99.371 127.769 96.3057 128.819 91.6576 126.979C87.0095 125.139 83.4433 120.529 84.6454 117.429C85.4408 115.378 87.2363 116.4 89.3671 117.613L89.3793 117.62C90.4653 118.238 91.638 118.906 92.8096 119.239C96.2856 120.229 97.8183 118.959 97.8183 118.959C97.8183 118.959 99.5814 105.819 104.239 95.2688Z" fill="#FE8240"/>
<path fill-rule="evenodd" clip-rule="evenodd" d="M112.053 94.7134C105.558 92.6851 99.5838 89.1104 94.683 84.2181C86.7224 76.2713 82.2443 65.497 82.231 54.2585C82.231 53.3185 82.231 52.3685 82.3412 51.3485L78.6956 47.7092C74.2118 47.7154 63.3984 50.5484 63.3984 50.5484C64.0426 49.328 64.9657 48.2762 66.0931 47.4784C67.7209 46.2241 72.8961 43.6815 75.0087 42.6639C74.6413 41.623 74.4484 40.5181 74.4484 39.3935C74.4484 36.7852 75.4858 34.2837 77.3325 32.4385C80.933 28.8497 85.813 26.834 90.9011 26.834C95.9891 26.834 100.869 28.8497 104.47 32.4385L108.537 36.4885H109.358C119.15 36.4534 128.814 38.705 137.578 43.0631C138.903 43.7214 140.201 44.4251 141.471 45.1723C141.558 45.0863 141.661 45.0172 141.774 44.9685C142.833 44.5463 143.827 43.9891 144.733 43.3143C141.26 41.0127 136.263 34.8677 134.762 32.9684L115.549 36.1484C115.287 36.1919 115.019 36.1299 114.803 35.9762C114.587 35.8224 114.441 35.5895 114.397 35.3284C114.353 35.0672 114.416 34.7995 114.569 34.5839C114.723 34.3683 114.957 34.2225 115.218 34.1784L135.023 30.8884C135.209 30.8505 135.401 30.8662 135.579 30.9334C135.756 31.0008 135.911 31.1169 136.024 31.2684C137.934 33.775 143.437 40.3235 146.326 41.9111C146.638 41.5868 146.936 41.2455 147.214 40.8885C147.361 40.667 147.591 40.5131 147.852 40.4607C148.113 40.4081 148.385 40.4613 148.606 40.6085C148.828 40.7557 148.982 40.9849 149.035 41.2455C149.087 41.5062 149.035 41.777 148.887 41.9985C148.515 42.4848 148.114 42.9463 147.688 43.3811L152.603 41.8884C153.096 41.7661 153.617 41.8353 154.061 42.0821C154.505 42.329 154.839 42.735 154.994 43.218C155.15 43.701 155.115 44.2249 154.898 44.6835C154.681 45.1422 154.297 45.5014 153.825 45.6884L145.978 48.0921L146.11 48.1855C147.576 48.0148 149.018 47.6538 150.399 47.1084C150.582 47.0277 150.779 46.9837 150.979 46.9789C151.178 46.9741 151.378 47.0086 151.565 47.0807C151.751 47.1527 151.921 47.2605 152.066 47.3983C152.211 47.536 152.327 47.7009 152.408 47.8834C152.489 48.0659 152.533 48.2625 152.538 48.4621C152.542 48.6617 152.507 48.8602 152.436 49.0464C152.364 49.2325 152.256 49.4028 152.118 49.5472C151.98 49.6917 151.814 49.8077 151.632 49.8884C150.885 50.193 150.121 50.4495 149.344 50.6573C153.258 53.8538 156.784 57.5212 159.836 61.5885L195.067 68.3285C195.333 68.3285 195.588 68.4339 195.775 68.6214C195.963 68.809 196.069 69.0633 196.069 69.3285C196.069 69.5938 195.963 69.8481 195.775 70.0357C195.588 70.2231 195.333 70.3285 195.067 70.3285C194.766 70.3885 164.864 76.9285 153.735 85.1685C150.386 88.3204 146.576 90.8753 142.47 92.7677L143.759 95.9724L141.899 96.7171L140.631 93.563C135.614 95.593 130.207 96.659 124.695 96.6485C121.051 96.6442 117.454 96.1729 113.988 95.2678L112.671 98.5902L110.808 97.8539L112.053 94.7134ZM146.859 51.2215C151.233 54.6119 155.138 58.5942 158.453 63.0685C158.606 63.2684 158.827 63.4041 159.074 63.4485L190.048 69.3785C181.073 71.5685 161.449 76.9085 152.573 83.4685L152.433 83.5885C146.688 89.0095 139.479 92.6317 131.695 94.007C123.911 95.3824 115.894 94.4509 108.634 91.3274C101.375 88.204 95.1913 83.0257 90.8478 76.4323C86.5042 69.8391 84.1912 62.1198 84.1944 54.2285C84.1944 53.2085 84.2445 52.1585 84.3347 51.0185C84.3467 50.8737 84.3269 50.728 84.2768 50.5915C84.2266 50.4551 84.1472 50.3312 84.0442 50.2285L78.6949 44.8885C77.2558 43.4182 76.4501 41.4441 76.4501 39.3885C76.4501 37.3329 77.2558 35.3588 78.6949 33.8885C80.2922 32.2883 82.1931 31.0219 84.2863 30.1634C86.3796 29.3049 88.6231 28.8715 90.886 28.8885C93.144 28.8754 95.3819 29.3109 97.4697 30.1692C99.5574 31.0277 101.453 32.2919 103.047 33.8885L107.415 38.1685C107.51 38.2654 107.624 38.342 107.75 38.3935C107.875 38.4451 108.01 38.4707 108.146 38.4685H109.348C118.892 38.4338 128.312 40.6425 136.842 44.9162C137.92 45.456 138.98 46.0268 140.02 46.6275C139.931 46.9129 139.908 47.2165 139.952 47.5163C140.025 47.9951 140.268 48.4315 140.639 48.7445C140.828 48.9054 141.045 49.0281 141.278 49.1083C141.207 49.2584 141.161 49.4204 141.143 49.5884C141.101 49.9862 141.218 50.3847 141.471 50.6959C141.722 51.0072 142.087 51.206 142.486 51.2484C142.501 51.2484 142.54 51.2511 142.603 51.2554C142.734 51.2648 142.969 51.2811 143.287 51.2932C133.946 57.7348 120.785 66.6111 118.935 67.3684C117.462 66.8184 111.572 60.6284 106.834 55.0584C106.662 54.8555 106.417 54.7289 106.152 54.7064C105.888 54.6839 105.625 54.7673 105.421 54.9384C105.218 55.1094 105.091 55.3541 105.069 55.6185C105.046 55.883 105.13 56.1455 105.301 56.3484C112.674 64.9684 117.292 69.3484 119.055 69.3484L119.235 69.3984C121.139 68.9884 140.713 55.5184 146.663 51.3984C146.735 51.3482 146.802 51.2887 146.859 51.2215ZM83.8038 43.0384C85.0762 43.0384 86.1078 42.0088 86.1078 40.7384C86.1078 39.4682 85.0762 38.4384 83.8038 38.4384C82.5313 38.4384 81.4998 39.4682 81.4998 40.7384C81.4998 42.0088 82.5313 43.0384 83.8038 43.0384ZM106.573 127.528H137.998C138.264 127.528 138.519 127.423 138.706 127.235C138.894 127.048 139 126.794 139 126.528C139 126.263 138.894 126.008 138.706 125.822C138.519 125.634 138.264 125.528 137.998 125.528H106.573C106.308 125.528 106.053 125.634 105.865 125.822C105.677 126.008 105.571 126.263 105.571 126.528C105.571 126.794 105.677 127.048 105.865 127.235C106.053 127.423 106.308 127.528 106.573 127.528ZM159.395 127.528H171.416C171.682 127.528 171.937 127.423 172.124 127.235C172.312 127.048 172.418 126.794 172.418 126.528C172.418 126.263 172.312 126.008 172.124 125.822C171.937 125.634 171.682 125.528 171.416 125.528H159.395C159.129 125.528 158.874 125.634 158.687 125.822C158.499 126.008 158.393 126.263 158.393 126.528C158.393 126.794 158.499 127.048 158.687 127.235C158.874 127.423 159.129 127.528 159.395 127.528ZM181.473 127.528H176.465C176.199 127.528 175.944 127.423 175.757 127.235C175.569 127.048 175.463 126.794 175.463 126.528C175.463 126.263 175.569 126.008 175.757 125.822C175.944 125.634 176.199 125.528 176.465 125.528H181.473C181.739 125.528 181.994 125.634 182.181 125.822C182.369 126.008 182.475 126.263 182.475 126.528C182.475 126.794 182.369 127.048 182.181 127.235C181.994 127.423 181.739 127.528 181.473 127.528Z" fill="#808B95"/>
<path fill-rule="evenodd" clip-rule="evenodd" d="M144.306 132.489C140.92 132.489 137.795 131.289 136.783 128.769C136.612 128.41 136.524 128.017 136.524 127.619C136.524 127.221 136.612 126.828 136.783 126.469C137.444 125.189 139.107 124.779 141.041 124.309C142.206 124.071 143.341 123.706 144.427 123.219C145.634 122.708 146.628 121.797 147.241 120.639C145.769 118.549 139.228 108.989 135.681 99.1691C135.596 98.9261 135.607 98.6594 135.714 98.4248C135.819 98.19 136.013 98.0053 136.252 97.9091L149.055 92.7791C149.177 92.7304 149.307 92.7063 149.44 92.7081C149.571 92.7099 149.701 92.7375 149.823 92.7895C149.943 92.8415 150.053 92.9169 150.144 93.0112C150.236 93.1055 150.308 93.217 150.357 93.3391L163.099 125.029C163.148 125.151 163.172 125.281 163.17 125.414C163.168 125.545 163.14 125.675 163.089 125.796C163.037 125.916 162.961 126.026 162.866 126.117C162.772 126.208 162.66 126.28 162.538 126.329L156.668 128.689C156.424 128.789 156.15 128.789 155.907 128.689C155.784 128.638 155.674 128.562 155.58 128.468C155.488 128.374 155.415 128.262 155.366 128.139L155.235 127.819C153.818 129.288 152.122 130.458 150.244 131.262C148.368 132.066 146.349 132.487 144.306 132.499V132.489ZM137.905 99.3991C141.802 109.699 149.075 119.759 149.155 119.869C149.301 120.071 149.364 120.321 149.335 120.569C149.335 120.829 148.924 123.139 145.328 124.989C144.104 125.559 142.816 125.982 141.491 126.249L141.367 126.28C140.188 126.574 138.777 126.926 138.486 127.389C138.442 127.604 138.474 127.826 138.576 128.019C139.578 130.509 144.707 131.299 148.924 129.609C153.142 127.919 154.544 125.359 154.554 125.339C154.644 125.17 154.78 125.03 154.947 124.937C155.114 124.842 155.304 124.798 155.496 124.809C155.685 124.82 155.868 124.884 156.021 124.994C156.176 125.102 156.296 125.255 156.367 125.429L156.788 126.429L160.795 124.819L148.774 94.9791L137.905 99.3991ZM104.477 133.089C104.35 133.089 104.225 133.066 104.107 133.019L98.2265 130.699C97.9797 130.603 97.7816 130.411 97.6755 130.169C97.6245 130.047 97.5983 129.916 97.5983 129.785C97.5983 129.653 97.6245 129.521 97.6755 129.399L97.7957 129.079C95.5708 129.199 93.3477 128.813 91.2944 127.949C88.8656 126.989 86.7432 125.389 85.1538 123.319C83.5509 121.159 83.0301 118.889 83.7413 117.109C83.8612 116.729 84.066 116.381 84.3401 116.093C84.6144 115.804 84.9508 115.58 85.3241 115.439C86.6864 114.959 88.179 115.799 89.902 116.789C90.9119 117.42 91.9908 117.934 93.1176 118.319C94.344 118.783 95.6937 118.804 96.9342 118.379C97.3049 115.849 99.128 104.379 103.335 94.8592C103.441 94.6245 103.633 94.4394 103.872 94.3426C104.111 94.2457 104.378 94.2445 104.618 94.3392L117.45 99.3992C117.573 99.4483 117.685 99.5214 117.779 99.6141C117.874 99.7067 117.949 99.8173 118.001 99.9392C118.101 100.183 118.101 100.456 118.001 100.699L105.409 132.459C105.335 132.645 105.206 132.805 105.04 132.917C104.874 133.029 104.678 133.089 104.477 133.089ZM99.8994 129.209L103.906 130.789L115.757 100.889L104.738 96.5392C100.589 106.429 98.9139 118.37 98.8122 119.095L98.8119 119.097L98.8075 119.129C98.7754 119.379 98.6502 119.608 98.4569 119.769C98.2565 119.929 96.3833 121.349 92.5166 120.229C91.2331 119.808 90.0054 119.235 88.8602 118.519C87.7783 117.899 86.446 117.139 85.9351 117.309C85.7648 117.369 85.6246 117.659 85.5545 117.829C85.1136 118.959 85.5545 120.519 86.7165 122.119C88.0764 123.901 89.8935 125.284 91.9756 126.119C96.1829 127.779 98.9878 126.889 98.9878 126.879C99.1693 126.817 99.3648 126.809 99.5509 126.855C99.7371 126.901 99.9062 126.999 100.038 127.138C100.17 127.277 100.259 127.451 100.295 127.639C100.331 127.827 100.312 128.021 100.24 128.199L99.8994 129.209Z" fill="#FE8240"/>
</svg>
